{
.appVersion = "3258";
.formatVersion = 3;
axes = (
{
name = Weight;
tag = wght;
}
);
customParameters = (
{
name = "Use Typo Metrics";
value = 1;
}
);
date = "2024-02-26 13:56:12 +0000";
familyName = "Ring Link";
featurePrefixes = (
{
automatic = 1;
code = "languagesystem DFLT dflt;

languagesystem cyrl dflt;
languagesystem cyrl BGR;

languagesystem latn dflt;
languagesystem latn NLD;
";
name = Languagesystems;
}
);
features = (
{
automatic = 1;
code = "feature locl;
feature sups;
feature ordn;
";
tag = aalt;
},
{
automatic = 1;
code = "lookup ccmp_Other_1 {
	@CombiningTopAccents = [acutecomb circumflexcomb dieresiscomb dotaccentcomb gravecomb ringcomb tildecomb];
	@CombiningNonTopAccents = [cedillacomb];
	sub [i j]' @CombiningTopAccents by [idotless jdotless];
	sub [i j]' @CombiningNonTopAccents @CombiningTopAccents by [idotless jdotless];
} ccmp_Other_1;
";
tag = ccmp;
},
{
automatic = 1;
code = "sub one by onesuperior;
sub two by twosuperior;
sub three by threesuperior;
";
tag = sups;
},
{
automatic = 1;
code = "sub [zero one two three four five six seven eight nine] [A a]' by ordfeminine;
sub [zero one two three four five six seven eight nine] [O o]' by ordmasculine;
";
tag = ordn;
}
);
fontMaster = (
{
customParameters = (
{
name = hheaAscender;
value = 1980;
},
{
name = hheaDescender;
value = -490;
},
{
name = hheaLineGap;
value = 310;
},
{
name = typoAscender;
value = 1980;
},
{
name = typoDescender;
value = -490;
},
{
name = typoLineGap;
value = 310;
},
{
name = winDescent;
value = 490;
}
);
iconName = Bold;
id = "9BFADF9A-1221-4846-BC6F-4F7BEE8BA661";
metricValues = (
{
pos = 1589;
},
{
pos = 1462;
},
{
pos = 984;
},
{
},
{
pos = -459;
}
);
name = Bold;
}
);
glyphs = (
{
glyphname = A;
kernLeft = "20";
kernRight = "20";
lastChange = "2024-04-18 14:55:36 +0000";
layers = (
{
anchors = (
{
name = top;
pos = (360,1546);
}
);
hints = (
{
name = _corner.serif;
origin = (1,3);
type = Corner;
},
{
name = _corner.serif;
options = 1;
origin = (3,0);
scale = (-1,1);
type = Corner;
}
);
layerId = "9BFADF9A-1221-4846-BC6F-4F7BEE8BA661";
shapes = (
{
closed = 1;
nodes = (
(240,336,l),
(240,401,o),
(294,454,o),
(362,454,cs),
(426,454,o),
(480,401,o),
(480,336,c),
(630,336,l),
(630,484,o),
(509,604,o),
(362,604,cs),
(211,604,o),
(90,484,o),
(90,336,c)
);
},
{
closed = 1;
nodes = (
(240,0,l),
(240,1193,l),
(90,1193,l),
(90,0,l)
);
},
{
closed = 1;
nodes = (
(240,1193,l),
(240,1257,o),
(294,1311,o),
(362,1311,cs),
(426,1311,o),
(480,1257,o),
(480,1193,c),
(630,1193,l),
(630,1340,o),
(509,1461,o),
(362,1461,cs),
(211,1461,o),
(90,1340,o),
(90,1193,c)
);
},
{
closed = 1;
nodes = (
(630,0,l),
(630,1193,l),
(480,1193,l),
(480,0,l)
);
}
);
width = 720;
}
);
unicode = 65;
},
{
glyphname = AE;
kernLeft = "20";
kernRight = "20";
lastChange = "2024-04-18 14:55:36 +0000";
layers = (
{
hints = (
{
name = _corner.serif;
origin = (0,42);
type = Corner;
}
);
layerId = "9BFADF9A-1221-4846-BC6F-4F7BEE8BA661";
shapes = (
{
closed = 1;
nodes = (
(240,0,l),
(240,336,ls),
(240,401,o),
(294,454,o),
(362,454,cs),
(426,454,o),
(480,401,o),
(480,336,cs),
(480,0,l),
(751,0,ls),
(899,0,o),
(1020,121,o),
(1020,268,c),
(870,268,l),
(870,204,o),
(816,150,o),
(751,150,cs),
(630,150,l),
(630,657,l),
(797,657,l),
(797,806,l),
(630,806,l),
(630,1193,ls),
(630,1257,o),
(684,1311,o),
(751,1311,cs),
(816,1311,o),
(870,1257,o),
(870,1193,c),
(1020,1193,l),
(1020,1340,o),
(899,1461,o),
(751,1461,cs),
(672,1461,o),
(603,1426,o),
(556,1374,c),
(508,1426,o),
(438,1461,o),
(362,1461,cs),
(211,1461,o),
(90,1340,o),
(90,1193,cs),
(90,0,l)
);
},
{
closed = 1;
nodes = (
(240,1193,ls),
(240,1257,o),
(294,1311,o),
(362,1311,cs),
(426,1311,o),
(480,1257,o),
(480,1193,cs),
(480,569,l),
(446,590,o),
(405,604,o),
(362,604,cs),
(315,604,o),
(275,590,o),
(240,569,c)
);
}
);
width = 1060;
}
);
unicode = 198;
},
{
glyphname = B;
kernLeft = "20";
kernRight = "20";
lastChange = "2024-04-18 14:55:36 +0000";
layers = (
{
hints = (
{
name = _corner.serif;
origin = (0,17);
type = Corner;
}
);
layerId = "9BFADF9A-1221-4846-BC6F-4F7BEE8BA661";
shapes = (
{
closed = 1;
nodes = (
(362,0,ls),
(509,0,o),
(630,121,o),
(630,268,cs),
(630,806,ls),
(630,883,o),
(595,952,o),
(543,1000,c),
(595,1047,o),
(630,1117,o),
(630,1193,cs),
(630,1340,o),
(509,1461,o),
(362,1461,cs),
(211,1461,o),
(90,1340,o),
(90,1193,cs),
(90,0,l)
);
},
{
closed = 1;
nodes = (
(240,1193,ls),
(240,1257,o),
(294,1311,o),
(362,1311,cs),
(426,1311,o),
(480,1257,o),
(480,1193,cs),
(480,1128,o),
(426,1074,o),
(362,1074,c),
(362,924,l),
(426,924,o),
(480,871,o),
(480,806,cs),
(480,268,ls),
(480,204,o),
(426,150,o),
(362,150,cs),
(240,150,l)
);
}
);
width = 670;
}
);
unicode = 66;
},
{
glyphname = C;
kernLeft = "20";
kernRight = "20";
lastChange = "2024-04-18 14:55:36 +0000";
layers = (
{
anchors = (
{
name = bottom;
pos = (400,35);
}
);
hints = (
{
name = _corner.serif;
origin = (0,23);
type = Corner;
}
);
layerId = "9BFADF9A-1221-4846-BC6F-4F7BEE8BA661";
shapes = (
{
closed = 1;
nodes = (
(362,0,ls),
(509,0,o),
(630,121,o),
(630,268,c),
(480,268,l),
(480,204,o),
(426,150,o),
(362,150,cs),
(240,150,l),
(240,1193,ls),
(240,1257,o),
(294,1311,o),
(362,1311,cs),
(426,1311,o),
(480,1257,o),
(480,1193,c),
(630,1193,l),
(630,1340,o),
(509,1461,o),
(362,1461,cs),
(211,1461,o),
(90,1340,o),
(90,1193,cs),
(90,0,l)
);
}
);
width = 670;
}
);
unicode = 67;
},
{
glyphname = D;
kernLeft = "20";
kernRight = "20";
lastChange = "2024-04-18 14:55:36 +0000";
layers = (
{
hints = (
{
name = _corner.serif;
origin = (0,23);
type = Corner;
}
);
layerId = "9BFADF9A-1221-4846-BC6F-4F7BEE8BA661";
shapes = (
{
closed = 1;
nodes = (
(240,0,l),
(240,1193,ls),
(240,1257,o),
(294,1311,o),
(362,1311,cs),
(426,1311,o),
(480,1257,o),
(480,1193,cs),
(480,268,ls),
(480,204,o),
(426,150,o),
(362,150,c),
(362,0,l),
(509,0,o),
(630,121,o),
(630,268,cs),
(630,1193,ls),
(630,1340,o),
(509,1461,o),
(362,1461,cs),
(211,1461,o),
(90,1340,o),
(90,1193,cs),
(90,0,l)
);
}
);
width = 670;
}
);
unicode = 68;
},
{
glyphname = Eth;
lastChange = "2024-04-18 14:55:36 +0000";
layers = (
{
hints = (
{
horizontal = 1;
origin = (0,31);
target = (0,15);
type = Stem;
},
{
horizontal = 1;
origin = (0,29);
target = (0,28);
type = Stem;
},
{
horizontal = 1;
origin = (0,23);
target = (0,8);
type = Stem;
},
{
origin = (0,31);
target = (0,0);
type = Stem;
},
{
origin = (0,12);
target = (0,19);
type = Stem;
},
{
name = _corner.serif;
origin = (0,31);
type = Corner;
}
);
layerId = "9BFADF9A-1221-4846-BC6F-4F7BEE8BA661";
shapes = (
{
closed = 1;
nodes = (
(304,0,l),
(304,657,l),
(412,657,l),
(412,806,l),
(304,806,l),
(304,1193,ls),
(304,1257,o),
(357,1311,o),
(425,1311,cs),
(490,1311,o),
(543,1257,o),
(543,1193,cs),
(543,268,ls),
(543,204,o),
(490,150,o),
(425,150,c),
(425,0,l),
(572,0,o),
(693,121,o),
(693,268,cs),
(693,1193,ls),
(693,1340,o),
(572,1461,o),
(425,1461,cs),
(275,1461,o),
(154,1340,o),
(154,1193,cs),
(154,806,l),
(40,806,l),
(40,657,l),
(154,657,l),
(154,0,l)
);
}
);
width = 734;
}
);
unicode = 208;
},
{
glyphname = E;
kernLeft = "20";
kernRight = "20";
lastChange = "2024-04-18 14:55:36 +0000";
layers = (
{
anchors = (
{
name = top;
pos = (360,1546);
}
);
hints = (
{
name = _corner.serif;
origin = (0,27);
type = Corner;
}
);
layerId = "9BFADF9A-1221-4846-BC6F-4F7BEE8BA661";
shapes = (
{
closed = 1;
nodes = (
(362,0,ls),
(509,0,o),
(630,121,o),
(630,268,c),
(480,268,l),
(480,204,o),
(426,150,o),
(362,150,cs),
(240,150,l),
(240,657,l),
(408,657,l),
(408,806,l),
(240,806,l),
(240,1193,ls),
(240,1257,o),
(294,1311,o),
(362,1311,cs),
(426,1311,o),
(480,1257,o),
(480,1193,c),
(630,1193,l),
(630,1340,o),
(509,1461,o),
(362,1461,cs),
(211,1461,o),
(90,1340,o),
(90,1193,cs),
(90,0,l)
);
}
);
width = 670;
}
);
unicode = 69;
},
{
glyphname = F;
kernLeft = "20";
kernRight = "20";
lastChange = "2024-04-18 14:55:36 +0000";
layers = (
{
hints = (
{
name = _corner.serif;
origin = (0,19);
type = Corner;
}
);
layerId = "9BFADF9A-1221-4846-BC6F-4F7BEE8BA661";
shapes = (
{
closed = 1;
nodes = (
(240,0,l),
(240,418,l),
(362,418,l),
(362,568,l),
(240,568,l),
(240,1193,ls),
(240,1257,o),
(294,1311,o),
(362,1311,cs),
(426,1311,o),
(480,1257,o),
(480,1193,c),
(630,1193,l),
(630,1340,o),
(509,1461,o),
(362,1461,cs),
(211,1461,o),
(90,1340,o),
(90,1193,cs),
(90,0,l)
);
}
);
width = 670;
}
);
unicode = 70;
userData = {
KernOnName = F;
};
},
{
glyphname = G;
kernLeft = "20";
kernRight = "20";
lastChange = "2024-04-18 14:55:36 +0000";
layers = (
{
hints = (
{
name = _corner.serif;
origin = (0,29);
type = Corner;
}
);
layerId = "9BFADF9A-1221-4846-BC6F-4F7BEE8BA661";
shapes = (
{
closed = 1;
nodes = (
(362,0,ls),
(408,0,o),
(447,11,o),
(480,36,c),
(480,0,l),
(630,0,l),
(630,642,l),
(362,642,l),
(362,492,l),
(480,492,l),
(480,268,ls),
(480,204,o),
(426,150,o),
(362,150,cs),
(240,150,l),
(240,1193,ls),
(240,1257,o),
(294,1311,o),
(362,1311,cs),
(426,1311,o),
(480,1257,o),
(480,1193,c),
(630,1193,l),
(630,1340,o),
(509,1461,o),
(362,1461,cs),
(211,1461,o),
(90,1340,o),
(90,1193,cs),
(90,0,l)
);
}
);
width = 670;
}
);
unicode = 71;
},
{
glyphname = H;
kernLeft = "20";
kernRight = "20";
lastChange = "2024-04-18 14:55:36 +0000";
layers = (
{
hints = (
{
name = _corner.serif;
origin = (0,12);
type = Corner;
},
{
name = _corner.serif;
options = 1;
origin = (0,0);
scale = (-1,1);
type = Corner;
}
);
layerId = "9BFADF9A-1221-4846-BC6F-4F7BEE8BA661";
shapes = (
{
closed = 1;
nodes = (
(630,0,l),
(630,1461,l),
(480,1461,l),
(480,568,l),
(447,590,o),
(406,604,o),
(362,604,cs),
(316,604,o),
(274,590,o),
(240,568,c),
(240,1461,l),
(90,1461,l),
(90,0,l),
(240,0,l),
(240,336,ls),
(240,401,o),
(294,454,o),
(362,454,cs),
(426,454,o),
(480,401,o),
(480,336,cs),
(480,0,l)
);
}
);
width = 720;
}
);
unicode = 72;
userData = {
KernOnName = H;
};
},
{
glyphname = I;
kernLeft = "20";
kernRight = "20";
lastChange = "2024-04-18 14:55:36 +0000";
layers = (
{
anchors = (
{
name = top;
pos = (165,1546);
}
);
hints = (
{
name = _corner.serif;
options = 1;
origin = (0,0);
scale = (-1,1);
type = Corner;
},
{
name = _corner.serif;
options = 2;
origin = (0,1);
type = Corner;
},
{
name = _corner.serif;
options = 1;
origin = (0,2);
scale = (-1,1);
type = Corner;
},
{
name = _corner.serif;
options = 2;
origin = (0,3);
type = Corner;
}
);
layerId = "9BFADF9A-1221-4846-BC6F-4F7BEE8BA661";
shapes = (
{
closed = 1;
nodes = (
(240,0,l),
(240,1461,l),
(90,1461,l),
(90,0,l)
);
}
);
width = 331;
}
);
unicode = 73;
userData = {
KernOnName = I;
};
},
{
glyphname = IJ;
lastChange = "2024-04-18 14:55:36 +0000";
layers = (
{
hints = (
{
name = _corner.serif;
options = 1;
origin = (0,2);
scale = (-1,1);
type = Corner;
},
{
name = _corner.serif;
origin = (1,1);
type = Corner;
}
);
layerId = "9BFADF9A-1221-4846-BC6F-4F7BEE8BA661";
shapes = (
{
closed = 1;
nodes = (
(240,669,l),
(240,1461,l),
(90,1461,l),
(90,669,l)
);
},
{
closed = 1;
nodes = (
(630,268,l),
(630,1461,l),
(480,1461,l),
(480,268,l)
);
},
{
closed = 1;
nodes = (
(360,150,l),
(294,150,o),
(240,204,o),
(240,268,c),
(90,268,l),
(90,121,o),
(211,0,o),
(360,0,c)
);
},
{
closed = 1;
nodes = (
(509,0,o),
(630,121,o),
(630,268,c),
(480,268,l),
(480,204,o),
(426,150,o),
(360,150,c),
(360,0,l)
);
}
);
width = 721;
}
);
unicode = 306;
},
{
glyphname = J;
kernLeft = "20";
kernRight = "20";
lastChange = "2024-04-18 14:55:36 +0000";
layers = (
{
anchors = (
{
name = top;
pos = (357,1546);
}
);
hints = (
{
name = _corner.serif;
origin = (0,1);
type = Corner;
}
);
layerId = "9BFADF9A-1221-4846-BC6F-4F7BEE8BA661";
shapes = (
{
closed = 1;
nodes = (
(580,268,l),
(580,1461,l),
(430,1461,l),
(430,268,l)
);
},
{
closed = 1;
nodes = (
(310,150,l),
(244,150,o),
(190,204,o),
(190,268,c),
(40,268,l),
(40,121,o),
(161,0,o),
(310,0,c)
);
},
{
closed = 1;
nodes = (
(459,0,o),
(580,121,o),
(580,268,c),
(430,268,l),
(430,204,o),
(376,150,o),
(310,150,c),
(310,0,l)
);
}
);
width = 670;
}
);
unicode = 74;
},
{
glyphname = K;
kernLeft = "20";
kernRight = "20";
lastChange = "2024-04-18 14:55:36 +0000";
layers = (
{
hints = (
{
name = _corner.serif;
origin = (0,28);
type = Corner;
},
{
name = _corner.serif;
options = 1;
origin = (0,9);
scale = (-1,1);
type = Corner;
}
);
layerId = "9BFADF9A-1221-4846-BC6F-4F7BEE8BA661";
shapes = (
{
closed = 1;
nodes = (
(240,0,l),
(240,336,ls),
(240,401,o),
(294,454,o),
(362,454,cs),
(426,454,o),
(480,401,o),
(480,336,cs),
(480,0,l),
(630,0,l),
(630,336,ls),
(630,414,o),
(595,483,o),
(542,530,c),
(595,576,o),
(630,645,o),
(630,723,cs),
(630,1461,l),
(480,1461,l),
(480,723,ls),
(480,658,o),
(426,604,o),
(362,604,cs),
(316,604,o),
(274,590,o),
(240,568,c),
(240,1461,l),
(90,1461,l),
(90,0,l)
);
}
);
width = 720;
}
);
unicode = 75;
},
{
glyphname = L;
kernLeft = "20";
kernRight = "20";
lastChange = "2024-04-18 14:55:36 +0000";
layers = (
{
hints = (
{
name = _corner.serif;
origin = (0,3);
type = Corner;
}
);
layerId = "9BFADF9A-1221-4846-BC6F-4F7BEE8BA661";
shapes = (
{
closed = 1;
nodes = (
(240,0,l),
(240,1461,l),
(90,1461,l),
(90,0,l)
);
},
{
closed = 1;
nodes = (
(551,0,l),
(551,150,l),
(112,150,l),
(112,0,l)
);
}
);
width = 591;
}
);
unicode = 76;
},
{
glyphname = M;
kernLeft = "20";
kernRight = "20";
lastChange = "2024-04-18 14:55:36 +0000";
layers = (
{
hints = (
{
name = _corner.serif;
origin = (0,32);
type = Corner;
},
{
name = _corner.serif;
options = 1;
origin = (0,18);
scale = (-1,1);
type = Corner;
}
);
layerId = "9BFADF9A-1221-4846-BC6F-4F7BEE8BA661";
shapes = (
{
closed = 1;
nodes = (
(240,0,l),
(240,1193,ls),
(240,1257,o),
(294,1311,o),
(362,1311,cs),
(426,1311,o),
(480,1257,o),
(480,1193,cs),
(480,0,l),
(630,0,l),
(630,1193,ls),
(630,1257,o),
(684,1311,o),
(751,1311,cs),
(816,1311,o),
(870,1257,o),
(870,1193,cs),
(870,0,l),
(1020,0,l),
(1020,1193,ls),
(1020,1340,o),
(899,1461,o),
(751,1461,cs),
(672,1461,o),
(603,1426,o),
(556,1374,c),
(508,1426,o),
(438,1461,o),
(362,1461,cs),
(211,1461,o),
(90,1340,o),
(90,1193,cs),
(90,0,l)
);
}
);
width = 1110;
}
);
unicode = 77;
},
{
glyphname = N;
kernLeft = "20";
kernRight = "20";
lastChange = "2024-04-18 14:55:36 +0000";
layers = (
{
anchors = (
{
name = top;
pos = (359,1546);
}
);
hints = (
{
name = _corner.serif;
origin = (0,17);
type = Corner;
},
{
name = _corner.serif;
options = 1;
origin = (0,9);
scale = (-1,1);
type = Corner;
}
);
layerId = "9BFADF9A-1221-4846-BC6F-4F7BEE8BA661";
shapes = (
{
closed = 1;
nodes = (
(240,0,l),
(240,1193,ls),
(240,1257,o),
(294,1311,o),
(362,1311,cs),
(426,1311,o),
(480,1257,o),
(480,1193,cs),
(480,0,l),
(630,0,l),
(630,1193,ls),
(630,1340,o),
(509,1461,o),
(362,1461,cs),
(211,1461,o),
(90,1340,o),
(90,1193,cs),
(90,0,l)
);
}
);
width = 720;
}
);
unicode = 78;
},
{
glyphname = O;
kernLeft = "20";
kernRight = "20";
lastChange = "2024-04-18 14:55:36 +0000";
layers = (
{
anchors = (
{
name = top;
pos = (309,1546);
}
);
layerId = "9BFADF9A-1221-4846-BC6F-4F7BEE8BA661";
shapes = (
{
closed = 1;
nodes = (
(190,1193,l),
(190,1257,o),
(244,1311,o),
(312,1311,cs),
(376,1311,o),
(430,1257,o),
(430,1193,c),
(580,1193,l),
(580,1340,o),
(459,1461,o),
(312,1461,cs),
(161,1461,o),
(40,1340,o),
(40,1193,c)
);
},
{
closed = 1;
nodes = (
(459,0,o),
(580,121,o),
(580,268,c),
(430,268,l),
(430,204,o),
(376,150,o),
(312,150,cs),
(244,150,o),
(190,204,o),
(190,268,c),
(40,268,l),
(40,121,o),
(161,0,o),
(312,0,cs)
);
},
{
closed = 1;
nodes = (
(190,268,l),
(190,1193,l),
(40,1193,l),
(40,268,l)
);
},
{
closed = 1;
nodes = (
(580,268,l),
(580,1193,l),
(430,1193,l),
(430,268,l)
);
}
);
width = 620;
}
);
unicode = 79;
userData = {
KernOnName = O;
};
},
{
glyphname = Oslash;
kernLeft = "20";
kernRight = "20";
lastChange = "2024-04-18 14:55:36 +0000";
layers = (
{
layerId = "9BFADF9A-1221-4846-BC6F-4F7BEE8BA661";
shapes = (
{
closed = 1;
nodes = (
(192,0,l),
(199,29,l),
(231,11,o),
(269,0,o),
(312,0,cs),
(459,0,o),
(580,121,o),
(580,268,cs),
(580,1193,ls),
(580,1243,o),
(565,1291,o),
(540,1331,c),
(580,1461,l),
(428,1461,l),
(422,1431,l),
(389,1450,o),
(351,1461,o),
(312,1461,cs),
(161,1461,o),
(40,1340,o),
(40,1193,cs),
(40,268,ls),
(40,217,o),
(56,170,o),
(79,129,c),
(40,0,l)
);
},
{
closed = 1;
nodes = (
(287,150,o),
(263,161,o),
(249,178,c),
(430,1003,l),
(430,268,ls),
(430,204,o),
(376,150,o),
(312,150,cs)
);
},
{
closed = 1;
nodes = (
(190,1193,ls),
(190,1257,o),
(244,1311,o),
(312,1311,cs),
(335,1311,o),
(358,1300,o),
(371,1285,c),
(190,458,l)
);
}
);
width = 620;
}
);
unicode = 216;
},
{
glyphname = OE;
kernLeft = "20";
kernRight = "20";
lastChange = "2024-04-18 14:55:36 +0000";
layers = (
{
layerId = "9BFADF9A-1221-4846-BC6F-4F7BEE8BA661";
shapes = (
{
closed = 1;
nodes = (
(355,0,o),
(396,14,o),
(430,36,c),
(430,0,l),
(701,0,ls),
(849,0,o),
(969,121,o),
(969,268,c),
(819,268,l),
(819,204,o),
(766,150,o),
(701,150,cs),
(580,150,l),
(580,657,l),
(747,657,l),
(747,806,l),
(580,806,l),
(580,1193,ls),
(580,1257,o),
(633,1311,o),
(701,1311,cs),
(766,1311,o),
(819,1257,o),
(819,1193,c),
(969,1193,l),
(969,1340,o),
(849,1461,o),
(701,1461,cs),
(622,1461,o),
(553,1426,o),
(506,1374,c),
(458,1426,o),
(388,1461,o),
(312,1461,cs),
(161,1461,o),
(40,1340,o),
(40,1193,cs),
(40,268,ls),
(40,121,o),
(161,0,o),
(312,0,cs)
);
},
{
closed = 1;
nodes = (
(244,150,o),
(190,204,o),
(190,268,cs),
(190,1193,ls),
(190,1257,o),
(244,1311,o),
(312,1311,cs),
(376,1311,o),
(430,1257,o),
(430,1193,cs),
(430,268,ls),
(430,204,o),
(376,150,o),
(312,150,cs)
);
}
);
width = 1010;
}
);
unicode = 338;
},
{
glyphname = P;
kernLeft = "20";
kernRight = "20";
lastChange = "2024-04-18 14:55:36 +0000";
layers = (
{
hints = (
{
name = _corner.serif;
origin = (0,15);
type = Corner;
}
);
layerId = "9BFADF9A-1221-4846-BC6F-4F7BEE8BA661";
shapes = (
{
closed = 1;
nodes = (
(240,0,l),
(240,491,l),
(275,469,o),
(315,454,o),
(362,454,cs),
(509,454,o),
(630,575,o),
(630,723,cs),
(630,1193,ls),
(630,1340,o),
(509,1461,o),
(362,1461,cs),
(211,1461,o),
(90,1340,o),
(90,1193,cs),
(90,0,l)
);
},
{
closed = 1;
nodes = (
(294,604,o),
(240,658,o),
(240,723,cs),
(240,1193,ls),
(240,1257,o),
(294,1311,o),
(362,1311,cs),
(426,1311,o),
(480,1257,o),
(480,1193,cs),
(480,723,ls),
(480,658,o),
(426,604,o),
(362,604,cs)
);
}
);
width = 670;
}
);
unicode = 80;
},
{
glyphname = Thorn;
lastChange = "2024-04-18 14:55:36 +0000";
layers = (
{
hints = (
{
name = _corner.serif;
options = 1;
origin = (0,16);
scale = (-1,1);
type = Corner;
},
{
name = _corner.serif;
options = 2;
origin = (0,17);
type = Corner;
}
);
layerId = "9BFADF9A-1221-4846-BC6F-4F7BEE8BA661";
shapes = (
{
closed = 1;
nodes = (
(240,0,l),
(240,491,l),
(275,469,o),
(315,454,o),
(362,454,cs),
(509,454,o),
(630,575,o),
(630,723,cs),
(630,1193,ls),
(630,1340,o),
(509,1461,o),
(362,1461,cs),
(315,1461,o),
(275,1448,o),
(240,1425,c),
(240,1461,l),
(90,1461,l),
(90,0,l)
);
},
{
closed = 1;
nodes = (
(294,604,o),
(240,658,o),
(240,723,cs),
(240,1193,ls),
(240,1257,o),
(294,1311,o),
(362,1311,cs),
(426,1311,o),
(480,1257,o),
(480,1193,cs),
(480,723,ls),
(480,658,o),
(426,604,o),
(362,604,cs)
);
}
);
width = 670;
}
);
unicode = 222;
},
{
glyphname = Q;
kernLeft = "20";
kernRight = "20";
lastChange = "2024-04-18 14:55:36 +0000";
layers = (
{
layerId = "9BFADF9A-1221-4846-BC6F-4F7BEE8BA661";
shapes = (
{
closed = 1;
nodes = (
(190,1193,l),
(190,1257,o),
(244,1311,o),
(312,1311,cs),
(376,1311,o),
(430,1257,o),
(430,1193,c),
(580,1193,l),
(580,1340,o),
(459,1461,o),
(312,1461,cs),
(161,1461,o),
(40,1340,o),
(40,1193,c)
);
},
{
closed = 1;
nodes = (
(459,0,o),
(580,121,o),
(580,268,c),
(430,268,l),
(430,204,o),
(376,150,o),
(312,150,cs),
(244,150,o),
(190,204,o),
(190,268,c),
(40,268,l),
(40,121,o),
(161,0,o),
(312,0,cs)
);
},
{
closed = 1;
nodes = (
(580,32,l),
(512,32,o),
(459,85,o),
(459,150,c),
(309,150,l),
(309,2,o),
(429,-118,o),
(580,-118,c)
);
},
{
closed = 1;
nodes = (
(190,268,l),
(190,1193,l),
(40,1193,l),
(40,268,l)
);
},
{
closed = 1;
nodes = (
(580,268,l),
(580,1193,l),
(430,1193,l),
(430,268,l)
);
}
);
width = 620;
}
);
unicode = 81;
},
{
glyphname = R;
kernLeft = "20";
kernRight = "20";
lastChange = "2024-04-18 14:55:36 +0000";
layers = (
{
hints = (
{
name = _corner.serif;
origin = (0,32);
type = Corner;
},
{
name = _corner.serif;
options = 1;
origin = (0,17);
scale = (-1,1);
type = Corner;
}
);
layerId = "9BFADF9A-1221-4846-BC6F-4F7BEE8BA661";
shapes = (
{
closed = 1;
nodes = (
(240,0,l),
(240,1193,ls),
(240,1257,o),
(294,1311,o),
(362,1311,cs),
(426,1311,o),
(480,1257,o),
(480,1193,cs),
(480,723,ls),
(480,658,o),
(426,604,o),
(362,604,c),
(362,454,l),
(426,454,o),
(480,401,o),
(480,336,cs),
(480,0,l),
(630,0,l),
(630,336,ls),
(630,413,o),
(595,482,o),
(543,530,c),
(595,577,o),
(630,646,o),
(630,723,cs),
(630,1193,ls),
(630,1340,o),
(509,1461,o),
(362,1461,cs),
(211,1461,o),
(90,1340,o),
(90,1193,cs),
(90,0,l)
);
}
);
width = 720;
}
);
unicode = 82;
userData = {
KernOnName = R;
};
},
{
glyphname = S;
kernLeft = "20";
kernRight = "20";
lastChange = "2024-04-18 14:55:36 +0000";
layers = (
{
anchors = (
{
name = top;
pos = (309,1546);
}
);
hints = (
{
name = _corner.serif;
origin = (0,36);
type = Corner;
}
);
layerId = "9BFADF9A-1221-4846-BC6F-4F7BEE8BA661";
shapes = (
{
closed = 1;
nodes = (
(459,0,o),
(580,121,o),
(580,268,cs),
(580,806,ls),
(580,954,o),
(459,1074,o),
(312,1074,cs),
(244,1074,o),
(190,1128,o),
(190,1193,cs),
(190,1257,o),
(244,1311,o),
(312,1311,cs),
(376,1311,o),
(430,1257,o),
(430,1193,c),
(580,1193,l),
(580,1340,o),
(459,1461,o),
(312,1461,cs),
(161,1461,o),
(40,1340,o),
(40,1193,cs),
(40,1045,o),
(161,924,o),
(312,924,cs),
(376,924,o),
(430,871,o),
(430,806,cs),
(430,268,ls),
(430,204,o),
(376,150,o),
(312,150,cs),
(244,150,o),
(190,204,o),
(190,268,cs),
(190,806,l),
(40,806,l),
(40,268,ls),
(40,121,o),
(161,0,o),
(312,0,cs)
);
}
);
width = 620;
}
);
unicode = 83;
},
{
glyphname = Germandbls;
lastChange = "2024-04-18 14:55:36 +0000";
layers = (
{
hints = (
{
name = _corner.serif;
options = 1;
origin = (0,2);
scale = (-1,1);
type = Corner;
},
{
name = _corner.serif;
origin = (0,3);
type = Corner;
}
);
layerId = "9BFADF9A-1221-4846-BC6F-4F7BEE8BA661";
shapes = (
{
closed = 1;
nodes = (
(240,0,l),
(240,1461,l),
(90,1461,l),
(90,0,l)
);
},
{
closed = 1;
nodes = (
(509,0,o),
(630,121,o),
(630,268,c),
(480,268,l),
(480,204,o),
(426,150,o),
(362,150,c),
(362,0,l)
);
},
{
closed = 1;
nodes = (
(630,268,l),
(630,806,l),
(480,806,l),
(480,268,l)
);
},
{
closed = 1;
nodes = (
(630,806,l),
(630,954,o),
(509,1074,o),
(362,1074,c),
(362,924,l),
(426,924,o),
(480,871,o),
(480,806,c)
);
},
{
closed = 1;
nodes = (
(509,924,o),
(630,1045,o),
(630,1193,c),
(480,1193,l),
(480,1128,o),
(426,1074,o),
(362,1074,c),
(362,924,l)
);
},
{
closed = 1;
nodes = (
(629,1311,l),
(629,1461,l),
(111,1461,l),
(111,1311,l)
);
},
{
closed = 1;
nodes = (
(630,1193,l),
(630,1461,l),
(480,1461,l),
(480,1193,l)
);
}
);
width = 670;
}
);
unicode = 7838;
},
{
glyphname = T;
kernLeft = "20";
kernRight = "20";
lastChange = "2024-04-18 14:55:36 +0000";
layers = (
{
hints = (
{
name = _corner.serif;
options = 1;
origin = (0,8);
scale = (-1,1);
type = Corner;
},
{
name = _corner.serif;
options = 1;
origin = (0,0);
scale = (-1,1);
type = Corner;
},
{
name = _corner.serif;
origin = (0,13);
type = Corner;
}
);
layerId = "9BFADF9A-1221-4846-BC6F-4F7BEE8BA661";
shapes = (
{
closed = 1;
nodes = (
(466,0,l),
(466,1193,ls),
(466,1257,o),
(520,1311,o),
(587,1311,cs),
(728,1311,l),
(728,1461,l),
(40,1461,l),
(40,1311,l),
(353,1311,l),
(330,1278,o),
(316,1237,o),
(316,1193,cs),
(316,0,l)
);
}
);
width = 768;
}
);
unicode = 84;
},
{
glyphname = U;
kernLeft = "20";
kernRight = "20";
lastChange = "2024-04-18 14:55:36 +0000";
layers = (
{
anchors = (
{
name = top;
pos = (359,1546);
}
);
hints = (
{
name = _corner.serif;
options = 1;
origin = (2,2);
scale = (-1,1);
type = Corner;
},
{
name = _corner.serif;
origin = (0,1);
type = Corner;
}
);
layerId = "9BFADF9A-1221-4846-BC6F-4F7BEE8BA661";
shapes = (
{
closed = 1;
nodes = (
(630,268,l),
(630,1461,l),
(480,1461,l),
(480,268,l)
);
},
{
closed = 1;
nodes = (
(509,0,o),
(630,121,o),
(630,268,c),
(480,268,l),
(480,204,o),
(426,150,o),
(362,150,cs),
(294,150,o),
(240,204,o),
(240,268,c),
(90,268,l),
(90,121,o),
(211,0,o),
(362,0,cs)
);
},
{
closed = 1;
nodes = (
(240,268,l),
(240,1461,l),
(90,1461,l),
(90,268,l)
);
}
);
width = 720;
}
);
unicode = 85;
},
{
glyphname = V;
kernLeft = "20";
kernRight = "20";
lastChange = "2024-04-18 14:55:36 +0000";
layers = (
{
hints = (
{
name = _corner.serif;
options = 1;
origin = (0,10);
scale = (-1,1);
type = Corner;
},
{
name = _corner.serif;
origin = (0,3);
type = Corner;
}
);
layerId = "9BFADF9A-1221-4846-BC6F-4F7BEE8BA661";
shapes = (
{
closed = 1;
nodes = (
(197,-67,o),
(490,-67,o),
(510,145,cs),
(611,1461,l),
(461,1461,l),
(367,180,ls),
(366,139,o),
(321,139,o),
(320,180,cs),
(223,1461,l),
(73,1461,l),
(177,145,ls)
);
}
);
width = 684;
}
);
unicode = 86;
},
{
glyphname = W;
kernLeft = "20";
kernRight = "20";
lastChange = "2024-04-18 14:55:36 +0000";
layers = (
{
anchors = (
{
name = top;
pos = (554,1546);
}
);
hints = (
{
name = _corner.serif;
options = 1;
origin = (0,28);
scale = (-1,1);
type = Corner;
},
{
name = _corner.serif;
origin = (0,9);
type = Corner;
}
);
layerId = "9BFADF9A-1221-4846-BC6F-4F7BEE8BA661";
shapes = (
{
closed = 1;
nodes = (
(438,0,o),
(508,35,o),
(556,87,c),
(603,35,o),
(672,0,o),
(751,0,cs),
(899,0,o),
(1020,121,o),
(1020,268,cs),
(1020,1461,l),
(870,1461,l),
(870,268,ls),
(870,204,o),
(816,150,o),
(751,150,cs),
(684,150,o),
(630,204,o),
(630,268,cs),
(630,1461,l),
(480,1461,l),
(480,268,ls),
(480,204,o),
(426,150,o),
(362,150,cs),
(294,150,o),
(240,204,o),
(240,268,cs),
(240,1461,l),
(90,1461,l),
(90,268,ls),
(90,121,o),
(211,0,o),
(362,0,cs)
);
}
);
width = 1110;
}
);
unicode = 87;
},
{
glyphname = X;
kernLeft = "20";
kernRight = "20";
lastChange = "2024-04-18 14:55:36 +0000";
layers = (
{
hints = (
{
name = _corner.serif;
options = 1;
origin = (5,1);
scale = (-1,1);
type = Corner;
},
{
name = _corner.serif;
origin = (4,0);
type = Corner;
}
);
layerId = "9BFADF9A-1221-4846-BC6F-4F7BEE8BA661";
shapes = (
{
closed = 1;
nodes = (
(211,1007,o),
(90,886,o),
(90,738,c),
(240,738,l),
(240,803,o),
(294,857,o),
(362,857,cs),
(426,857,o),
(480,803,o),
(480,738,c),
(630,738,l),
(630,886,o),
(509,1007,o),
(362,1007,cs)
);
},
{
closed = 1;
nodes = (
(90,1125,l),
(240,1125,l),
(240,1461,l),
(90,1461,l)
);
},
{
closed = 1;
nodes = (
(480,1125,l),
(630,1125,l),
(630,1461,l),
(480,1461,l)
);
},
{
closed = 1;
nodes = (
(90,977,o),
(211,857,o),
(362,857,cs),
(509,857,o),
(630,977,o),
(630,1125,c),
(480,1125,l),
(480,1060,o),
(426,1007,o),
(362,1007,cs),
(294,1007,o),
(240,1060,o),
(240,1125,c),
(90,1125,l)
);
},
{
closed = 1;
nodes = (
(90,0,l),
(240,0,l),
(240,738,l),
(90,738,l)
);
},
{
closed = 1;
nodes = (
(480,0,l),
(630,0,l),
(630,738,l),
(480,738,l)
);
}
);
width = 720;
}
);
unicode = 88;
},
{
glyphname = Y;
kernLeft = "20";
kernRight = "20";
lastChange = "2024-04-18 14:55:36 +0000";
layers = (
{
anchors = (
{
name = top;
pos = (359,1546);
}
);
hints = (
{
name = _corner.serif;
options = 1;
origin = (2,2);
scale = (-1,1);
type = Corner;
},
{
name = _corner.serif;
origin = (3,1);
type = Corner;
},
{
name = _corner.serif;
options = 1;
origin = (1,0);
scale = (-1,1);
type = Corner;
},
{
name = _corner.serif;
origin = (1,3);
type = Corner;
}
);
layerId = "9BFADF9A-1221-4846-BC6F-4F7BEE8BA661";
shapes = (
{
closed = 1;
nodes = (
(509,454,o),
(630,575,o),
(630,723,c),
(480,723,l),
(480,658,o),
(426,604,o),
(362,604,cs),
(294,604,o),
(240,658,o),
(240,723,c),
(90,723,l),
(90,575,o),
(211,454,o),
(362,454,cs)
);
},
{
closed = 1;
nodes = (
(435,0,l),
(435,536,l),
(285,536,l),
(285,0,l)
);
},
{
closed = 1;
nodes = (
(240,723,l),
(240,1461,l),
(90,1461,l),
(90,723,l)
);
},
{
closed = 1;
nodes = (
(630,723,l),
(630,1461,l),
(480,1461,l),
(480,723,l)
);
}
);
width = 720;
}
);
unicode = 89;
},
{
glyphname = Z;
kernLeft = "20";
kernRight = "20";
lastChange = "2024-04-18 14:55:36 +0000";
layers = (
{
anchors = (
{
name = top;
pos = (313,1546);
}
);
hints = (
{
name = _corner.serif;
options = 1;
origin = (0,7);
scale = (-1,1);
type = Corner;
}
);
layerId = "9BFADF9A-1221-4846-BC6F-4F7BEE8BA661";
shapes = (
{
closed = 1;
nodes = (
(580,0,l),
(580,150,l),
(190,150,l),
(190,229,l),
(580,1177,l),
(580,1461,l),
(40,1461,l),
(40,1311,l),
(430,1311,l),
(430,1232,l),
(40,284,l),
(40,0,l)
);
}
);
width = 620;
}
);
unicode = 90;
},
{
glyphname = a;
kernLeft = "20";
kernRight = "20";
lastChange = "2024-04-18 14:55:36 +0000";
layers = (
{
anchors = (
{
name = top;
pos = (285,1068);
}
);
hints = (
{
name = _corner.serif;
options = 1;
origin = (3,0);
scale = (-1,1);
type = Corner;
}
);
layerId = "9BFADF9A-1221-4846-BC6F-4F7BEE8BA661";
shapes = (
{
closed = 1;
nodes = (
(190,739,l),
(190,790,o),
(234,834,o),
(285,834,cs),
(336,834,o),
(380,790,o),
(380,739,c),
(530,739,l),
(530,874,o),
(420,984,o),
(285,984,cs),
(150,984,o),
(40,874,o),
(40,739,c)
);
},
{
closed = 1;
nodes = (
(285,150,l),
(234,150,o),
(190,193,o),
(190,244,c),
(40,244,l),
(40,109,o),
(150,0,o),
(285,0,c)
);
},
{
closed = 1;
nodes = (
(190,244,l),
(190,739,l),
(40,739,l),
(40,244,l)
);
},
{
closed = 1;
nodes = (
(530,0,l),
(530,739,l),
(380,739,l),
(380,0,l)
);
}
);
width = 620;
}
);
unicode = 97;
},
{
glyphname = ae;
kernLeft = "20";
kernRight = "20";
lastChange = "2024-04-18 14:55:36 +0000";
layers = (
{
layerId = "9BFADF9A-1221-4846-BC6F-4F7BEE8BA661";
shapes = (
{
closed = 1;
nodes = (
(285,150,l),
(234,150,o),
(190,193,o),
(190,244,cs),
(190,739,ls),
(190,790,o),
(234,834,o),
(285,834,cs),
(336,834,o),
(380,790,o),
(380,739,cs),
(380,0,l),
(530,0,l),
(530,31,l),
(556,11,o),
(589,0,o),
(625,0,c),
(625,150,l),
(573,150,o),
(530,193,o),
(530,244,cs),
(530,739,ls),
(530,790,o),
(573,834,o),
(625,834,cs),
(675,834,o),
(719,790,o),
(719,739,c),
(629,739,l),
(629,589,l),
(869,589,l),
(869,739,ls),
(869,874,o),
(760,984,o),
(625,984,cs),
(558,984,o),
(497,954,o),
(456,909,c),
(413,954,o),
(352,984,o),
(285,984,cs),
(150,984,o),
(40,874,o),
(40,739,cs),
(40,244,ls),
(40,109,o),
(150,0,o),
(285,0,c)
);
}
);
width = 909;
}
);
unicode = 230;
},
{
glyphname = b;
kernLeft = "20";
kernRight = "20";
lastChange = "2024-04-18 14:55:36 +0000";
layers = (
{
hints = (
{
name = _corner.serif;
options = 1;
origin = (0,2);
scale = (-1,1);
type = Corner;
}
);
layerId = "9BFADF9A-1221-4846-BC6F-4F7BEE8BA661";
shapes = (
{
closed = 1;
nodes = (
(240,244,l),
(240,1461,l),
(90,1461,l),
(90,244,l)
);
},
{
closed = 1;
nodes = (
(470,0,o),
(580,109,o),
(580,244,c),
(430,244,l),
(430,193,o),
(386,150,o),
(334,150,cs),
(284,150,o),
(240,193,o),
(240,244,c),
(90,244,l),
(90,109,o),
(200,0,o),
(334,0,cs)
);
},
{
closed = 1;
nodes = (
(580,244,l),
(580,739,l),
(430,739,l),
(430,244,l)
);
},
{
closed = 1;
nodes = (
(580,739,l),
(580,874,o),
(470,984,o),
(334,984,c),
(334,834,l),
(386,834,o),
(430,790,o),
(430,739,c)
);
}
);
width = 620;
}
);
unicode = 98;
userData = {
KernOnName = b;
};
},
{
glyphname = c;
kernLeft = "20";
kernRight = "20";
lastChange = "2024-04-18 14:55:36 +0000";
layers = (
{
anchors = (
{
name = bottom;
pos = (359,51);
}
);
layerId = "9BFADF9A-1221-4846-BC6F-4F7BEE8BA661";
shapes = (
{
closed = 1;
nodes = (
(190,739,l),
(190,790,o),
(234,834,o),
(285,834,cs),
(336,834,o),
(380,790,o),
(380,739,c),
(530,739,l),
(530,874,o),
(420,984,o),
(285,984,cs),
(150,984,o),
(40,874,o),
(40,739,c)
);
},
{
closed = 1;
nodes = (
(420,0,o),
(530,109,o),
(530,244,c),
(380,244,l),
(380,193,o),
(336,150,o),
(285,150,cs),
(234,150,o),
(190,193,o),
(190,244,c),
(40,244,l),
(40,109,o),
(150,0,o),
(285,0,cs)
);
},
{
closed = 1;
nodes = (
(190,244,l),
(190,739,l),
(40,739,l),
(40,244,l)
);
}
);
width = 570;
}
);
unicode = 99;
},
{
glyphname = d;
kernLeft = "20";
kernRight = "20";
lastChange = "2024-04-18 14:55:36 +0000";
layers = (
{
hints = (
{
name = _corner.serif;
origin = (0,1);
type = Corner;
}
);
layerId = "9BFADF9A-1221-4846-BC6F-4F7BEE8BA661";
shapes = (
{
closed = 1;
nodes = (
(530,244,l),
(530,1461,l),
(380,1461,l),
(380,244,l)
);
},
{
closed = 1;
nodes = (
(420,0,o),
(530,109,o),
(530,244,c),
(380,244,l),
(380,193,o),
(336,150,o),
(285,150,cs),
(234,150,o),
(190,193,o),
(190,244,c),
(40,244,l),
(40,109,o),
(150,0,o),
(285,0,cs)
);
},
{
closed = 1;
nodes = (
(190,244,l),
(190,739,l),
(40,739,l),
(40,244,l)
);
},
{
closed = 1;
nodes = (
(190,739,l),
(190,790,o),
(234,834,o),
(285,834,c),
(285,984,l),
(150,984,o),
(40,874,o),
(40,739,c)
);
}
);
width = 620;
}
);
unicode = 100;
},
{
glyphname = eth;
lastChange = "2024-04-18 14:55:36 +0000";
layers = (
{
layerId = "9BFADF9A-1221-4846-BC6F-4F7BEE8BA661";
shapes = (
{
closed = 1;
nodes = (
(530,244,l),
(530,1461,l),
(380,1461,l),
(380,244,l)
);
},
{
closed = 1;
nodes = (
(420,0,o),
(530,109,o),
(530,244,c),
(380,244,l),
(380,193,o),
(336,150,o),
(285,150,cs),
(234,150,o),
(190,193,o),
(190,244,c),
(40,244,l),
(40,109,o),
(150,0,o),
(285,0,cs)
);
},
{
closed = 1;
nodes = (
(190,244,l),
(190,739,l),
(40,739,l),
(40,244,l)
);
},
{
closed = 1;
nodes = (
(190,739,l),
(190,790,o),
(234,834,o),
(285,834,c),
(285,984,l),
(150,984,o),
(40,874,o),
(40,739,c)
);
},
{
closed = 1;
nodes = (
(658,1042,l),
(658,1191,l),
(381,1191,l),
(381,1042,l)
);
}
);
width = 698;
}
);
unicode = 240;
},
{
glyphname = e;
kernLeft = "20";
kernRight = "20";
lastChange = "2024-04-18 14:55:36 +0000";
layers = (
{
anchors = (
{
name = top;
pos = (285,1068);
}
);
layerId = "9BFADF9A-1221-4846-BC6F-4F7BEE8BA661";
shapes = (
{
closed = 1;
nodes = (
(190,739,l),
(190,790,o),
(234,834,o),
(285,834,cs),
(336,834,o),
(380,790,o),
(380,739,c),
(530,739,l),
(530,874,o),
(420,984,o),
(285,984,cs),
(150,984,o),
(40,874,o),
(40,739,c)
);
},
{
closed = 1;
nodes = (
(285,150,l),
(234,150,o),
(190,193,o),
(190,244,c),
(40,244,l),
(40,109,o),
(150,0,o),
(285,0,c)
);
},
{
closed = 1;
nodes = (
(190,244,l),
(190,739,l),
(40,739,l),
(40,244,l)
);
},
{
closed = 1;
nodes = (
(530,589,l),
(530,739,l),
(290,739,l),
(290,589,l)
);
}
);
width = 570;
}
);
unicode = 101;
userData = {
KernOnName = e;
};
},
{
glyphname = f;
kernLeft = "20";
kernRight = "20";
lastChange = "2024-04-18 14:55:36 +0000";
layers = (
{
hints = (
{
name = _corner.serif;
origin = (0,3);
type = Corner;
}
);
layerId = "9BFADF9A-1221-4846-BC6F-4F7BEE8BA661";
shapes = (
{
closed = 1;
nodes = (
(240,0,l),
(240,1217,l),
(90,1217,l),
(90,0,l)
);
},
{
closed = 1;
nodes = (
(336,420,l),
(336,570,l),
(100,570,l),
(100,420,l)
);
},
{
closed = 1;
nodes = (
(240,1217,l),
(240,1268,o),
(284,1311,o),
(336,1311,c),
(336,1461,l),
(200,1461,o),
(90,1352,o),
(90,1217,c)
);
}
);
width = 376;
}
);
unicode = 102;
},
{
glyphname = g;
kernLeft = "0";
kernRight = "0";
lastChange = "2024-04-18 14:55:36 +0000";
layers = (
{
layerId = "9BFADF9A-1221-4846-BC6F-4F7BEE8BA661";
shapes = (
{
closed = 1;
nodes = (
(420,-480,o),
(530,-371,o),
(530,-236,cs),
(530,244,l),
(380,244,l),
(380,193,o),
(336,150,o),
(285,150,cs),
(234,150,o),
(190,193,o),
(190,244,cs),
(190,739,ls),
(190,790,o),
(234,834,o),
(285,834,c),
(285,984,l),
(150,984,o),
(40,874,o),
(40,739,cs),
(40,244,ls),
(40,109,o),
(150,0,o),
(285,0,cs),
(321,0,o),
(353,11,o),
(380,31,c),
(380,-236,ls),
(380,-287,o),
(336,-330,o),
(284,-330,c),
(284,-480,l)
);
}
);
width = 570;
}
);
unicode = 103;
},
{
glyphname = h;
kernLeft = "20";
kernRight = "20";
lastChange = "2024-04-18 14:55:36 +0000";
layers = (
{
hints = (
{
name = _corner.serif;
origin = (0,19);
type = Corner;
},
{
name = _corner.serif;
options = 1;
origin = (0,9);
scale = (-1,1);
type = Corner;
},
{
name = _corner.serif;
options = 1;
origin = (0,18);
scale = (-1,1);
type = Corner;
}
);
layerId = "9BFADF9A-1221-4846-BC6F-4F7BEE8BA661";
shapes = (
{
closed = 1;
nodes = (
(240,0,l),
(240,739,ls),
(240,790,o),
(284,834,o),
(336,834,cs),
(386,834,o),
(430,790,o),
(430,739,cs),
(430,0,l),
(580,0,l),
(580,739,ls),
(580,874,o),
(470,984,o),
(336,984,cs),
(299,984,o),
(267,973,o),
(240,953,c),
(240,1461,l),
(90,1461,l),
(90,0,l)
);
}
);
width = 670;
}
);
unicode = 104;
},
{
glyphname = i;
kernLeft = "20";
kernRight = "20";
lastChange = "2024-04-18 14:55:36 +0000";
layers = (
{
hints = (
{
name = _corner.serif;
options = 1;
origin = (0,2);
scale = (-1,1);
type = Corner;
},
{
name = _corner.serif;
options = 2;
origin = (0,3);
type = Corner;
}
);
layerId = "9BFADF9A-1221-4846-BC6F-4F7BEE8BA661";
shapes = (
{
closed = 1;
nodes = (
(240,0,l),
(240,984,l),
(90,984,l),
(90,0,l)
);
},
{
closed = 1;
nodes = (
(205,1252,o),
(240,1283,o),
(240,1325,cs),
(240,1368,o),
(205,1402,o),
(163,1402,cs),
(122,1402,o),
(90,1368,o),
(90,1325,cs),
(90,1283,o),
(122,1252,o),
(163,1252,c)
);
}
);
width = 281;
}
);
unicode = 105;
userData = {
KernOnName = i;
};
},
{
glyphname = idotless;
kernLeft = "20";
kernRight = "20";
lastChange = "2024-04-18 14:55:36 +0000";
layers = (
{
anchors = (
{
name = top;
pos = (165,1068);
}
);
hints = (
{
name = _corner.serif;
options = 1;
origin = (0,2);
scale = (-1,1);
type = Corner;
},
{
name = _corner.serif;
options = 2;
origin = (0,3);
type = Corner;
}
);
layerId = "9BFADF9A-1221-4846-BC6F-4F7BEE8BA661";
shapes = (
{
closed = 1;
nodes = (
(240,0,l),
(240,984,l),
(90,984,l),
(90,0,l)
);
}
);
width = 281;
}
);
unicode = 305;
},
{
glyphname = ij;
lastChange = "2024-04-18 14:55:36 +0000";
layers = (
{
hints = (
{
name = _corner.serif;
options = 1;
origin = (2,2);
scale = (-1,1);
type = Corner;
},
{
name = _corner.serif;
options = 2;
origin = (2,3);
type = Corner;
},
{
name = _corner.serif;
origin = (0,1);
type = Corner;
}
);
layerId = "9BFADF9A-1221-4846-BC6F-4F7BEE8BA661";
shapes = (
{
closed = 1;
nodes = (
(486,-236,l),
(486,984,l),
(336,984,l),
(336,-236,l)
);
},
{
closed = 1;
nodes = (
(377,-480,o),
(486,-371,o),
(486,-236,c),
(336,-236,l),
(336,-287,o),
(292,-330,o),
(240,-330,c),
(240,-480,l)
);
},
{
closed = 1;
nodes = (
(240,0,l),
(240,984,l),
(90,984,l),
(90,0,l)
);
},
{
closed = 1;
nodes = (
(205,1252,o),
(240,1283,o),
(240,1325,cs),
(240,1368,o),
(205,1402,o),
(163,1402,cs),
(122,1402,o),
(90,1368,o),
(90,1325,cs),
(90,1283,o),
(122,1252,o),
(163,1252,c)
);
},
{
closed = 1;
nodes = (
(452,1253,o),
(486,1286,o),
(486,1327,cs),
(486,1371,o),
(452,1403,o),
(410,1403,cs),
(369,1403,o),
(336,1371,o),
(336,1327,cs),
(336,1286,o),
(369,1253,o),
(410,1253,c)
);
}
);
width = 576;
}
);
unicode = 307;
},
{
glyphname = j;
kernRight = "20";
lastChange = "2024-04-18 14:55:36 +0000";
layers = (
{
anchors = (
{
name = top;
pos = (266,1605);
}
);
hints = (
{
name = _corner.serif;
origin = (0,1);
type = Corner;
}
);
layerId = "9BFADF9A-1221-4846-BC6F-4F7BEE8BA661";
shapes = (
{
closed = 1;
nodes = (
(285,-236,l),
(285,984,l),
(136,984,l),
(136,-236,l)
);
},
{
closed = 1;
nodes = (
(176,-480,o),
(285,-371,o),
(285,-236,c),
(136,-236,l),
(136,-287,o),
(92,-330,o),
(40,-330,c),
(40,-480,l)
);
},
{
closed = 1;
nodes = (
(252,1253,o),
(285,1286,o),
(285,1327,cs),
(285,1371,o),
(252,1403,o),
(210,1403,cs),
(169,1403,o),
(136,1371,o),
(136,1327,cs),
(136,1286,o),
(169,1253,o),
(210,1253,c)
);
}
);
width = 376;
}
);
unicode = 106;
userData = {
KernOnName = j;
};
},
{
glyphname = jdotless;
lastChange = "2024-04-18 14:55:36 +0000";
layers = (
{
hints = (
{
name = _corner.serif;
origin = (0,1);
type = Corner;
}
);
layerId = "9BFADF9A-1221-4846-BC6F-4F7BEE8BA661";
shapes = (
{
closed = 1;
nodes = (
(285,-236,l),
(285,984,l),
(136,984,l),
(136,-236,l)
);
},
{
closed = 1;
nodes = (
(176,-480,o),
(285,-371,o),
(285,-236,c),
(136,-236,l),
(136,-287,o),
(92,-330,o),
(40,-330,c),
(40,-480,l)
);
}
);
width = 376;
}
);
unicode = 567;
},
{
glyphname = k;
kernLeft = "20";
kernRight = "20";
lastChange = "2024-04-18 14:55:36 +0000";
layers = (
{
hints = (
{
name = _corner.serif;
options = 1;
origin = (0,25);
scale = (-1,1);
type = Corner;
},
{
name = _corner.serif;
options = 2;
origin = (0,26);
type = Corner;
}
);
layerId = "9BFADF9A-1221-4846-BC6F-4F7BEE8BA661";
shapes = (
{
closed = 1;
nodes = (
(240,0,l),
(240,126,l),
(267,106,o),
(299,95,o),
(336,95,cs),
(386,95,o),
(430,52,o),
(430,0,c),
(580,0,l),
(580,67,o),
(551,128,o),
(505,171,c),
(551,212,o),
(580,273,o),
(580,340,cs),
(580,984,l),
(430,984,l),
(430,340,ls),
(430,289,o),
(386,245,o),
(336,245,cs),
(284,245,o),
(240,289,o),
(240,340,cs),
(240,1461,l),
(90,1461,l),
(90,0,l)
);
}
);
width = 620;
}
);
unicode = 107;
userData = {
KernOnName = k;
};
},
{
glyphname = l;
kernLeft = "20";
kernRight = "20";
lastChange = "2024-04-18 14:55:36 +0000";
layers = (
{
hints = (
{
name = _corner.serif;
options = 1;
origin = (0,2);
scale = (-1,1);
type = Corner;
},
{
name = _corner.serif;
options = 2;
origin = (0,3);
type = Corner;
}
);
layerId = "9BFADF9A-1221-4846-BC6F-4F7BEE8BA661";
shapes = (
{
closed = 1;
nodes = (
(242,0,l),
(242,1461,l),
(90,1461,l),
(90,0,l)
);
}
);
width = 282;
}
);
unicode = 108;
userData = {
KernOnName = l;
};
},
{
glyphname = m;
kernLeft = "20";
kernRight = "20";
lastChange = "2024-04-18 14:55:36 +0000";
layers = (
{
hints = (
{
name = _corner.serif;
origin = (0,32);
type = Corner;
},
{
name = _corner.serif;
options = 1;
origin = (0,18);
scale = (-1,1);
type = Corner;
}
);
layerId = "9BFADF9A-1221-4846-BC6F-4F7BEE8BA661";
shapes = (
{
closed = 1;
nodes = (
(240,0,l),
(240,739,ls),
(240,790,o),
(284,834,o),
(336,834,cs),
(386,834,o),
(430,790,o),
(430,739,cs),
(430,0,l),
(580,0,l),
(580,739,ls),
(580,790,o),
(623,834,o),
(675,834,cs),
(726,834,o),
(769,790,o),
(769,739,cs),
(769,0,l),
(919,0,l),
(919,739,ls),
(919,874,o),
(810,984,o),
(675,984,cs),
(608,984,o),
(547,954,o),
(506,909,c),
(463,954,o),
(403,984,o),
(336,984,cs),
(200,984,o),
(90,874,o),
(90,739,cs),
(90,0,l)
);
}
);
width = 1010;
}
);
unicode = 109;
},
{
glyphname = n;
kernLeft = "20";
kernRight = "20";
lastChange = "2024-04-18 14:55:36 +0000";
layers = (
{
anchors = (
{
name = top;
pos = (336,1068);
}
);
hints = (
{
name = _corner.serif;
origin = (1,3);
type = Corner;
},
{
name = _corner.serif;
options = 1;
origin = (2,0);
scale = (-1,1);
type = Corner;
}
);
layerId = "9BFADF9A-1221-4846-BC6F-4F7BEE8BA661";
shapes = (
{
closed = 1;
nodes = (
(240,739,l),
(240,790,o),
(284,834,o),
(336,834,cs),
(386,834,o),
(430,790,o),
(430,739,c),
(580,739,l),
(580,874,o),
(470,984,o),
(336,984,cs),
(200,984,o),
(90,874,o),
(90,739,c)
);
},
{
closed = 1;
nodes = (
(240,0,l),
(240,739,l),
(90,739,l),
(90,0,l)
);
},
{
closed = 1;
nodes = (
(580,0,l),
(580,739,l),
(430,739,l),
(430,0,l)
);
}
);
width = 670;
}
);
unicode = 110;
userData = {
KernOnName = n;
};
},
{
glyphname = o;
kernLeft = "20";
kernRight = "20";
lastChange = "2024-04-18 14:55:36 +0000";
layers = (
{
anchors = (
{
name = top;
pos = (285,1068);
}
);
layerId = "9BFADF9A-1221-4846-BC6F-4F7BEE8BA661";
shapes = (
{
closed = 1;
nodes = (
(190,739,l),
(190,790,o),
(234,834,o),
(285,834,cs),
(336,834,o),
(380,790,o),
(380,739,c),
(530,739,l),
(530,874,o),
(420,984,o),
(285,984,cs),
(150,984,o),
(40,874,o),
(40,739,c)
);
},
{
closed = 1;
nodes = (
(420,0,o),
(530,109,o),
(530,244,c),
(380,244,l),
(380,193,o),
(336,150,o),
(285,150,cs),
(234,150,o),
(190,193,o),
(190,244,c),
(40,244,l),
(40,109,o),
(150,0,o),
(285,0,cs)
);
},
{
closed = 1;
nodes = (
(190,244,l),
(190,739,l),
(40,739,l),
(40,244,l)
);
},
{
closed = 1;
nodes = (
(530,244,l),
(530,739,l),
(380,739,l),
(380,244,l)
);
}
);
width = 570;
}
);
unicode = 111;
userData = {
KernOnName = o;
};
},
{
glyphname = oslash;
kernLeft = "20";
kernRight = "20";
lastChange = "2024-04-18 14:55:36 +0000";
layers = (
{
anchors = (
{
name = top;
pos = (490,565);
}
);
layerId = "9BFADF9A-1221-4846-BC6F-4F7BEE8BA661";
shapes = (
{
closed = 1;
nodes = (
(190,739,l),
(190,790,o),
(234,834,o),
(285,834,cs),
(336,834,o),
(380,790,o),
(380,739,c),
(530,739,l),
(530,874,o),
(420,984,o),
(285,984,cs),
(150,984,o),
(40,874,o),
(40,739,c)
);
},
{
closed = 1;
nodes = (
(199,0,l),
(256,115,l),
(126,178,l),
(40,0,l)
);
},
{
closed = 1;
nodes = (
(420,0,o),
(530,109,o),
(530,244,c),
(380,244,l),
(380,193,o),
(336,150,o),
(285,150,cs),
(234,150,o),
(190,193,o),
(190,244,c),
(40,244,l),
(40,109,o),
(150,0,o),
(285,0,cs)
);
},
{
closed = 1;
nodes = (
(190,244,l),
(190,739,l),
(40,739,l),
(40,244,l)
);
},
{
closed = 1;
nodes = (
(530,244,l),
(530,739,l),
(380,739,l),
(380,244,l)
);
},
{
closed = 1;
nodes = (
(530,984,l),
(371,984,l),
(329,900,l),
(453,824,l)
);
}
);
width = 570;
}
);
unicode = 248;
},
{
glyphname = oe;
kernLeft = "20";
kernRight = "20";
lastChange = "2024-04-18 14:55:36 +0000";
layers = (
{
layerId = "9BFADF9A-1221-4846-BC6F-4F7BEE8BA661";
shapes = (
{
closed = 1;
nodes = (
(352,0,o),
(413,29,o),
(456,75,c),
(497,29,o),
(558,0,o),
(625,0,c),
(625,150,l),
(573,150,o),
(530,193,o),
(530,244,cs),
(530,739,ls),
(530,790,o),
(573,834,o),
(625,834,cs),
(675,834,o),
(719,790,o),
(719,739,c),
(629,739,l),
(629,589,l),
(869,589,l),
(869,739,ls),
(869,874,o),
(760,984,o),
(625,984,cs),
(558,984,o),
(497,954,o),
(456,909,c),
(413,954,o),
(352,984,o),
(285,984,cs),
(150,984,o),
(40,874,o),
(40,739,cs),
(40,244,ls),
(40,109,o),
(150,0,o),
(285,0,cs)
);
},
{
closed = 1;
nodes = (
(234,150,o),
(190,193,o),
(190,244,cs),
(190,739,ls),
(190,790,o),
(234,834,o),
(285,834,cs),
(336,834,o),
(380,790,o),
(380,739,cs),
(380,244,ls),
(380,193,o),
(336,150,o),
(285,150,cs)
);
}
);
width = 909;
}
);
unicode = 339;
},
{
glyphname = p;
kernLeft = "20";
kernRight = "20";
lastChange = "2024-04-18 14:55:36 +0000";
layers = (
{
hints = (
{
name = _corner.serif;
origin = (0,3);
type = Corner;
}
);
layerId = "9BFADF9A-1221-4846-BC6F-4F7BEE8BA661";
shapes = (
{
closed = 1;
nodes = (
(240,-478,l),
(240,739,l),
(90,739,l),
(90,-478,l)
);
},
{
closed = 1;
nodes = (
(470,0,o),
(580,109,o),
(580,244,c),
(430,244,l),
(430,193,o),
(386,150,o),
(334,150,c),
(334,0,l)
);
},
{
closed = 1;
nodes = (
(580,244,l),
(580,739,l),
(430,739,l),
(430,244,l)
);
},
{
closed = 1;
nodes = (
(240,739,l),
(240,790,o),
(284,834,o),
(334,834,cs),
(386,834,o),
(430,790,o),
(430,739,c),
(580,739,l),
(580,874,o),
(470,984,o),
(334,984,cs),
(200,984,o),
(90,874,o),
(90,739,c)
);
}
);
width = 620;
}
);
unicode = 112;
userData = {
KernOnName = p;
};
},
{
glyphname = thorn;
lastChange = "2024-04-18 14:55:36 +0000";
layers = (
{
layerId = "9BFADF9A-1221-4846-BC6F-4F7BEE8BA661";
shapes = (
{
closed = 1;
nodes = (
(190,-478,l),
(190,1461,l),
(40,1461,l),
(40,-478,l)
);
},
{
closed = 1;
nodes = (
(420,0,o),
(530,109,o),
(530,244,c),
(380,244,l),
(380,193,o),
(336,150,o),
(284,150,c),
(284,0,l)
);
},
{
closed = 1;
nodes = (
(530,244,l),
(530,739,l),
(380,739,l),
(380,244,l)
);
},
{
closed = 1;
nodes = (
(190,739,l),
(190,790,o),
(234,834,o),
(284,834,cs),
(336,834,o),
(380,790,o),
(380,739,c),
(530,739,l),
(530,874,o),
(420,984,o),
(284,984,cs),
(150,984,o),
(40,874,o),
(40,739,c)
);
}
);
width = 570;
}
);
unicode = 254;
},
{
glyphname = q;
kernLeft = "20";
kernRight = "20";
lastChange = "2024-04-18 14:55:36 +0000";
layers = (
{
layerId = "9BFADF9A-1221-4846-BC6F-4F7BEE8BA661";
shapes = (
{
closed = 1;
nodes = (
(530,-94,l),
(530,-27,o),
(500,33,o),
(455,76,c),
(500,117,o),
(530,177,o),
(530,244,cs),
(530,739,ls),
(530,874,o),
(420,984,o),
(285,984,cs),
(150,984,o),
(40,874,o),
(40,739,cs),
(40,244,ls),
(40,109,o),
(150,0,o),
(285,0,cs),
(336,0,o),
(380,-43,o),
(380,-94,c)
);
},
{
closed = 1;
nodes = (
(234,150,o),
(190,193,o),
(190,244,cs),
(190,739,ls),
(190,790,o),
(234,834,o),
(285,834,cs),
(336,834,o),
(380,790,o),
(380,739,cs),
(380,244,ls),
(380,193,o),
(336,150,o),
(285,150,cs)
);
}
);
width = 570;
}
);
unicode = 113;
},
{
glyphname = r;
kernLeft = "20";
kernRight = "20";
lastChange = "2024-04-18 14:55:36 +0000";
layers = (
{
hints = (
{
name = _corner.serif;
origin = (0,3);
type = Corner;
}
);
layerId = "9BFADF9A-1221-4846-BC6F-4F7BEE8BA661";
shapes = (
{
closed = 1;
nodes = (
(240,0,l),
(240,739,l),
(90,739,l),
(90,0,l)
);
},
{
closed = 1;
nodes = (
(240,739,l),
(240,790,o),
(284,834,o),
(336,834,c),
(336,984,l),
(200,984,o),
(90,874,o),
(90,739,c)
);
}
);
width = 376;
}
);
unicode = 114;
userData = {
KernOnName = r;
};
},
{
glyphname = s;
kernLeft = "20";
kernRight = "20";
lastChange = "2024-04-18 14:55:36 +0000";
layers = (
{
anchors = (
{
name = top;
pos = (285,1068);
}
);
layerId = "9BFADF9A-1221-4846-BC6F-4F7BEE8BA661";
shapes = (
{
closed = 1;
nodes = (
(420,0,o),
(530,109,o),
(530,244,cs),
(530,566,l),
(190,566,l),
(190,739,ls),
(190,790,o),
(234,834,o),
(285,834,cs),
(311,834,o),
(334,824,o),
(351,805,c),
(458,912,l),
(415,955,o),
(353,984,o),
(285,984,cs),
(150,984,o),
(40,874,o),
(40,739,cs),
(40,416,l),
(380,416,l),
(380,244,ls),
(380,193,o),
(336,150,o),
(284,150,cs),
(259,150,o),
(235,161,o),
(218,178,c),
(111,72,l),
(155,28,o),
(216,0,o),
(284,0,cs)
);
}
);
width = 570;
}
);
unicode = 115;
},
{
glyphname = germandbls;
kernLeft = "20";
kernRight = "20";
lastChange = "2024-04-18 14:55:36 +0000";
layers = (
{
layerId = "9BFADF9A-1221-4846-BC6F-4F7BEE8BA661";
shapes = (
{
closed = 1;
nodes = (
(190,0,l),
(190,1217,l),
(40,1217,l),
(40,0,l)
);
},
{
closed = 1;
nodes = (
(530,0,l),
(530,425,l),
(380,425,l),
(380,0,l)
);
},
{
closed = 1;
nodes = (
(530,425,l),
(530,560,o),
(420,669,o),
(285,669,c),
(285,519,l),
(336,519,o),
(380,475,o),
(380,425,c)
);
},
{
closed = 1;
nodes = (
(420,519,o),
(530,628,o),
(530,763,c),
(380,763,l),
(380,713,o),
(336,669,o),
(285,669,c),
(285,519,l)
);
},
{
closed = 1;
nodes = (
(530,763,l),
(530,1217,l),
(380,1217,l),
(380,763,l)
);
},
{
closed = 1;
nodes = (
(190,1217,l),
(190,1268,o),
(234,1311,o),
(285,1311,cs),
(336,1311,o),
(380,1268,o),
(380,1217,c),
(530,1217,l),
(530,1352,o),
(420,1461,o),
(285,1461,cs),
(150,1461,o),
(40,1352,o),
(40,1217,c)
);
}
);
width = 570;
}
);
unicode = 223;
},
{
glyphname = t;
kernLeft = "20";
kernRight = "20";
lastChange = "2024-04-18 14:55:36 +0000";
layers = (
{
hints = (
{
name = _corner.serif;
options = 1;
origin = (0,2);
scale = (-1,1);
type = Corner;
}
);
layerId = "9BFADF9A-1221-4846-BC6F-4F7BEE8BA661";
shapes = (
{
closed = 1;
nodes = (
(240,244,l),
(240,1461,l),
(90,1461,l),
(90,244,l)
);
},
{
closed = 1;
nodes = (
(336,150,l),
(284,150,o),
(240,193,o),
(240,244,c),
(90,244,l),
(90,109,o),
(200,0,o),
(336,0,c)
);
},
{
closed = 1;
nodes = (
(336,834,l),
(336,984,l),
(100,984,l),
(100,834,l)
);
}
);
width = 376;
}
);
unicode = 116;
},
{
glyphname = u;
kernLeft = "20";
kernRight = "20";
lastChange = "2024-04-18 14:55:36 +0000";
layers = (
{
anchors = (
{
name = top;
pos = (336,1068);
}
);
hints = (
{
name = _corner.serif;
options = 1;
origin = (1,2);
scale = (-1,1);
type = Corner;
},
{
name = _corner.serif;
origin = (2,1);
type = Corner;
}
);
layerId = "9BFADF9A-1221-4846-BC6F-4F7BEE8BA661";
shapes = (
{
closed = 1;
nodes = (
(470,0,o),
(580,109,o),
(580,244,c),
(430,244,l),
(430,193,o),
(386,150,o),
(336,150,cs),
(284,150,o),
(240,193,o),
(240,244,c),
(90,244,l),
(90,109,o),
(200,0,o),
(336,0,cs)
);
},
{
closed = 1;
nodes = (
(240,244,l),
(240,984,l),
(90,984,l),
(90,244,l)
);
},
{
closed = 1;
nodes = (
(580,244,l),
(580,984,l),
(430,984,l),
(430,244,l)
);
}
);
width = 670;
}
);
unicode = 117;
},
{
glyphname = v;
kernLeft = "20";
kernRight = "20";
lastChange = "2024-04-18 14:55:36 +0000";
layers = (
{
hints = (
{
name = _corner.serif;
options = 1;
origin = (0,1);
scale = (-1,1);
type = Corner;
},
{
name = _corner.serif;
origin = (0,6);
type = Corner;
}
);
layerId = "9BFADF9A-1221-4846-BC6F-4F7BEE8BA661";
shapes = (
{
closed = 1;
nodes = (
(221,984,l),
(71,984,l),
(143,160,ls),
(165,-54,o),
(468,-54,o),
(490,160,cs),
(561,984,l),
(411,984,l),
(351,185,ls),
(349,136,o),
(286,136,o),
(282,185,cs)
);
}
);
width = 632;
}
);
unicode = 118;
},
{
glyphname = w;
kernLeft = "20";
kernRight = "20";
lastChange = "2024-04-18 14:55:36 +0000";
layers = (
{
anchors = (
{
name = top;
pos = (504,1068);
}
);
hints = (
{
name = _corner.serif;
options = 1;
origin = (2,2);
scale = (-1,1);
type = Corner;
},
{
name = _corner.serif;
origin = (4,1);
type = Corner;
}
);
layerId = "9BFADF9A-1221-4846-BC6F-4F7BEE8BA661";
shapes = (
{
closed = 1;
nodes = (
(810,0,o),
(919,109,o),
(919,244,c),
(769,244,l),
(769,193,o),
(726,150,o),
(675,150,cs),
(623,150,o),
(580,193,o),
(580,244,c),
(430,244,l),
(430,109,o),
(539,0,o),
(675,0,cs)
);
},
{
closed = 1;
nodes = (
(470,0,o),
(580,109,o),
(580,244,c),
(430,244,l),
(430,193,o),
(386,150,o),
(336,150,cs),
(284,150,o),
(240,193,o),
(240,244,c),
(90,244,l),
(90,109,o),
(200,0,o),
(336,0,cs)
);
},
{
closed = 1;
nodes = (
(240,244,l),
(240,984,l),
(90,984,l),
(90,244,l)
);
},
{
closed = 1;
nodes = (
(580,244,l),
(580,984,l),
(430,984,l),
(430,244,l)
);
},
{
closed = 1;
nodes = (
(919,244,l),
(919,984,l),
(769,984,l),
(769,244,l)
);
}
);
width = 1010;
}
);
unicode = 119;
},
{
glyphname = x;
kernLeft = "20";
kernRight = "20";
lastChange = "2024-04-18 14:55:36 +0000";
layers = (
{
hints = (
{
name = _corner.serif;
options = 1;
origin = (2,2);
scale = (-1,1);
type = Corner;
},
{
name = _corner.serif;
origin = (3,1);
type = Corner;
}
);
layerId = "9BFADF9A-1221-4846-BC6F-4F7BEE8BA661";
shapes = (
{
closed = 1;
nodes = (
(470,94,o),
(580,203,o),
(580,338,c),
(430,338,l),
(430,288,o),
(386,244,o),
(336,244,cs),
(284,244,o),
(240,288,o),
(240,338,c),
(90,338,l),
(90,203,o),
(200,94,o),
(336,94,cs)
);
},
{
closed = 1;
nodes = (
(240,0,l),
(240,50,o),
(284,94,o),
(336,94,cs),
(386,94,o),
(430,50,o),
(430,0,c),
(580,0,l),
(580,135,o),
(470,244,o),
(336,244,cs),
(200,244,o),
(90,135,o),
(90,0,c)
);
},
{
closed = 1;
nodes = (
(240,338,l),
(240,984,l),
(90,984,l),
(90,338,l)
);
},
{
closed = 1;
nodes = (
(580,338,l),
(580,984,l),
(430,984,l),
(430,338,l)
);
}
);
width = 670;
}
);
unicode = 120;
},
{
glyphname = y;
kernLeft = "20";
kernRight = "20";
lastChange = "2024-04-18 14:55:36 +0000";
layers = (
{
anchors = (
{
name = top;
pos = (336,1068);
}
);
hints = (
{
name = _corner.serif;
origin = (0,1);
type = Corner;
},
{
name = _corner.serif;
options = 1;
origin = (3,2);
scale = (-1,1);
type = Corner;
}
);
layerId = "9BFADF9A-1221-4846-BC6F-4F7BEE8BA661";
shapes = (
{
closed = 1;
nodes = (
(580,-236,l),
(580,984,l),
(430,984,l),
(430,-236,l)
);
},
{
closed = 1;
nodes = (
(470,-480,o),
(580,-371,o),
(580,-236,c),
(430,-236,l),
(430,-287,o),
(386,-330,o),
(334,-330,c),
(334,-480,l)
);
},
{
closed = 1;
nodes = (
(470,0,o),
(580,109,o),
(580,244,c),
(430,244,l),
(430,193,o),
(386,150,o),
(336,150,cs),
(284,150,o),
(240,193,o),
(240,244,c),
(90,244,l),
(90,109,o),
(200,0,o),
(336,0,cs)
);
},
{
closed = 1;
nodes = (
(240,244,l),
(240,984,l),
(90,984,l),
(90,244,l)
);
}
);
width = 670;
}
);
unicode = 121;
},
{
glyphname = z;
kernLeft = "20";
kernRight = "20";
lastChange = "2024-04-18 14:55:36 +0000";
layers = (
{
anchors = (
{
name = top;
pos = (273,1068);
}
);
layerId = "9BFADF9A-1221-4846-BC6F-4F7BEE8BA661";
shapes = (
{
closed = 1;
nodes = (
(196,0,l),
(497,984,l),
(341,984,l),
(40,0,l)
);
},
{
closed = 1;
nodes = (
(326,0,l),
(326,150,l),
(132,150,l),
(46,0,l)
);
},
{
closed = 1;
nodes = (
(392,0,o),
(454,28,o),
(497,71,c),
(391,178,l),
(373,159,o),
(351,150,o),
(326,150,c),
(326,0,l)
);
},
{
closed = 1;
nodes = (
(164,824,o),
(187,834,o),
(212,834,c),
(212,984,l),
(145,984,o),
(83,955,o),
(40,912,c),
(146,805,l)
);
},
{
closed = 1;
nodes = (
(405,834,l),
(492,984,l),
(212,984,l),
(212,834,l)
);
}
);
width = 537;
}
);
unicode = 122;
},
{
glyphname = ordfeminine;
kernLeft = "20";
kernRight = "20";
lastChange = "2024-04-18 14:55:36 +0000";
layers = (
{
layerId = "9BFADF9A-1221-4846-BC6F-4F7BEE8BA661";
shapes = (
{
closed = 1;
nodes = (
(107,1437,l),
(107,1473,o),
(139,1505,o),
(177,1505,cs),
(214,1505,o),
(245,1473,o),
(245,1437,c),
(313,1437,l),
(313,1512,o),
(253,1573,o),
(177,1573,cs),
(101,1573,o),
(40,1512,o),
(40,1437,c)
);
},
{
closed = 1;
nodes = (
(177,1249,l),
(139,1249,o),
(107,1279,o),
(107,1316,c),
(40,1316,l),
(40,1240,o),
(101,1180,o),
(177,1180,c)
);
},
{
closed = 1;
nodes = (
(107,1316,l),
(107,1437,l),
(40,1437,l),
(40,1316,l)
);
},
{
closed = 1;
nodes = (
(313,1180,l),
(313,1437,l),
(245,1437,l),
(245,1180,l)
);
}
);
width = 353;
}
);
unicode = 170;
userData = {
KernOnSpecialSpacing = {
L = superiors;
R = superiors;
};
};
},
{
glyphname = ordmasculine;
kernLeft = "20";
kernRight = "20";
lastChange = "2024-04-18 14:55:36 +0000";
layers = (
{
layerId = "9BFADF9A-1221-4846-BC6F-4F7BEE8BA661";
shapes = (
{
closed = 1;
nodes = (
(107,1434,l),
(107,1470,o),
(139,1503,o),
(177,1503,cs),
(213,1503,o),
(245,1470,o),
(245,1434,c),
(313,1434,l),
(313,1509,o),
(251,1570,o),
(177,1570,cs),
(101,1570,o),
(40,1509,o),
(40,1434,c)
);
},
{
closed = 1;
nodes = (
(251,1177,o),
(313,1239,o),
(313,1313,c),
(245,1313,l),
(245,1278,o),
(213,1246,o),
(177,1246,cs),
(139,1246,o),
(107,1278,o),
(107,1313,c),
(40,1313,l),
(40,1239,o),
(101,1177,o),
(177,1177,cs)
);
},
{
closed = 1;
nodes = (
(107,1313,l),
(107,1434,l),
(40,1434,l),
(40,1313,l)
);
},
{
closed = 1;
nodes = (
(313,1313,l),
(313,1434,l),
(245,1434,l),
(245,1313,l)
);
}
);
width = 353;
}
);
unicode = 186;
userData = {
KernOnSpecialSpacing = {
L = superiors;
R = superiors;
};
};
},
{
glyphname = "Be-cy";
lastChange = "2024-04-18 14:55:36 +0000";
layers = (
{
hints = (
{
name = _corner.serif;
origin = (0,26);
type = Corner;
}
);
layerId = "9BFADF9A-1221-4846-BC6F-4F7BEE8BA661";
shapes = (
{
closed = 1;
nodes = (
(509,0,o),
(630,121,o),
(630,268,cs),
(630,806,ls),
(630,954,o),
(509,1074,o),
(362,1074,c),
(362,924,l),
(426,924,o),
(480,871,o),
(480,806,cs),
(480,268,ls),
(480,204,o),
(426,150,o),
(359,150,c),
(240,150,l),
(240,1311,l),
(362,1311,ls),
(426,1311,o),
(480,1257,o),
(480,1193,c),
(630,1193,l),
(630,1340,o),
(509,1461,o),
(362,1461,cs),
(90,1461,l),
(90,0,l),
(359,0,l)
);
}
);
width = 670;
}
);
unicode = 1041;
},
{
glyphname = "De-cy";
lastChange = "2024-04-18 14:55:36 +0000";
layers = (
{
hints = (
{
name = _corner.serif;
origin = (0,0);
type = Corner;
},
{
name = _corner.serif;
options = 1;
origin = (0,7);
scale = (-1,1);
type = Corner;
}
);
layerId = "9BFADF9A-1221-4846-BC6F-4F7BEE8BA661";
shapes = (
{
closed = 1;
nodes = (
(73,0,l),
(223,0,l),
(320,1281,ls),
(321,1322,o),
(366,1322,o),
(367,1281,cs),
(461,0,l),
(611,0,l),
(510,1317,ls),
(490,1528,o),
(197,1528,o),
(177,1317,cs)
);
},
{
closed = 1;
nodes = (
(140,0,l),
(560,0,l),
(560,150,l),
(140,150,l)
);
}
);
width = 684;
}
);
unicode = 1044;
},
{
glyphname = "Zhe-cy";
lastChange = "2024-04-18 14:55:36 +0000";
layers = (
{
hints = (
{
name = _corner.serif;
options = 1;
origin = (1,0);
scale = (-1,1);
type = Corner;
},
{
name = _corner.serif;
origin = (5,2);
type = Corner;
}
);
layerId = "9BFADF9A-1221-4846-BC6F-4F7BEE8BA661";
shapes = (
{
closed = 1;
nodes = (
(630,0,l),
(630,1461,l),
(480,1461,l),
(480,0,l)
);
},
{
closed = 1;
nodes = (
(1020,0,l),
(1020,336,l),
(870,336,l),
(870,0,l)
);
},
{
closed = 1;
nodes = (
(630,336,l),
(630,401,o),
(684,454,o),
(751,454,cs),
(816,454,o),
(870,401,o),
(870,336,c),
(1020,336,l),
(1020,484,o),
(899,604,o),
(751,604,cs),
(601,604,o),
(480,484,o),
(480,336,c)
);
},
{
closed = 1;
nodes = (
(899,454,o),
(1020,575,o),
(1020,723,c),
(870,723,l),
(870,658,o),
(816,604,o),
(751,604,c),
(751,454,l)
);
},
{
closed = 1;
nodes = (
(1020,723,l),
(1020,1461,l),
(870,1461,l),
(870,723,l)
);
},
{
closed = 1;
nodes = (
(240,336,l),
(90,336,l),
(90,0,l),
(240,0,l)
);
},
{
closed = 1;
nodes = (
(630,484,o),
(509,604,o),
(359,604,cs),
(211,604,o),
(90,484,o),
(90,336,c),
(240,336,l),
(240,401,o),
(294,454,o),
(359,454,cs),
(426,454,o),
(480,401,o),
(480,336,c),
(630,336,l)
);
},
{
closed = 1;
nodes = (
(359,604,l),
(294,604,o),
(240,658,o),
(240,723,c),
(90,723,l),
(90,575,o),
(211,454,o),
(359,454,c)
);
},
{
closed = 1;
nodes = (
(240,1461,l),
(90,1461,l),
(90,723,l),
(240,723,l)
);
}
);
width = 1110;
}
);
unicode = 1046;
},
{
glyphname = "Ii-cy";
lastChange = "2024-04-18 14:55:36 +0000";
layers = (
{
hints = (
{
name = _corner.serif;
options = 1;
origin = (3,0);
scale = (-1,1);
type = Corner;
}
);
layerId = "9BFADF9A-1221-4846-BC6F-4F7BEE8BA661";
shapes = (
{
closed = 1;
nodes = (
(190,0,l),
(190,1461,l),
(40,1461,l),
(40,0,l)
);
},
{
closed = 1;
nodes = (
(310,0,l),
(310,150,l),
(52,150,l),
(52,0,l)
);
},
{
closed = 1;
nodes = (
(459,0,o),
(580,121,o),
(580,268,c),
(430,268,l),
(430,204,o),
(376,150,o),
(310,150,c),
(310,0,l)
);
},
{
closed = 1;
nodes = (
(580,0,l),
(580,1461,l),
(430,1461,l),
(430,0,l)
);
}
);
width = 670;
}
);
unicode = 1048;
},
{
glyphname = "Iishort-cy";
lastChange = "2024-04-18 14:55:36 +0000";
layers = (
{
hints = (
{
name = _corner.serif;
options = 1;
origin = (3,0);
scale = (-1,1);
type = Corner;
}
);
layerId = "9BFADF9A-1221-4846-BC6F-4F7BEE8BA661";
shapes = (
{
closed = 1;
nodes = (
(190,0,l),
(190,1461,l),
(40,1461,l),
(40,0,l)
);
},
{
closed = 1;
nodes = (
(310,0,l),
(310,150,l),
(52,150,l),
(52,0,l)
);
},
{
closed = 1;
nodes = (
(459,0,o),
(580,121,o),
(580,268,c),
(430,268,l),
(430,204,o),
(376,150,o),
(310,150,c),
(310,0,l)
);
},
{
closed = 1;
nodes = (
(580,0,l),
(580,1461,l),
(430,1461,l),
(430,0,l)
);
},
{
closed = 1;
nodes = (
(390,1641,o),
(461,1709,o),
(461,1791,c),
(377,1791,l),
(377,1755,o),
(346,1725,o),
(312,1725,cs),
(274,1725,o),
(243,1755,o),
(243,1791,c),
(159,1791,l),
(159,1709,o),
(227,1641,o),
(312,1641,cs)
);
}
);
width = 670;
}
);
unicode = 1049;
},
{
glyphname = "Em-cy";
lastChange = "2024-04-18 14:55:36 +0000";
layers = (
{
hints = (
{
name = _corner.serif;
options = 1;
origin = (0,0);
scale = (-1,1);
type = Corner;
},
{
name = _corner.serif;
origin = (1,3);
type = Corner;
}
);
layerId = "9BFADF9A-1221-4846-BC6F-4F7BEE8BA661";
shapes = (
{
closed = 1;
nodes = (
(1020,0,l),
(1020,1461,l),
(870,1461,l),
(870,0,l)
);
},
{
closed = 1;
nodes = (
(240,0,l),
(240,1461,l),
(90,1461,l),
(90,0,l)
);
},
{
closed = 1;
nodes = (
(630,0,l),
(630,1193,l),
(480,1193,l),
(480,0,l)
);
},
{
closed = 1;
nodes = (
(362,1311,l),
(362,1461,l),
(146,1461,l),
(146,1311,l)
);
},
{
closed = 1;
nodes = (
(630,1193,l),
(630,1340,o),
(509,1461,o),
(362,1461,c),
(362,1311,l),
(426,1311,o),
(480,1257,o),
(480,1193,c)
);
},
{
closed = 1;
nodes = (
(630,1193,l),
(630,1257,o),
(684,1311,o),
(751,1311,c),
(751,1461,l),
(601,1461,o),
(480,1340,o),
(480,1193,c)
);
},
{
closed = 1;
nodes = (
(951,1311,l),
(951,1461,l),
(751,1461,l),
(751,1311,l)
);
}
);
width = 1110;
}
);
unicode = 1052;
},
{
glyphname = "Pe-cy";
lastChange = "2024-04-18 14:55:36 +0000";
layers = (
{
anchors = (
{
name = top;
pos = (359,1546);
}
);
hints = (
{
name = _corner.serif;
options = 1;
origin = (0,7);
scale = (-1,1);
type = Corner;
},
{
name = _corner.serif;
origin = (0,13);
type = Corner;
}
);
layerId = "9BFADF9A-1221-4846-BC6F-4F7BEE8BA661";
shapes = (
{
closed = 1;
nodes = (
(240,0,l),
(240,1311,l),
(362,1311,ls),
(426,1311,o),
(480,1257,o),
(480,1193,cs),
(480,0,l),
(630,0,l),
(630,1193,ls),
(630,1340,o),
(509,1461,o),
(362,1461,cs),
(90,1461,l),
(90,0,l)
);
}
);
width = 720;
}
);
unicode = 1055;
},
{
glyphname = "U-cy";
lastChange = "2024-04-18 14:55:36 +0000";
layers = (
{
anchors = (
{
name = top;
pos = (360,1546);
}
);
hints = (
{
name = _corner.serif;
options = 1;
origin = (1,3);
scale = (-1,1);
type = Corner;
},
{
name = _corner.serif;
origin = (3,2);
type = Corner;
}
);
layerId = "9BFADF9A-1221-4846-BC6F-4F7BEE8BA661";
shapes = (
{
closed = 1;
nodes = (
(90,977,o),
(211,857,o),
(362,857,cs),
(509,857,o),
(630,977,o),
(630,1125,c),
(480,1125,l),
(480,1060,o),
(426,1007,o),
(362,1007,cs),
(294,1007,o),
(240,1060,o),
(240,1125,c),
(90,1125,l)
);
},
{
closed = 1;
nodes = (
(90,1125,l),
(240,1125,l),
(240,1461,l),
(90,1461,l)
);
},
{
closed = 1;
nodes = (
(90,121,o),
(211,0,o),
(362,0,cs),
(509,0,o),
(630,121,o),
(630,268,c),
(480,268,l),
(480,204,o),
(426,150,o),
(362,150,cs),
(294,150,o),
(240,204,o),
(240,268,c),
(90,268,l)
);
},
{
closed = 1;
nodes = (
(480,268,l),
(630,268,l),
(630,1461,l),
(480,1461,l)
);
}
);
width = 720;
}
);
unicode = 1059;
},
{
glyphname = "Ef-cy";
lastChange = "2024-04-18 14:55:36 +0000";
layers = (
{
hints = (
{
name = _corner.serif;
options = 1;
origin = (0,0);
scale = (-1,1);
type = Corner;
},
{
name = _corner.serif;
origin = (0,28);
type = Corner;
}
);
layerId = "9BFADF9A-1221-4846-BC6F-4F7BEE8BA661";
shapes = (
{
closed = 1;
nodes = (
(580,0,l),
(580,491,l),
(613,469,o),
(655,454,o),
(701,454,cs),
(849,454,o),
(969,575,o),
(969,723,cs),
(969,1193,ls),
(969,1340,o),
(849,1461,o),
(701,1461,cs),
(622,1461,o),
(553,1426,o),
(506,1374,c),
(458,1426,o),
(388,1461,o),
(309,1461,cs),
(161,1461,o),
(40,1340,o),
(40,1193,cs),
(40,723,ls),
(40,575,o),
(161,454,o),
(309,454,cs),
(355,454,o),
(396,469,o),
(430,491,c),
(430,0,l)
);
},
{
closed = 1;
nodes = (
(244,604,o),
(190,658,o),
(190,723,cs),
(190,1193,ls),
(190,1257,o),
(244,1311,o),
(309,1311,cs),
(376,1311,o),
(430,1257,o),
(430,1193,cs),
(430,723,ls),
(430,658,o),
(376,604,o),
(309,604,cs)
);
},
{
closed = 1;
nodes = (
(633,604,o),
(580,658,o),
(580,723,cs),
(580,1193,ls),
(580,1257,o),
(633,1311,o),
(701,1311,cs),
(766,1311,o),
(819,1257,o),
(819,1193,cs),
(819,723,ls),
(819,658,o),
(766,604,o),
(701,604,cs)
);
}
);
width = 1010;
}
);
unicode = 1060;
},
{
glyphname = "Tse-cy";
lastChange = "2024-04-18 14:55:36 +0000";
layers = (
{
hints = (
{
name = _corner.serif;
options = 1;
origin = (0,2);
scale = (-1,1);
type = Corner;
},
{
name = _corner.serif;
origin = (3,1);
type = Corner;
}
);
layerId = "9BFADF9A-1221-4846-BC6F-4F7BEE8BA661";
shapes = (
{
closed = 1;
nodes = (
(240,0,l),
(240,1461,l),
(90,1461,l),
(90,0,l)
);
},
{
closed = 1;
nodes = (
(360,0,l),
(360,150,l),
(102,150,l),
(102,0,l)
);
},
{
closed = 1;
nodes = (
(509,0,o),
(630,121,o),
(630,268,c),
(480,268,l),
(480,204,o),
(426,150,o),
(360,150,c),
(360,0,l)
);
},
{
closed = 1;
nodes = (
(630,150,l),
(630,1461,l),
(480,1461,l),
(480,150,l)
);
},
{
closed = 1;
nodes = (
(751,32,l),
(684,32,o),
(630,85,o),
(630,150,c),
(480,150,l),
(480,2,o),
(601,-118,o),
(751,-118,c)
);
}
);
width = 792;
}
);
unicode = 1062;
},
{
glyphname = "Shcha-cy";
lastChange = "2024-04-18 14:55:36 +0000";
layers = (
{
anchors = (
{
name = top;
pos = (554,1546);
}
);
hints = (
{
name = _corner.serif;
options = 1;
origin = (0,26);
scale = (-1,1);
type = Corner;
},
{
name = _corner.serif;
origin = (1,4);
type = Corner;
}
);
layerId = "9BFADF9A-1221-4846-BC6F-4F7BEE8BA661";
shapes = (
{
closed = 1;
nodes = (
(438,0,o),
(508,35,o),
(556,87,c),
(603,35,o),
(672,0,o),
(751,0,cs),
(899,0,o),
(1020,121,o),
(1020,268,c),
(870,268,l),
(870,204,o),
(816,150,o),
(751,150,cs),
(684,150,o),
(630,204,o),
(630,268,cs),
(630,1461,l),
(480,1461,l),
(480,268,ls),
(480,204,o),
(426,150,o),
(362,150,cs),
(294,150,o),
(240,204,o),
(240,268,cs),
(240,1461,l),
(90,1461,l),
(90,268,ls),
(90,121,o),
(211,0,o),
(362,0,cs)
);
},
{
closed = 1;
nodes = (
(1141,32,l),
(1073,32,o),
(1020,85,o),
(1020,150,cs),
(1020,1461,l),
(870,1461,l),
(870,150,ls),
(870,2,o),
(990,-118,o),
(1141,-118,c)
);
}
);
width = 1181;
}
);
unicode = 1065;
},
{
glyphname = "Softsign-cy";
lastChange = "2024-04-18 14:55:36 +0000";
layers = (
{
hints = (
{
name = _corner.serif;
options = 1;
origin = (0,11);
scale = (-1,1);
type = Corner;
}
);
layerId = "9BFADF9A-1221-4846-BC6F-4F7BEE8BA661";
shapes = (
{
closed = 1;
nodes = (
(509,0,o),
(630,121,o),
(630,268,cs),
(630,738,ls),
(630,886,o),
(509,1007,o),
(362,1007,cs),
(315,1007,o),
(275,993,o),
(240,970,c),
(240,1461,l),
(90,1461,l),
(90,268,ls),
(90,121,o),
(211,0,o),
(362,0,cs)
);
},
{
closed = 1;
nodes = (
(294,150,o),
(240,204,o),
(240,268,cs),
(240,738,ls),
(240,803,o),
(294,857,o),
(362,857,cs),
(426,857,o),
(480,803,o),
(480,738,cs),
(480,268,ls),
(480,204,o),
(426,150,o),
(362,150,cs)
);
}
);
width = 670;
}
);
unicode = 1068;
},
{
glyphname = "Yeru-cy";
lastChange = "2024-04-18 14:55:36 +0000";
layers = (
{
anchors = (
{
name = top;
pos = (831,1546);
}
);
hints = (
{
name = _corner.serif;
options = 1;
origin = (0,11);
scale = (-1,1);
type = Corner;
},
{
name = _corner.serif;
options = 1;
origin = (2,0);
scale = (-1,1);
type = Corner;
},
{
name = _corner.serif;
options = 2;
origin = (2,1);
type = Corner;
}
);
layerId = "9BFADF9A-1221-4846-BC6F-4F7BEE8BA661";
shapes = (
{
closed = 1;
nodes = (
(509,0,o),
(630,121,o),
(630,268,cs),
(630,738,ls),
(630,886,o),
(509,1007,o),
(362,1007,cs),
(315,1007,o),
(275,993,o),
(240,970,c),
(240,1461,l),
(90,1461,l),
(90,268,ls),
(90,121,o),
(211,0,o),
(362,0,cs)
);
},
{
closed = 1;
nodes = (
(294,150,o),
(240,204,o),
(240,268,cs),
(240,738,ls),
(240,803,o),
(294,857,o),
(362,857,cs),
(426,857,o),
(480,803,o),
(480,738,cs),
(480,268,ls),
(480,204,o),
(426,150,o),
(362,150,cs)
);
},
{
closed = 1;
nodes = (
(906,0,l),
(906,1461,l),
(756,1461,l),
(756,0,l)
);
}
);
width = 997;
}
);
unicode = 1067;
},
{
glyphname = "Hardsign-cy";
lastChange = "2024-04-18 14:55:36 +0000";
layers = (
{
layerId = "9BFADF9A-1221-4846-BC6F-4F7BEE8BA661";
shapes = (
{
closed = 1;
nodes = (
(312,268,l),
(312,1193,ls),
(312,1340,o),
(191,1461,o),
(40,1461,c),
(40,1311,l),
(108,1311,o),
(162,1257,o),
(162,1193,cs),
(162,268,l)
);
},
{
closed = 1;
nodes = (
(580,0,o),
(701,121,o),
(701,268,c),
(551,268,l),
(551,204,o),
(497,150,o),
(433,150,cs),
(365,150,o),
(312,204,o),
(312,268,c),
(162,268,l),
(162,121,o),
(282,0,o),
(433,0,cs)
);
},
{
closed = 1;
nodes = (
(701,268,l),
(701,738,l),
(551,738,l),
(551,268,l)
);
},
{
closed = 1;
nodes = (
(312,738,l),
(312,803,o),
(365,857,o),
(433,857,cs),
(497,857,o),
(551,803,o),
(551,738,c),
(701,738,l),
(701,886,o),
(580,1007,o),
(433,1007,cs),
(282,1007,o),
(162,886,o),
(162,738,c)
);
}
);
width = 741;
}
);
unicode = 1066;
},
{
glyphname = "Ereversed-cy";
lastChange = "2024-04-18 14:55:36 +0000";
layers = (
{
anchors = (
{
name = top;
pos = (310,1546);
}
);
layerId = "9BFADF9A-1221-4846-BC6F-4F7BEE8BA661";
shapes = (
{
closed = 1;
nodes = (
(580,268,l),
(580,1193,ls),
(580,1340,o),
(459,1461,o),
(309,1461,cs),
(161,1461,o),
(40,1340,o),
(40,1193,c),
(190,1193,l),
(190,1257,o),
(244,1311,o),
(309,1311,cs),
(376,1311,o),
(430,1257,o),
(430,1193,cs),
(430,268,l)
);
},
{
closed = 1;
nodes = (
(459,0,o),
(580,121,o),
(580,268,c),
(430,268,l),
(430,204,o),
(376,150,o),
(309,150,cs),
(244,150,o),
(190,204,o),
(190,268,c),
(40,268,l),
(40,121,o),
(161,0,o),
(309,0,cs)
);
},
{
closed = 1;
nodes = (
(560,657,l),
(560,806,l),
(263,806,l),
(263,657,l)
);
}
);
width = 620;
}
);
unicode = 1069;
},
{
glyphname = "Yu-cy";
lastChange = "2024-04-18 14:55:36 +0000";
layers = (
{
hints = (
{
name = _corner.serif;
origin = (0,3);
type = Corner;
}
);
layerId = "9BFADF9A-1221-4846-BC6F-4F7BEE8BA661";
shapes = (
{
closed = 1;
nodes = (
(240,0,l),
(240,1461,l),
(90,1461,l),
(90,0,l)
);
},
{
closed = 1;
nodes = (
(630,1193,l),
(630,1257,o),
(684,1311,o),
(751,1311,cs),
(816,1311,o),
(870,1257,o),
(870,1193,c),
(1020,1193,l),
(1020,1340,o),
(899,1461,o),
(751,1461,cs),
(601,1461,o),
(480,1340,o),
(480,1193,c)
);
},
{
closed = 1;
nodes = (
(899,0,o),
(1020,121,o),
(1020,268,c),
(870,268,l),
(870,204,o),
(816,150,o),
(751,150,cs),
(684,150,o),
(630,204,o),
(630,268,c),
(480,268,l),
(480,121,o),
(601,0,o),
(751,0,cs)
);
},
{
closed = 1;
nodes = (
(630,268,l),
(630,1193,l),
(480,1193,l),
(480,268,l)
);
},
{
closed = 1;
nodes = (
(1020,268,l),
(1020,1193,l),
(870,1193,l),
(870,268,l)
);
},
{
closed = 1;
nodes = (
(240,268,l),
(240,333,o),
(294,387,o),
(362,387,cs),
(426,387,o),
(480,333,o),
(480,268,c),
(630,268,l),
(630,416,o),
(509,537,o),
(362,537,cs),
(211,537,o),
(90,416,o),
(90,268,c)
);
}
);
width = 1060;
}
);
unicode = 1070;
},
{
glyphname = "be-cy";
lastChange = "2024-04-18 14:55:36 +0000";
layers = (
{
layerId = "9BFADF9A-1221-4846-BC6F-4F7BEE8BA661";
shapes = (
{
closed = 1;
nodes = (
(190,244,l),
(190,1217,l),
(40,1217,l),
(40,244,l)
);
},
{
closed = 1;
nodes = (
(420,0,o),
(530,109,o),
(530,244,c),
(380,244,l),
(380,193,o),
(336,150,o),
(284,150,cs),
(234,150,o),
(190,193,o),
(190,244,c),
(40,244,l),
(40,109,o),
(150,0,o),
(284,0,cs)
);
},
{
closed = 1;
nodes = (
(530,244,l),
(530,739,l),
(380,739,l),
(380,244,l)
);
},
{
closed = 1;
nodes = (
(530,739,l),
(530,874,o),
(420,984,o),
(284,984,c),
(284,834,l),
(336,834,o),
(380,790,o),
(380,739,c)
);
},
{
closed = 1;
nodes = (
(190,1217,l),
(190,1268,o),
(234,1311,o),
(285,1311,c),
(285,1461,l),
(150,1461,o),
(40,1352,o),
(40,1217,c)
);
}
);
width = 570;
}
);
unicode = 1073;
},
{
glyphname = "ve-cy";
lastChange = "2024-04-18 14:55:36 +0000";
layers = (
{
layerId = "9BFADF9A-1221-4846-BC6F-4F7BEE8BA661";
shapes = (
{
closed = 1;
nodes = (
(190,1217,l),
(190,1268,o),
(234,1311,o),
(284,1311,cs),
(336,1311,o),
(380,1268,o),
(380,1217,c),
(530,1217,l),
(530,1352,o),
(420,1461,o),
(284,1461,cs),
(150,1461,o),
(40,1352,o),
(40,1217,c)
);
},
{
closed = 1;
nodes = (
(420,0,o),
(530,109,o),
(530,244,c),
(380,244,l),
(380,193,o),
(336,150,o),
(284,150,cs),
(234,150,o),
(190,193,o),
(190,244,c),
(40,244,l),
(40,109,o),
(150,0,o),
(284,0,cs)
);
},
{
closed = 1;
nodes = (
(190,244,l),
(190,1217,l),
(40,1217,l),
(40,244,l)
);
},
{
closed = 1;
nodes = (
(530,244,l),
(530,739,l),
(380,739,l),
(380,244,l)
);
},
{
closed = 1;
nodes = (
(530,739,l),
(530,874,o),
(420,984,o),
(284,984,c),
(284,834,l),
(336,834,o),
(380,790,o),
(380,739,c)
);
},
{
closed = 1;
nodes = (
(420,834,o),
(530,943,o),
(530,1077,c),
(380,1077,l),
(380,1027,o),
(336,984,o),
(284,984,c),
(284,834,l)
);
},
{
closed = 1;
nodes = (
(530,1077,l),
(530,1217,l),
(380,1217,l),
(380,1077,l)
);
}
);
width = 570;
}
);
unicode = 1074;
},
{
glyphname = "ge-cy";
lastChange = "2024-04-18 14:55:36 +0000";
layers = (
{
hints = (
{
name = _corner.serif;
origin = (0,3);
type = Corner;
}
);
layerId = "9BFADF9A-1221-4846-BC6F-4F7BEE8BA661";
shapes = (
{
closed = 1;
nodes = (
(240,0,l),
(240,739,l),
(90,739,l),
(90,0,l)
);
},
{
closed = 1;
nodes = (
(240,739,l),
(240,790,o),
(284,834,o),
(336,834,c),
(336,984,l),
(200,984,o),
(90,874,o),
(90,739,c)
);
}
);
width = 376;
}
);
unicode = 1075;
},
{
glyphname = "de-cy";
lastChange = "2024-04-18 14:55:36 +0000";
layers = (
{
layerId = "9BFADF9A-1221-4846-BC6F-4F7BEE8BA661";
shapes = (
{
closed = 1;
nodes = (
(380,739,l),
(380,-234,l),
(530,-234,l),
(530,739,l)
);
},
{
closed = 1;
nodes = (
(150,984,o),
(40,874,o),
(40,739,c),
(190,739,l),
(190,790,o),
(234,834,o),
(285,834,cs),
(336,834,o),
(380,790,o),
(380,739,c),
(530,739,l),
(530,874,o),
(420,984,o),
(285,984,cs)
);
},
{
closed = 1;
nodes = (
(40,739,l),
(40,244,l),
(190,244,l),
(190,739,l)
);
},
{
closed = 1;
nodes = (
(40,244,l),
(40,109,o),
(150,0,o),
(285,0,c),
(285,150,l),
(234,150,o),
(190,193,o),
(190,244,c)
);
},
{
closed = 1;
nodes = (
(380,-234,l),
(380,-284,o),
(336,-328,o),
(284,-328,c),
(284,-478,l),
(420,-478,o),
(530,-368,o),
(530,-234,c)
);
}
);
width = 570;
}
);
unicode = 1076;
},
{
glyphname = "zhe-cy";
lastChange = "2024-04-18 14:55:36 +0000";
layers = (
{
hints = (
{
name = _corner.serif;
origin = (0,32);
type = Corner;
},
{
name = _corner.serif;
options = 2;
origin = (0,33);
scale = (-1,1);
type = Corner;
}
);
layerId = "9BFADF9A-1221-4846-BC6F-4F7BEE8BA661";
shapes = (
{
closed = 1;
nodes = (
(190,0,l),
(190,52,o),
(234,95,o),
(284,95,cs),
(321,95,o),
(353,106,o),
(380,126,c),
(380,0,l),
(530,0,l),
(530,126,l),
(556,106,o),
(589,95,o),
(625,95,cs),
(675,95,o),
(719,52,o),
(719,0,c),
(869,0,l),
(869,67,o),
(839,128,o),
(794,171,c),
(839,212,o),
(869,273,o),
(869,340,cs),
(869,984,l),
(719,984,l),
(719,340,ls),
(719,289,o),
(675,245,o),
(625,245,cs),
(573,245,o),
(530,289,o),
(530,340,cs),
(530,1461,l),
(380,1461,l),
(380,340,ls),
(380,289,o),
(336,245,o),
(284,245,cs),
(234,245,o),
(190,289,o),
(190,340,cs),
(190,984,l),
(40,984,l),
(40,340,ls),
(40,273,o),
(70,212,o),
(115,171,c),
(70,128,o),
(40,67,o),
(40,0,c)
);
}
);
width = 909;
}
);
unicode = 1078;
},
{
glyphname = "ze-cy";
lastChange = "2024-04-18 14:55:36 +0000";
layers = (
{
layerId = "9BFADF9A-1221-4846-BC6F-4F7BEE8BA661";
shapes = (
{
closed = 1;
nodes = (
(40,-368,o),
(150,-478,o),
(284,-478,cs),
(420,-478,o),
(530,-368,o),
(530,-234,c),
(380,-234,l),
(380,-284,o),
(336,-328,o),
(284,-328,cs),
(234,-328,o),
(190,-284,o),
(190,-234,c),
(40,-234,l)
);
},
{
closed = 1;
nodes = (
(150,984,o),
(40,874,o),
(40,739,c),
(190,739,l),
(190,790,o),
(234,834,o),
(284,834,cs),
(336,834,o),
(380,790,o),
(380,739,c),
(530,739,l),
(530,874,o),
(420,984,o),
(284,984,cs)
);
},
{
closed = 1;
nodes = (
(380,244,l),
(530,244,l),
(530,739,l),
(380,739,l)
);
},
{
closed = 1;
nodes = (
(380,193,o),
(336,150,o),
(284,150,c),
(284,0,l),
(420,0,o),
(530,109,o),
(530,244,c),
(380,244,l)
);
},
{
closed = 1;
nodes = (
(284,0,l),
(336,0,o),
(380,-43,o),
(380,-94,c),
(530,-94,l),
(530,41,o),
(420,150,o),
(284,150,c)
);
},
{
closed = 1;
nodes = (
(380,-234,l),
(530,-234,l),
(530,-94,l),
(380,-94,l)
);
}
);
width = 570;
}
);
unicode = 1079;
},
{
glyphname = "ii-cy";
lastChange = "2024-04-18 14:55:36 +0000";
layers = (
{
hints = (
{
name = _corner.serif;
options = 1;
origin = (2,0);
scale = (-1,1);
type = Corner;
}
);
layerId = "9BFADF9A-1221-4846-BC6F-4F7BEE8BA661";
shapes = (
{
closed = 1;
nodes = (
(420,0,o),
(530,109,o),
(530,244,c),
(380,244,l),
(380,193,o),
(336,150,o),
(285,150,cs),
(234,150,o),
(190,193,o),
(190,244,c),
(40,244,l),
(40,109,o),
(150,0,o),
(285,0,cs)
);
},
{
closed = 1;
nodes = (
(190,244,l),
(190,984,l),
(40,984,l),
(40,244,l)
);
},
{
closed = 1;
nodes = (
(530,0,l),
(530,984,l),
(380,984,l),
(380,0,l)
);
}
);
width = 620;
}
);
unicode = 1080;
},
{
glyphname = "iishort-cy";
lastChange = "2024-04-18 14:55:36 +0000";
layers = (
{
hints = (
{
name = _corner.serif;
options = 1;
origin = (2,0);
scale = (-1,1);
type = Corner;
}
);
layerId = "9BFADF9A-1221-4846-BC6F-4F7BEE8BA661";
shapes = (
{
closed = 1;
nodes = (
(420,0,o),
(530,109,o),
(530,244,c),
(380,244,l),
(380,193,o),
(336,150,o),
(285,150,cs),
(234,150,o),
(190,193,o),
(190,244,c),
(40,244,l),
(40,109,o),
(150,0,o),
(285,0,cs)
);
},
{
closed = 1;
nodes = (
(190,244,l),
(190,984,l),
(40,984,l),
(40,244,l)
);
},
{
closed = 1;
nodes = (
(530,0,l),
(530,984,l),
(380,984,l),
(380,0,l)
);
},
{
closed = 1;
nodes = (
(366,1165,o),
(436,1233,o),
(436,1315,c),
(352,1315,l),
(352,1280,o),
(322,1249,o),
(287,1249,cs),
(249,1249,o),
(219,1280,o),
(219,1315,c),
(135,1315,l),
(135,1233,o),
(203,1165,o),
(287,1165,cs)
);
}
);
width = 620;
}
);
unicode = 1081;
},
{
glyphname = "ka-cy";
lastChange = "2024-04-18 14:55:36 +0000";
layers = (
{
hints = (
{
name = _corner.serif;
options = 1;
origin = (0,25);
scale = (-1,1);
type = Corner;
}
);
layerId = "9BFADF9A-1221-4846-BC6F-4F7BEE8BA661";
shapes = (
{
closed = 1;
nodes = (
(240,0,l),
(240,126,l),
(267,106,o),
(299,95,o),
(336,95,cs),
(386,95,o),
(430,52,o),
(430,0,c),
(580,0,l),
(580,67,o),
(551,128,o),
(505,171,c),
(551,212,o),
(580,273,o),
(580,340,cs),
(580,984,l),
(430,984,l),
(430,340,ls),
(430,289,o),
(386,245,o),
(336,245,cs),
(284,245,o),
(240,289,o),
(240,340,cs),
(240,1461,l),
(90,1461,l),
(90,0,l)
);
}
);
width = 620;
}
);
unicode = 1082;
},
{
glyphname = "el-cy";
lastChange = "2024-04-18 14:55:36 +0000";
layers = (
{
hints = (
{
name = _corner.serif;
options = 1;
origin = (0,4);
scale = (-1,1);
type = Corner;
},
{
name = _corner.serif;
origin = (0,9);
type = Corner;
}
);
layerId = "9BFADF9A-1221-4846-BC6F-4F7BEE8BA661";
shapes = (
{
closed = 1;
nodes = (
(286,847,o),
(349,847,o),
(351,799,cs),
(411,0,l),
(561,0,l),
(490,823,ls),
(468,1038,o),
(166,1038,o),
(143,823,cs),
(71,0,l),
(221,0,l),
(282,799,ls)
);
}
);
width = 632;
}
);
unicode = 1083;
},
{
glyphname = "em-cy";
lastChange = "2024-04-18 14:55:36 +0000";
layers = (
{
hints = (
{
name = _corner.serif;
origin = (0,9);
type = Corner;
},
{
name = _corner.serif;
options = 1;
origin = (1,4);
scale = (-1,1);
type = Corner;
}
);
layerId = "9BFADF9A-1221-4846-BC6F-4F7BEE8BA661";
shapes = (
{
closed = 1;
nodes = (
(286,847,o),
(349,847,o),
(351,799,cs),
(411,0,l),
(561,0,l),
(490,823,ls),
(468,1038,o),
(165,1038,o),
(143,823,cs),
(71,0,l),
(221,0,l),
(282,799,ls)
);
},
{
closed = 1;
nodes = (
(625,847,o),
(688,847,o),
(691,799,cs),
(750,0,l),
(900,0,l),
(829,823,ls),
(807,1038,o),
(504,1038,o),
(483,823,cs),
(411,0,l),
(561,0,l),
(621,799,ls)
);
}
);
width = 971;
}
);
unicode = 1084;
},
{
glyphname = "en-cy";
lastChange = "2024-04-18 14:55:36 +0000";
layers = (
{
hints = (
{
name = _corner.serif;
options = 1;
origin = (0,2);
scale = (-1,1);
type = Corner;
},
{
name = _corner.serif;
origin = (2,1);
type = Corner;
}
);
layerId = "9BFADF9A-1221-4846-BC6F-4F7BEE8BA661";
shapes = (
{
closed = 1;
nodes = (
(240,0,l),
(240,984,l),
(90,984,l),
(90,0,l)
);
},
{
closed = 1;
nodes = (
(470,315,o),
(580,424,o),
(580,559,c),
(430,559,l),
(430,509,o),
(386,465,o),
(336,465,cs),
(284,465,o),
(240,509,o),
(240,559,c),
(90,559,l),
(90,424,o),
(200,315,o),
(336,315,cs)
);
},
{
closed = 1;
nodes = (
(580,0,l),
(580,984,l),
(430,984,l),
(430,0,l)
);
}
);
width = 670;
}
);
unicode = 1085;
},
{
glyphname = "te-cy";
lastChange = "2024-04-18 14:55:36 +0000";
layers = (
{
hints = (
{
name = _corner.serif;
origin = (0,3);
type = Corner;
}
);
layerId = "9BFADF9A-1221-4846-BC6F-4F7BEE8BA661";
shapes = (
{
closed = 1;
nodes = (
(360,0,l),
(360,739,l),
(210,739,l),
(210,0,l)
);
},
{
closed = 1;
nodes = (
(360,739,l),
(360,790,o),
(403,834,o),
(455,834,c),
(455,984,l),
(319,984,o),
(210,874,o),
(210,739,c)
);
},
{
closed = 1;
nodes = (
(40,834,l),
(530,834,l),
(530,984,l),
(40,984,l)
);
}
);
width = 570;
}
);
unicode = 1090;
},
{
glyphname = "ef-cy";
lastChange = "2024-04-18 14:55:36 +0000";
layers = (
{
hints = (
{
name = _corner.serif;
options = 1;
origin = (0,0);
scale = (-1,1);
type = Corner;
},
{
name = _corner.serif;
origin = (0,44);
type = Corner;
}
);
layerId = "9BFADF9A-1221-4846-BC6F-4F7BEE8BA661";
shapes = (
{
closed = 1;
nodes = (
(530,-478,l),
(530,739,ls),
(530,790,o),
(573,834,o),
(624,834,cs),
(675,834,o),
(719,790,o),
(719,739,cs),
(719,244,ls),
(719,193,o),
(675,150,o),
(624,150,c),
(624,0,l),
(760,0,o),
(869,109,o),
(869,244,cs),
(869,739,ls),
(869,874,o),
(760,984,o),
(624,984,cs),
(558,984,o),
(497,954,o),
(456,909,c),
(413,954,o),
(352,984,o),
(285,984,cs),
(150,984,o),
(40,874,o),
(40,739,cs),
(40,244,ls),
(40,109,o),
(150,0,o),
(285,0,c),
(285,150,l),
(234,150,o),
(190,193,o),
(190,244,cs),
(190,739,ls),
(190,790,o),
(234,834,o),
(285,834,cs),
(336,834,o),
(380,790,o),
(380,739,cs),
(380,-478,l)
);
}
);
width = 909;
}
);
unicode = 1092;
},
{
glyphname = "ha-cy";
lastChange = "2024-04-18 14:55:36 +0000";
layers = (
{
hints = (
{
name = _corner.serif;
options = 1;
origin = (2,2);
scale = (-1,1);
type = Corner;
},
{
name = _corner.serif;
origin = (3,1);
type = Corner;
}
);
layerId = "9BFADF9A-1221-4846-BC6F-4F7BEE8BA661";
shapes = (
{
closed = 1;
nodes = (
(470,94,o),
(580,203,o),
(580,338,c),
(430,338,l),
(430,288,o),
(386,244,o),
(336,244,cs),
(284,244,o),
(240,288,o),
(240,338,c),
(90,338,l),
(90,203,o),
(200,94,o),
(336,94,cs)
);
},
{
closed = 1;
nodes = (
(240,0,l),
(240,50,o),
(284,94,o),
(336,94,cs),
(386,94,o),
(430,50,o),
(430,0,c),
(580,0,l),
(580,135,o),
(470,244,o),
(336,244,cs),
(200,244,o),
(90,135,o),
(90,0,c)
);
},
{
closed = 1;
nodes = (
(240,338,l),
(240,984,l),
(90,984,l),
(90,338,l)
);
},
{
closed = 1;
nodes = (
(580,338,l),
(580,984,l),
(430,984,l),
(430,338,l)
);
}
);
width = 670;
}
);
unicode = 1093;
},
{
glyphname = "che-cy";
lastChange = "2024-04-18 14:55:36 +0000";
layers = (
{
hints = (
{
name = _corner.serif;
options = 1;
origin = (1,2);
scale = (-1,1);
type = Corner;
},
{
name = _corner.serif;
origin = (2,1);
type = Corner;
}
);
layerId = "9BFADF9A-1221-4846-BC6F-4F7BEE8BA661";
shapes = (
{
closed = 1;
nodes = (
(470,94,o),
(580,203,o),
(580,338,c),
(430,338,l),
(430,288,o),
(386,244,o),
(336,244,cs),
(284,244,o),
(240,288,o),
(240,338,c),
(90,338,l),
(90,203,o),
(200,94,o),
(336,94,cs)
);
},
{
closed = 1;
nodes = (
(240,338,l),
(240,984,l),
(90,984,l),
(90,338,l)
);
},
{
closed = 1;
nodes = (
(580,0,l),
(580,984,l),
(430,984,l),
(430,0,l)
);
}
);
width = 670;
}
);
unicode = 1095;
userData = {
KernOnName = "che-cy";
};
},
{
glyphname = "tse-cy";
lastChange = "2024-04-18 14:55:36 +0000";
layers = (
{
hints = (
{
name = _corner.serif;
options = 1;
origin = (1,2);
scale = (-1,1);
type = Corner;
},
{
name = _corner.serif;
origin = (2,1);
type = Corner;
}
);
layerId = "9BFADF9A-1221-4846-BC6F-4F7BEE8BA661";
shapes = (
{
closed = 1;
nodes = (
(470,0,o),
(580,109,o),
(580,244,c),
(430,244,l),
(430,193,o),
(386,150,o),
(336,150,cs),
(284,150,o),
(240,193,o),
(240,244,c),
(90,244,l),
(90,109,o),
(200,0,o),
(336,0,cs)
);
},
{
closed = 1;
nodes = (
(240,244,l),
(240,984,l),
(90,984,l),
(90,244,l)
);
},
{
closed = 1;
nodes = (
(580,244,l),
(580,984,l),
(430,984,l),
(430,244,l)
);
},
{
closed = 1;
nodes = (
(580,-94,l),
(580,41,o),
(470,150,o),
(336,150,c),
(336,0,l),
(386,0,o),
(430,-43,o),
(430,-94,c)
);
}
);
width = 670;
}
);
unicode = 1094;
},
{
glyphname = "sha-cy";
lastChange = "2024-04-18 14:55:36 +0000";
layers = (
{
hints = (
{
name = _corner.serif;
options = 1;
origin = (2,2);
scale = (-1,1);
type = Corner;
},
{
name = _corner.serif;
origin = (4,1);
type = Corner;
}
);
layerId = "9BFADF9A-1221-4846-BC6F-4F7BEE8BA661";
shapes = (
{
closed = 1;
nodes = (
(810,0,o),
(919,109,o),
(919,244,c),
(769,244,l),
(769,193,o),
(726,150,o),
(675,150,cs),
(623,150,o),
(580,193,o),
(580,244,c),
(430,244,l),
(430,109,o),
(539,0,o),
(675,0,cs)
);
},
{
closed = 1;
nodes = (
(470,0,o),
(580,109,o),
(580,244,c),
(430,244,l),
(430,193,o),
(386,150,o),
(336,150,cs),
(284,150,o),
(240,193,o),
(240,244,c),
(90,244,l),
(90,109,o),
(200,0,o),
(336,0,cs)
);
},
{
closed = 1;
nodes = (
(240,244,l),
(240,984,l),
(90,984,l),
(90,244,l)
);
},
{
closed = 1;
nodes = (
(580,244,l),
(580,984,l),
(430,984,l),
(430,244,l)
);
},
{
closed = 1;
nodes = (
(919,244,l),
(919,984,l),
(769,984,l),
(769,244,l)
);
}
);
width = 1010;
}
);
unicode = 1096;
},
{
glyphname = "shcha-cy";
lastChange = "2024-04-18 14:55:36 +0000";
layers = (
{
hints = (
{
name = _corner.serif;
options = 1;
origin = (2,2);
scale = (-1,1);
type = Corner;
},
{
name = _corner.serif;
origin = (4,1);
type = Corner;
}
);
layerId = "9BFADF9A-1221-4846-BC6F-4F7BEE8BA661";
shapes = (
{
closed = 1;
nodes = (
(810,0,o),
(919,109,o),
(919,244,c),
(769,244,l),
(769,193,o),
(726,150,o),
(675,150,cs),
(623,150,o),
(580,193,o),
(580,244,c),
(430,244,l),
(430,109,o),
(539,0,o),
(675,0,cs)
);
},
{
closed = 1;
nodes = (
(470,0,o),
(580,109,o),
(580,244,c),
(430,244,l),
(430,193,o),
(386,150,o),
(336,150,cs),
(284,150,o),
(240,193,o),
(240,244,c),
(90,244,l),
(90,109,o),
(200,0,o),
(336,0,cs)
);
},
{
closed = 1;
nodes = (
(240,244,l),
(240,984,l),
(90,984,l),
(90,244,l)
);
},
{
closed = 1;
nodes = (
(580,244,l),
(580,984,l),
(430,984,l),
(430,244,l)
);
},
{
closed = 1;
nodes = (
(919,244,l),
(919,984,l),
(769,984,l),
(769,244,l)
);
},
{
closed = 1;
nodes = (
(919,-94,l),
(919,41,o),
(810,150,o),
(675,150,c),
(675,0,l),
(726,0,o),
(769,-43,o),
(769,-94,c)
);
}
);
width = 1010;
}
);
unicode = 1097;
userData = {
KernOnName = "shcha-cy";
};
},
{
glyphname = "softsign-cy";
lastChange = "2024-04-18 14:55:36 +0000";
layers = (
{
anchors = (
{
name = bottom;
pos = (336,-84);
}
);
hints = (
{
name = _corner.serif;
options = 1;
origin = (1,3);
scale = (-1,1);
type = Corner;
}
);
layerId = "9BFADF9A-1221-4846-BC6F-4F7BEE8BA661";
shapes = (
{
closed = 1;
nodes = (
(90,109,o),
(200,0,o),
(336,0,cs),
(470,0,o),
(580,109,o),
(580,244,c),
(430,244,l),
(430,193,o),
(386,150,o),
(336,150,cs),
(284,150,o),
(240,193,o),
(240,244,c),
(90,244,l)
);
},
{
closed = 1;
nodes = (
(90,244,l),
(240,244,l),
(240,984,l),
(90,984,l)
);
},
{
closed = 1;
nodes = (
(340,244,l),
(580,244,l),
(580,394,l),
(340,394,l)
);
}
);
width = 620;
}
);
unicode = 1100;
},
{
glyphname = "yeru-cy";
lastChange = "2024-04-18 14:55:36 +0000";
layers = (
{
hints = (
{
name = _corner.serif;
options = 1;
origin = (1,3);
scale = (-1,1);
type = Corner;
},
{
name = _corner.serif;
options = 1;
origin = (3,1);
scale = (-1,1);
type = Corner;
},
{
name = _corner.serif;
options = 2;
origin = (3,2);
type = Corner;
}
);
layerId = "9BFADF9A-1221-4846-BC6F-4F7BEE8BA661";
shapes = (
{
closed = 1;
nodes = (
(90,109,o),
(200,0,o),
(336,0,cs),
(470,0,o),
(580,109,o),
(580,244,c),
(430,244,l),
(430,193,o),
(386,150,o),
(336,150,cs),
(284,150,o),
(240,193,o),
(240,244,c),
(90,244,l)
);
},
{
closed = 1;
nodes = (
(90,244,l),
(240,244,l),
(240,984,l),
(90,984,l)
);
},
{
closed = 1;
nodes = (
(340,244,l),
(580,244,l),
(580,394,l),
(340,394,l)
);
},
{
closed = 1;
nodes = (
(700,0,l),
(850,0,l),
(850,984,l),
(700,984,l)
);
}
);
width = 940;
}
);
unicode = 1099;
},
{
glyphname = "hardsign-cy";
lastChange = "2024-04-18 14:55:36 +0000";
layers = (
{
layerId = "9BFADF9A-1221-4846-BC6F-4F7BEE8BA661";
shapes = (
{
closed = 1;
nodes = (
(135,109,o),
(244,0,o),
(380,0,cs),
(515,0,o),
(624,109,o),
(624,244,c),
(474,244,l),
(474,193,o),
(430,150,o),
(380,150,cs),
(328,150,o),
(284,193,o),
(284,244,c),
(135,244,l)
);
},
{
closed = 1;
nodes = (
(135,244,l),
(284,244,l),
(284,739,l),
(135,739,l)
);
},
{
closed = 1;
nodes = (
(384,244,l),
(624,244,l),
(624,394,l),
(384,394,l)
);
},
{
closed = 1;
nodes = (
(284,739,l),
(284,874,o),
(175,984,o),
(40,984,c),
(40,834,l),
(91,834,o),
(135,790,o),
(135,739,c)
);
}
);
width = 664;
}
);
unicode = 1098;
},
{
glyphname = "ereversed-cy";
lastChange = "2024-04-18 14:55:36 +0000";
layers = (
{
layerId = "9BFADF9A-1221-4846-BC6F-4F7BEE8BA661";
shapes = (
{
closed = 1;
nodes = (
(530,874,o),
(420,984,o),
(284,984,cs),
(150,984,o),
(40,874,o),
(40,739,c),
(190,739,l),
(190,790,o),
(234,834,o),
(284,834,cs),
(336,834,o),
(380,790,o),
(380,739,c),
(530,739,l)
);
},
{
closed = 1;
nodes = (
(420,0,o),
(530,109,o),
(530,244,c),
(380,244,l),
(380,193,o),
(336,150,o),
(284,150,c),
(284,0,l)
);
},
{
closed = 1;
nodes = (
(530,739,l),
(380,739,l),
(380,244,l),
(530,244,l)
);
},
{
closed = 1;
nodes = (
(284,394,l),
(284,244,l),
(520,244,l),
(520,394,l)
);
}
);
width = 570;
}
);
unicode = 1101;
},
{
glyphname = "yu-cy";
lastChange = "2024-04-18 14:55:36 +0000";
layers = (
{
hints = (
{
name = _corner.serif;
options = 1;
origin = (0,2);
scale = (-1,1);
type = Corner;
},
{
name = _corner.serif;
options = 2;
origin = (0,3);
type = Corner;
}
);
layerId = "9BFADF9A-1221-4846-BC6F-4F7BEE8BA661";
shapes = (
{
closed = 1;
nodes = (
(240,0,l),
(240,984,l),
(90,984,l),
(90,0,l)
);
},
{
closed = 1;
nodes = (
(580,739,l),
(580,790,o),
(623,834,o),
(675,834,cs),
(726,834,o),
(769,790,o),
(769,739,c),
(919,739,l),
(919,874,o),
(810,984,o),
(675,984,cs),
(539,984,o),
(430,874,o),
(430,739,c)
);
},
{
closed = 1;
nodes = (
(810,0,o),
(919,109,o),
(919,244,c),
(769,244,l),
(769,193,o),
(726,150,o),
(675,150,cs),
(623,150,o),
(580,193,o),
(580,244,c),
(430,244,l),
(430,109,o),
(539,0,o),
(675,0,cs)
);
},
{
closed = 1;
nodes = (
(580,244,l),
(580,739,l),
(430,739,l),
(430,244,l)
);
},
{
closed = 1;
nodes = (
(919,244,l),
(919,739,l),
(769,739,l),
(769,244,l)
);
},
{
closed = 1;
nodes = (
(470,94,o),
(580,203,o),
(580,338,c),
(430,338,l),
(430,288,o),
(386,244,o),
(336,244,cs),
(284,244,o),
(240,288,o),
(240,338,c),
(90,338,l),
(90,203,o),
(200,94,o),
(336,94,cs)
);
}
);
width = 959;
}
);
unicode = 1102;
},
{
glyphname = "ya-cy";
lastChange = "2024-04-18 14:55:36 +0000";
layers = (
{
hints = (
{
name = _corner.serif;
options = 1;
origin = (0,16);
scale = (-1,1);
type = Corner;
}
);
layerId = "9BFADF9A-1221-4846-BC6F-4F7BEE8BA661";
shapes = (
{
closed = 1;
nodes = (
(192,0,l),
(192,52,o),
(235,95,o),
(285,95,c),
(285,245,l),
(234,245,o),
(190,289,o),
(190,340,cs),
(190,739,ls),
(190,790,o),
(234,834,o),
(285,834,cs),
(336,834,o),
(380,790,o),
(380,739,cs),
(380,0,l),
(530,0,l),
(530,739,ls),
(530,874,o),
(420,984,o),
(285,984,cs),
(150,984,o),
(40,874,o),
(40,739,cs),
(40,340,ls),
(40,271,o),
(70,211,o),
(116,171,c),
(70,128,o),
(42,67,o),
(42,0,c)
);
}
);
width = 620;
}
);
unicode = 1103;
},
{
glyphname = zero;
kernLeft = "20";
kernRight = "20";
lastChange = "2024-04-18 14:55:36 +0000";
layers = (
{
layerId = "9BFADF9A-1221-4846-BC6F-4F7BEE8BA661";
shapes = (
{
closed = 1;
nodes = (
(190,1193,l),
(190,1257,o),
(244,1311,o),
(312,1311,cs),
(376,1311,o),
(430,1257,o),
(430,1193,c),
(580,1193,l),
(580,1340,o),
(459,1461,o),
(312,1461,cs),
(161,1461,o),
(40,1340,o),
(40,1193,c)
);
},
{
closed = 1;
nodes = (
(459,0,o),
(580,121,o),
(580,268,c),
(430,268,l),
(430,204,o),
(376,150,o),
(312,150,cs),
(244,150,o),
(190,204,o),
(190,268,c),
(40,268,l),
(40,121,o),
(161,0,o),
(312,0,cs)
);
},
{
closed = 1;
nodes = (
(190,268,l),
(190,1193,l),
(40,1193,l),
(40,268,l)
);
},
{
closed = 1;
nodes = (
(580,268,l),
(580,1193,l),
(430,1193,l),
(430,268,l)
);
}
);
width = 620;
}
);
unicode = 48;
},
{
glyphname = one;
kernLeft = "20";
kernRight = "20";
lastChange = "2024-04-18 14:55:36 +0000";
layers = (
{
hints = (
{
name = _corner.serif;
options = 1;
origin = (1,0);
scale = (-1,1);
type = Corner;
}
);
layerId = "9BFADF9A-1221-4846-BC6F-4F7BEE8BA661";
shapes = (
{
closed = 1;
nodes = (
(40,1311,l),
(105,1311,o),
(159,1257,o),
(159,1193,c),
(309,1193,l),
(309,1340,o),
(188,1461,o),
(40,1461,c)
);
},
{
closed = 1;
nodes = (
(309,0,l),
(309,1193,l),
(159,1193,l),
(159,0,l)
);
}
);
width = 399;
}
);
unicode = 49;
},
{
glyphname = two;
kernLeft = "20";
kernRight = "20";
lastChange = "2024-04-18 14:55:36 +0000";
layers = (
{
layerId = "9BFADF9A-1221-4846-BC6F-4F7BEE8BA661";
shapes = (
{
closed = 1;
nodes = (
(190,1193,l),
(190,1257,o),
(244,1311,o),
(312,1311,cs),
(376,1311,o),
(430,1257,o),
(430,1193,c),
(580,1193,l),
(580,1340,o),
(459,1461,o),
(312,1461,cs),
(161,1461,o),
(40,1340,o),
(40,1193,c)
);
},
{
closed = 1;
nodes = (
(580,0,l),
(580,150,l),
(43,150,l),
(43,0,l)
);
},
{
closed = 1;
nodes = (
(193,150,l),
(193,215,o),
(247,268,o),
(312,268,c),
(312,418,l),
(164,418,o),
(43,298,o),
(43,150,c)
);
},
{
closed = 1;
nodes = (
(459,268,o),
(580,389,o),
(580,537,c),
(430,537,l),
(430,472,o),
(376,418,o),
(312,418,c),
(312,268,l)
);
},
{
closed = 1;
nodes = (
(580,537,l),
(580,1193,l),
(430,1193,l),
(430,537,l)
);
}
);
width = 620;
}
);
unicode = 50;
},
{
glyphname = three;
kernLeft = "20";
kernRight = "20";
lastChange = "2024-04-18 14:55:36 +0000";
layers = (
{
layerId = "9BFADF9A-1221-4846-BC6F-4F7BEE8BA661";
shapes = (
{
closed = 1;
nodes = (
(190,1193,l),
(190,1257,o),
(244,1311,o),
(312,1311,cs),
(376,1311,o),
(430,1257,o),
(430,1193,c),
(580,1193,l),
(580,1340,o),
(459,1461,o),
(312,1461,cs),
(161,1461,o),
(40,1340,o),
(40,1193,c)
);
},
{
closed = 1;
nodes = (
(580,268,l),
(580,806,l),
(430,806,l),
(430,268,l)
);
},
{
closed = 1;
nodes = (
(580,806,l),
(580,954,o),
(459,1074,o),
(312,1074,c),
(312,924,l),
(376,924,o),
(430,871,o),
(430,806,c)
);
},
{
closed = 1;
nodes = (
(459,924,o),
(580,1045,o),
(580,1193,c),
(430,1193,l),
(430,1128,o),
(376,1074,o),
(312,1074,c),
(312,924,l)
);
},
{
closed = 1;
nodes = (
(459,0,o),
(580,121,o),
(580,268,c),
(430,268,l),
(430,204,o),
(376,150,o),
(312,150,cs),
(244,150,o),
(190,204,o),
(190,268,c),
(40,268,l),
(40,121,o),
(161,0,o),
(312,0,cs)
);
}
);
width = 620;
}
);
unicode = 51;
},
{
glyphname = four;
kernLeft = "20";
kernRight = "20";
lastChange = "2024-04-18 14:55:36 +0000";
layers = (
{
hints = (
{
name = _corner.serif;
options = 1;
origin = (2,0);
scale = (-1,1);
type = Corner;
}
);
layerId = "9BFADF9A-1221-4846-BC6F-4F7BEE8BA661";
shapes = (
{
closed = 1;
nodes = (
(459,454,o),
(580,575,o),
(580,723,c),
(430,723,l),
(430,658,o),
(376,604,o),
(312,604,cs),
(244,604,o),
(190,658,o),
(190,723,c),
(40,723,l),
(40,575,o),
(161,454,o),
(312,454,cs)
);
},
{
closed = 1;
nodes = (
(190,723,l),
(190,1461,l),
(40,1461,l),
(40,723,l)
);
},
{
closed = 1;
nodes = (
(580,0,l),
(580,1461,l),
(430,1461,l),
(430,0,l)
);
}
);
width = 670;
}
);
unicode = 52;
},
{
glyphname = five;
kernLeft = "20";
kernRight = "20";
lastChange = "2024-04-18 14:55:36 +0000";
layers = (
{
layerId = "9BFADF9A-1221-4846-BC6F-4F7BEE8BA661";
shapes = (
{
closed = 1;
nodes = (
(456,0,o),
(577,121,o),
(577,268,cs),
(577,924,ls),
(577,1072,o),
(456,1193,o),
(309,1193,cs),
(265,1193,o),
(224,1179,o),
(190,1157,c),
(190,1311,l),
(427,1311,l),
(427,1461,l),
(40,1461,l),
(40,924,l),
(190,924,l),
(190,989,o),
(244,1043,o),
(309,1043,cs),
(373,1043,o),
(427,989,o),
(427,924,cs),
(427,268,ls),
(427,204,o),
(373,150,o),
(309,150,cs),
(263,150,o),
(221,168,o),
(191,199,c),
(86,94,l),
(143,35,o),
(222,0,o),
(309,0,cs)
);
}
);
width = 617;
}
);
unicode = 53;
},
{
glyphname = six;
kernLeft = "20";
kernRight = "20";
lastChange = "2024-04-18 14:55:36 +0000";
layers = (
{
layerId = "9BFADF9A-1221-4846-BC6F-4F7BEE8BA661";
shapes = (
{
closed = 1;
nodes = (
(190,268,l),
(190,333,o),
(244,387,o),
(309,387,cs),
(376,387,o),
(430,333,o),
(430,268,c),
(580,268,l),
(580,416,o),
(459,537,o),
(309,537,cs),
(161,537,o),
(40,416,o),
(40,268,c)
);
},
{
closed = 1;
nodes = (
(459,0,o),
(580,121,o),
(580,268,c),
(430,268,l),
(430,204,o),
(376,150,o),
(309,150,cs),
(244,150,o),
(190,204,o),
(190,268,c),
(40,268,l),
(40,121,o),
(161,0,o),
(309,0,cs)
);
},
{
closed = 1;
nodes = (
(190,268,l),
(190,1193,l),
(40,1193,l),
(40,268,l)
);
},
{
closed = 1;
nodes = (
(190,1193,l),
(190,1257,o),
(244,1311,o),
(309,1311,c),
(309,1461,l),
(161,1461,o),
(40,1340,o),
(40,1193,c)
);
}
);
width = 620;
}
);
unicode = 54;
},
{
glyphname = seven;
kernLeft = "20";
kernRight = "20";
lastChange = "2024-04-18 14:55:36 +0000";
layers = (
{
hints = (
{
name = _corner.serif;
options = 1;
origin = (3,2);
scale = (-1,1);
type = Corner;
}
);
layerId = "9BFADF9A-1221-4846-BC6F-4F7BEE8BA661";
shapes = (
{
closed = 1;
nodes = (
(40,1461,l),
(40,1311,l),
(577,1311,l),
(577,1461,l)
);
},
{
closed = 1;
nodes = (
(427,1311,l),
(427,1246,o),
(373,1193,o),
(309,1193,c),
(309,1043,l),
(456,1043,o),
(577,1163,o),
(577,1311,c)
);
},
{
closed = 1;
nodes = (
(161,1193,o),
(40,1072,o),
(40,924,c),
(190,924,l),
(190,989,o),
(244,1043,o),
(309,1043,c),
(309,1193,l)
);
},
{
closed = 1;
nodes = (
(40,924,l),
(40,0,l),
(190,0,l),
(190,924,l)
);
}
);
width = 617;
}
);
unicode = 55;
},
{
glyphname = eight;
kernLeft = "20";
kernRight = "20";
lastChange = "2024-04-18 14:55:36 +0000";
layers = (
{
layerId = "9BFADF9A-1221-4846-BC6F-4F7BEE8BA661";
shapes = (
{
closed = 1;
nodes = (
(459,0,o),
(580,121,o),
(580,268,cs),
(580,806,ls),
(580,883,o),
(545,952,o),
(493,1000,c),
(545,1047,o),
(580,1117,o),
(580,1193,cs),
(580,1340,o),
(459,1461,o),
(312,1461,cs),
(161,1461,o),
(40,1340,o),
(40,1193,cs),
(40,1117,o),
(76,1047,o),
(128,1000,c),
(76,952,o),
(40,883,o),
(40,806,cs),
(40,268,ls),
(40,121,o),
(161,0,o),
(312,0,cs)
);
},
{
closed = 1;
nodes = (
(244,150,o),
(190,204,o),
(190,268,cs),
(190,806,ls),
(190,871,o),
(244,924,o),
(312,924,cs),
(376,924,o),
(430,871,o),
(430,806,cs),
(430,268,ls),
(430,204,o),
(376,150,o),
(312,150,cs)
);
},
{
closed = 1;
nodes = (
(244,1074,o),
(190,1128,o),
(190,1193,cs),
(190,1257,o),
(244,1311,o),
(312,1311,cs),
(376,1311,o),
(430,1257,o),
(430,1193,cs),
(430,1128,o),
(376,1074,o),
(312,1074,cs)
);
}
);
width = 620;
}
);
unicode = 56;
},
{
glyphname = nine;
kernLeft = "20";
kernRight = "20";
lastChange = "2024-04-18 14:55:36 +0000";
layers = (
{
layerId = "9BFADF9A-1221-4846-BC6F-4F7BEE8BA661";
shapes = (
{
closed = 1;
nodes = (
(190,1193,l),
(190,1257,o),
(244,1311,o),
(312,1311,cs),
(376,1311,o),
(430,1257,o),
(430,1193,c),
(580,1193,l),
(580,1340,o),
(459,1461,o),
(312,1461,cs),
(161,1461,o),
(40,1340,o),
(40,1193,c)
);
},
{
closed = 1;
nodes = (
(459,0,o),
(580,121,o),
(580,268,c),
(430,268,l),
(430,204,o),
(376,150,o),
(312,150,c),
(312,0,l)
);
},
{
closed = 1;
nodes = (
(580,268,l),
(580,1193,l),
(430,1193,l),
(430,268,l)
);
},
{
closed = 1;
nodes = (
(459,924,o),
(580,1045,o),
(580,1193,c),
(430,1193,l),
(430,1128,o),
(376,1074,o),
(312,1074,cs),
(244,1074,o),
(190,1128,o),
(190,1193,c),
(40,1193,l),
(40,1045,o),
(161,924,o),
(312,924,cs)
);
}
);
width = 620;
}
);
unicode = 57;
},
{
glyphname = onesuperior;
kernLeft = "20";
kernRight = "20";
lastChange = "2024-04-18 14:55:36 +0000";
layers = (
{
layerId = "9BFADF9A-1221-4846-BC6F-4F7BEE8BA661";
shapes = (
{
closed = 1;
nodes = (
(40,1688,l),
(83,1688,o),
(119,1653,o),
(119,1611,c),
(187,1611,l),
(187,1691,o),
(122,1757,o),
(40,1757,c)
);
},
{
closed = 1;
nodes = (
(187,1165,l),
(187,1611,l),
(119,1611,l),
(119,1165,l)
);
}
);
width = 227;
}
);
unicode = 185;
userData = {
KernOnSpecialSpacing = {
L = superiors;
R = superiors;
};
};
},
{
glyphname = twosuperior;
kernLeft = "20";
kernRight = "20";
lastChange = "2024-04-18 14:55:36 +0000";
layers = (
{
layerId = "9BFADF9A-1221-4846-BC6F-4F7BEE8BA661";
shapes = (
{
closed = 1;
nodes = (
(109,1611,l),
(109,1654,o),
(143,1690,o),
(188,1690,cs),
(230,1690,o),
(266,1654,o),
(266,1611,c),
(335,1611,l),
(335,1691,o),
(268,1757,o),
(188,1757,cs),
(105,1757,o),
(40,1691,o),
(40,1611,c)
);
},
{
closed = 1;
nodes = (
(335,1165,l),
(335,1233,l),
(42,1233,l),
(42,1165,l)
);
},
{
closed = 1;
nodes = (
(110,1233,l),
(110,1275,o),
(145,1311,o),
(188,1311,c),
(188,1380,l),
(108,1380,o),
(42,1314,o),
(42,1233,c)
);
},
{
closed = 1;
nodes = (
(268,1311,o),
(335,1376,o),
(335,1458,c),
(266,1458,l),
(266,1414,o),
(230,1380,o),
(188,1380,c),
(188,1311,l)
);
},
{
closed = 1;
nodes = (
(335,1458,l),
(335,1611,l),
(266,1611,l),
(266,1458,l)
);
}
);
width = 375;
}
);
unicode = 178;
userData = {
KernOnSpecialSpacing = {
L = superiors;
R = superiors;
};
};
},
{
glyphname = threesuperior;
kernLeft = "20";
kernRight = "20";
lastChange = "2024-04-18 14:55:36 +0000";
layers = (
{
layerId = "9BFADF9A-1221-4846-BC6F-4F7BEE8BA661";
shapes = (
{
closed = 1;
nodes = (
(109,1611,l),
(109,1654,o),
(143,1690,o),
(188,1690,cs),
(230,1690,o),
(266,1654,o),
(266,1611,c),
(335,1611,l),
(335,1691,o),
(268,1757,o),
(188,1757,cs),
(105,1757,o),
(40,1691,o),
(40,1611,c)
);
},
{
closed = 1;
nodes = (
(335,1311,l),
(335,1388,l),
(266,1388,l),
(266,1311,l)
);
},
{
closed = 1;
nodes = (
(335,1388,l),
(335,1469,o),
(268,1533,o),
(188,1533,c),
(188,1465,l),
(230,1465,o),
(266,1430,o),
(266,1388,c)
);
},
{
closed = 1;
nodes = (
(268,1465,o),
(335,1531,o),
(335,1611,c),
(266,1611,l),
(266,1569,o),
(230,1533,o),
(188,1533,c),
(188,1465,l)
);
},
{
closed = 1;
nodes = (
(268,1165,o),
(335,1231,o),
(335,1311,c),
(266,1311,l),
(266,1268,o),
(230,1233,o),
(188,1233,cs),
(143,1233,o),
(109,1268,o),
(109,1311,c),
(40,1311,l),
(40,1231,o),
(105,1165,o),
(188,1165,cs)
);
}
);
width = 375;
}
);
unicode = 179;
userData = {
KernOnSpecialSpacing = {
L = superiors;
R = superiors;
};
};
},
{
glyphname = .notdef;
lastChange = "2024-04-18 14:55:36 +0000";
layers = (
{
layerId = "9BFADF9A-1221-4846-BC6F-4F7BEE8BA661";
shapes = (
{
closed = 1;
nodes = (
(228,610,o),
(285,663,o),
(285,731,cs),
(285,798,o),
(228,851,o),
(161,851,cs),
(94,851,o),
(40,798,o),
(40,731,cs),
(40,663,o),
(94,610,o),
(161,610,cs)
);
},
{
closed = 1;
nodes = (
(119,655,o),
(85,688,o),
(85,731,cs),
(85,773,o),
(119,806,o),
(161,806,cs),
(203,806,o),
(240,773,o),
(240,731,cs),
(240,688,o),
(203,655,o),
(161,655,cs)
);
},
{
closed = 1;
nodes = (
(397,610,o),
(417,618,o),
(431,632,c),
(400,663,l),
(394,658,o),
(383,655,o),
(375,655,cs),
(355,655,o),
(335,672,o),
(335,691,cs),
(335,711,o),
(355,728,o),
(375,728,cs),
(383,728,o),
(394,725,o),
(400,719,c),
(431,750,l),
(417,764,o),
(397,773,o),
(375,773,cs),
(330,773,o),
(290,736,o),
(290,691,cs),
(290,646,o),
(330,610,o),
(375,610,cs)
);
},
{
closed = 1;
nodes = (
(493,610,l),
(493,691,ls),
(493,711,o),
(509,728,o),
(532,728,cs),
(552,728,o),
(568,711,o),
(568,691,cs),
(568,610,l),
(613,610,l),
(613,691,ls),
(613,736,o),
(574,773,o),
(532,773,cs),
(515,773,o),
(504,770,o),
(493,764,c),
(493,851,l),
(448,851,l),
(448,610,l)
);
},
{
closed = 1;
nodes = (
(706,655,l),
(687,655,o),
(670,672,o),
(670,691,cs),
(670,711,o),
(687,728,o),
(706,728,cs),
(726,728,o),
(746,711,o),
(746,691,cs),
(746,610,l),
(790,610,l),
(790,691,ls),
(790,736,o),
(751,773,o),
(706,773,cs),
(661,773,o),
(625,736,o),
(625,691,cs),
(625,646,o),
(661,610,o),
(706,610,c)
);
},
{
closed = 1;
nodes = (
(852,610,l),
(852,641,l),
(861,632,o),
(875,632,o),
(889,632,cs),
(897,632,o),
(906,632,o),
(914,635,c),
(923,629,o),
(925,618,o),
(925,610,c),
(970,610,l),
(970,629,o),
(965,646,o),
(951,660,c),
(965,677,o),
(970,694,o),
(970,714,cs),
(970,773,l),
(925,773,l),
(925,714,ls),
(925,694,o),
(908,677,o),
(889,677,cs),
(869,677,o),
(852,694,o),
(852,714,cs),
(852,851,l),
(807,851,l),
(807,610,l)
);
},
{
closed = 1;
nodes = (
(1108,610,o),
(1145,646,o),
(1145,691,cs),
(1145,736,o),
(1108,773,o),
(1063,773,cs),
(1018,773,o),
(982,736,o),
(982,691,cs),
(982,646,o),
(1018,610,o),
(1063,610,cs)
);
},
{
closed = 1;
nodes = (
(1043,655,o),
(1027,672,o),
(1027,691,cs),
(1027,711,o),
(1043,728,o),
(1063,728,cs),
(1083,728,o),
(1100,711,o),
(1100,691,cs),
(1100,672,o),
(1083,655,o),
(1063,655,cs)
);
},
{
closed = 1;
nodes = (
(1232,610,o),
(1243,610,o),
(1251,613,c),
(1305,773,l),
(1260,773,l),
(1223,663,l),
(1184,773,l),
(1142,773,l),
(1195,613,l),
(1204,610,o),
(1212,610,o),
(1223,610,cs)
);
}
);
width = 1345;
}
);
},
{
glyphname = period;
kernLeft = "20";
kernRight = "20";
lastChange = "2024-04-18 14:55:36 +0000";
layers = (
{
layerId = "9BFADF9A-1221-4846-BC6F-4F7BEE8BA661";
shapes = (
{
closed = 1;
nodes = (
(190,0,l),
(190,150,l),
(40,150,l),
(40,0,l)
);
}
);
width = 230;
}
);
unicode = 46;
userData = {
KernOnSpecialSpacing = {
L = period;
R = period;
};
};
},
{
glyphname = comma;
kernLeft = "20";
kernRight = "20";
lastChange = "2024-04-18 14:55:36 +0000";
layers = (
{
layerId = "9BFADF9A-1221-4846-BC6F-4F7BEE8BA661";
shapes = (
{
closed = 1;
nodes = (
(210,-151,o),
(243,-71,o),
(242,13,cs),
(242,150,l),
(92,150,l),
(92,13,ls),
(92,-33,o),
(73,-75,o),
(40,-108,c),
(147,-212,l)
);
}
);
width = 282;
}
);
unicode = 44;
userData = {
KernOnSpecialSpacing = {
L = period;
R = period;
};
};
},
{
glyphname = colon;
kernLeft = "20";
kernRight = "20";
lastChange = "2024-04-18 14:55:36 +0000";
layers = (
{
layerId = "9BFADF9A-1221-4846-BC6F-4F7BEE8BA661";
shapes = (
{
closed = 1;
nodes = (
(190,775,l),
(190,925,l),
(40,925,l),
(40,775,l)
);
},
{
closed = 1;
nodes = (
(190,0,l),
(190,150,l),
(40,150,l),
(40,0,l)
);
}
);
width = 230;
}
);
unicode = 58;
userData = {
KernOnSpecialSpacing = {
L = "spaced-off";
R = "spaced-off";
};
};
},
{
glyphname = semicolon;
kernLeft = "20";
kernRight = "20";
lastChange = "2024-04-18 14:55:36 +0000";
layers = (
{
layerId = "9BFADF9A-1221-4846-BC6F-4F7BEE8BA661";
shapes = (
{
closed = 1;
nodes = (
(210,-151,o),
(243,-71,o),
(242,13,cs),
(242,150,l),
(92,150,l),
(92,13,ls),
(92,-33,o),
(73,-75,o),
(40,-108,c),
(147,-212,l)
);
},
{
closed = 1;
nodes = (
(242,775,l),
(242,925,l),
(92,925,l),
(92,775,l)
);
}
);
width = 282;
}
);
unicode = 59;
userData = {
KernOnSpecialSpacing = {
L = "spaced-off";
R = "spaced-off";
};
};
},
{
glyphname = ellipsis;
kernLeft = "20";
kernRight = "20";
lastChange = "2024-04-18 14:55:36 +0000";
layers = (
{
layerId = "9BFADF9A-1221-4846-BC6F-4F7BEE8BA661";
shapes = (
{
closed = 1;
nodes = (
(659,0,l),
(659,150,l),
(509,150,l),
(509,0,l)
);
},
{
closed = 1;
nodes = (
(190,0,l),
(190,150,l),
(40,150,l),
(40,0,l)
);
},
{
closed = 1;
nodes = (
(425,0,l),
(425,150,l),
(275,150,l),
(275,0,l)
);
}
);
width = 699;
}
);
unicode = 8230;
},
{
glyphname = exclam;
kernLeft = "20";
kernRight = "20";
lastChange = "2024-04-18 14:55:36 +0000";
layers = (
{
layerId = "9BFADF9A-1221-4846-BC6F-4F7BEE8BA661";
shapes = (
{
closed = 1;
nodes = (
(190,298,l),
(190,1461,l),
(40,1461,l),
(40,298,l)
);
},
{
closed = 1;
nodes = (
(190,0,l),
(190,150,l),
(40,150,l),
(40,0,l)
);
}
);
width = 230;
}
);
unicode = 33;
userData = {
KernOnSpecialSpacing = {
L = "spaced-off";
};
};
},
{
glyphname = exclamdown;
kernLeft = "20";
kernRight = "20";
lastChange = "2024-04-18 14:55:36 +0000";
layers = (
{
layerId = "9BFADF9A-1221-4846-BC6F-4F7BEE8BA661";
shapes = (
{
closed = 1;
nodes = (
(190,0,l),
(190,1164,l),
(40,1164,l),
(40,0,l)
);
},
{
closed = 1;
nodes = (
(190,1311,l),
(190,1461,l),
(40,1461,l),
(40,1311,l)
);
}
);
width = 230;
}
);
unicode = 161;
userData = {
KernOnSpecialSpacing = {
R = "spaced-off";
};
};
},
{
glyphname = question;
kernLeft = "20";
kernRight = "20";
lastChange = "2024-04-18 14:55:36 +0000";
layers = (
{
layerId = "9BFADF9A-1221-4846-BC6F-4F7BEE8BA661";
shapes = (
{
closed = 1;
nodes = (
(190,1193,l),
(190,1257,o),
(244,1311,o),
(312,1311,cs),
(376,1311,o),
(430,1257,o),
(430,1193,c),
(580,1193,l),
(580,1340,o),
(459,1461,o),
(312,1461,cs),
(161,1461,o),
(40,1340,o),
(40,1193,c)
);
},
{
closed = 1;
nodes = (
(387,0,l),
(387,150,l),
(237,150,l),
(237,0,l)
);
},
{
closed = 1;
nodes = (
(387,298,l),
(387,628,l),
(237,628,l),
(237,298,l)
);
},
{
closed = 1;
nodes = (
(459,478,o),
(580,599,o),
(580,746,c),
(430,746,l),
(430,682,o),
(376,628,o),
(312,628,c),
(312,478,l)
);
},
{
closed = 1;
nodes = (
(580,746,l),
(580,1193,l),
(430,1193,l),
(430,746,l)
);
}
);
width = 620;
}
);
unicode = 63;
userData = {
KernOnSpecialSpacing = {
L = "spaced-off";
};
};
},
{
glyphname = questiondown;
kernLeft = "20";
kernRight = "20";
lastChange = "2024-04-18 14:55:36 +0000";
layers = (
{
layerId = "9BFADF9A-1221-4846-BC6F-4F7BEE8BA661";
shapes = (
{
closed = 1;
nodes = (
(459,0,o),
(580,121,o),
(580,268,c),
(430,268,l),
(430,204,o),
(376,150,o),
(309,150,cs),
(244,150,o),
(190,204,o),
(190,268,c),
(40,268,l),
(40,121,o),
(161,0,o),
(309,0,cs)
);
},
{
closed = 1;
nodes = (
(190,268,l),
(190,715,l),
(40,715,l),
(40,268,l)
);
},
{
closed = 1;
nodes = (
(190,715,l),
(190,780,o),
(244,834,o),
(309,834,c),
(309,984,l),
(161,984,o),
(40,863,o),
(40,715,c)
);
},
{
closed = 1;
nodes = (
(383,834,l),
(383,1164,l),
(233,1164,l),
(233,834,l)
);
},
{
closed = 1;
nodes = (
(383,1311,l),
(383,1461,l),
(233,1461,l),
(233,1311,l)
);
}
);
width = 620;
}
);
unicode = 191;
userData = {
KernOnSpecialSpacing = {
R = "spaced-off";
};
};
},
{
glyphname = bullet;
kernLeft = "20";
kernRight = "20";
lastChange = "2024-04-18 14:55:36 +0000";
layers = (
{
layerId = "9BFADF9A-1221-4846-BC6F-4F7BEE8BA661";
shapes = (
{
closed = 1;
nodes = (
(211,383,o),
(261,432,o),
(261,494,cs),
(261,553,o),
(211,603,o),
(151,603,cs),
(90,603,o),
(40,553,o),
(40,494,cs),
(40,432,o),
(90,383,o),
(151,383,cs)
);
}
);
width = 301;
}
);
unicode = 8226;
userData = {
KernOnSpecialSpacing = {
L = NoKerning;
R = NoKerning;
};
};
},
{
glyphname = asterisk;
kernLeft = "20";
kernRight = "20";
lastChange = "2024-04-18 14:55:36 +0000";
layers = (
{
layerId = "9BFADF9A-1221-4846-BC6F-4F7BEE8BA661";
shapes = (
{
closed = 1;
nodes = (
(444,1529,l),
(389,1599,l),
(55,1395,l),
(109,1327,l)
);
},
{
closed = 1;
nodes = (
(384,1323,l),
(182,1658,l),
(112,1602,l),
(315,1269,l)
);
},
{
closed = 1;
nodes = (
(433,1371,l),
(443,1460,l),
(64,1552,l),
(54,1464,l)
);
},
{
closed = 1;
nodes = (
(246,1268,l),
(338,1649,l),
(251,1658,l),
(159,1278,l)
);
}
);
width = 498;
}
);
unicode = 42;
userData = {
KernOnSpecialSpacing = {
L = quotes;
R = quotes;
};
};
},
{
glyphname = numbersign;
kernLeft = "20";
kernRight = "20";
lastChange = "2024-04-18 14:55:36 +0000";
layers = (
{
layerId = "9BFADF9A-1221-4846-BC6F-4F7BEE8BA661";
shapes = (
{
closed = 1;
nodes = (
(501,0,l),
(990,1461,l),
(840,1461,l),
(351,0,l)
);
},
{
closed = 1;
nodes = (
(787,500,l),
(837,650,l),
(137,650,l),
(87,500,l)
);
},
{
closed = 1;
nodes = (
(190,0,l),
(679,1461,l),
(529,1461,l),
(40,0,l)
);
},
{
closed = 1;
nodes = (
(889,812,l),
(939,962,l),
(239,962,l),
(189,812,l)
);
}
);
width = 1030;
}
);
unicode = 35;
},
{
glyphname = slash;
kernLeft = "20";
kernRight = "20";
lastChange = "2024-04-18 14:55:36 +0000";
layers = (
{
layerId = "9BFADF9A-1221-4846-BC6F-4F7BEE8BA661";
shapes = (
{
closed = 1;
nodes = (
(190,0,l),
(679,1461,l),
(529,1461,l),
(40,0,l)
);
}
);
width = 719;
}
);
unicode = 47;
userData = {
KernOnSpecialSpacing = {
L = slash;
R = slash;
};
};
},
{
glyphname = backslash;
kernLeft = "20";
kernRight = "20";
lastChange = "2024-04-18 14:55:36 +0000";
layers = (
{
layerId = "9BFADF9A-1221-4846-BC6F-4F7BEE8BA661";
shapes = (
{
closed = 1;
nodes = (
(679,0,l),
(190,1461,l),
(40,1461,l),
(529,0,l)
);
}
);
width = 719;
}
);
unicode = 92;
userData = {
KernOnSpecialSpacing = {
L = "spaced-off";
R = "spaced-off";
};
};
},
{
glyphname = hyphen;
kernLeft = "20";
kernRight = "20";
lastChange = "2024-04-18 14:55:36 +0000";
layers = (
{
layerId = "9BFADF9A-1221-4846-BC6F-4F7BEE8BA661";
shapes = (
{
closed = 1;
nodes = (
(396,657,l),
(396,806,l),
(40,806,l),
(40,657,l)
);
}
);
width = 436;
}
);
unicode = 45;
userData = {
KernOnSpecialSpacing = {
L = hyphen;
R = hyphen;
};
};
},
{
glyphname = endash;
kernLeft = "20";
kernRight = "20";
lastChange = "2024-04-18 14:55:36 +0000";
layers = (
{
layerId = "9BFADF9A-1221-4846-BC6F-4F7BEE8BA661";
shapes = (
{
closed = 1;
nodes = (
(580,657,l),
(580,806,l),
(40,806,l),
(40,657,l)
);
}
);
width = 620;
}
);
unicode = 8211;
userData = {
KernOnSpecialSpacing = {
L = dashes;
R = dashes;
};
};
},
{
glyphname = emdash;
kernLeft = "20";
kernRight = "20";
lastChange = "2024-04-18 14:55:36 +0000";
layers = (
{
layerId = "9BFADF9A-1221-4846-BC6F-4F7BEE8BA661";
shapes = (
{
closed = 1;
nodes = (
(777,657,l),
(777,806,l),
(40,806,l),
(40,657,l)
);
}
);
width = 817;
}
);
unicode = 8212;
userData = {
KernOnSpecialSpacing = {
L = dashes;
R = dashes;
};
};
},
{
glyphname = parenleft;
kernLeft = "20";
kernRight = "20";
lastChange = "2024-04-18 14:55:36 +0000";
layers = (
{
layerId = "9BFADF9A-1221-4846-BC6F-4F7BEE8BA661";
shapes = (
{
closed = 1;
nodes = (
(357,150,l),
(265,150,o),
(190,225,o),
(190,316,cs),
(190,1145,ls),
(190,1236,o),
(265,1311,o),
(357,1311,c),
(357,1461,l),
(182,1461,o),
(40,1319,o),
(40,1145,cs),
(40,316,ls),
(40,142,o),
(182,0,o),
(357,0,c)
);
}
);
width = 398;
}
);
unicode = 40;
userData = {
KernOnSpecialSpacing = {
R = parenthesis;
};
};
},
{
glyphname = parenright;
kernLeft = "20";
kernRight = "20";
lastChange = "2024-04-18 14:55:36 +0000";
layers = (
{
layerId = "9BFADF9A-1221-4846-BC6F-4F7BEE8BA661";
shapes = (
{
closed = 1;
nodes = (
(215,0,o),
(357,142,o),
(357,316,cs),
(357,1145,ls),
(357,1319,o),
(215,1461,o),
(40,1461,c),
(40,1311,l),
(132,1311,o),
(207,1236,o),
(207,1145,cs),
(207,316,ls),
(207,225,o),
(132,150,o),
(40,150,c),
(40,0,l)
);
}
);
width = 398;
}
);
unicode = 41;
userData = {
KernOnSpecialSpacing = {
L = parenthesis;
};
};
},
{
glyphname = braceleft;
kernLeft = "20";
kernRight = "20";
lastChange = "2024-04-18 14:55:36 +0000";
layers = (
{
layerId = "9BFADF9A-1221-4846-BC6F-4F7BEE8BA661";
shapes = (
{
closed = 1;
nodes = (
(484,150,l),
(392,150,o),
(317,225,o),
(317,316,cs),
(317,1145,ls),
(317,1236,o),
(392,1311,o),
(484,1311,c),
(484,1461,l),
(309,1461,o),
(167,1319,o),
(167,1145,cs),
(167,807,l),
(40,807,l),
(40,658,l),
(167,658,l),
(167,316,ls),
(167,142,o),
(309,0,o),
(484,0,c)
);
}
);
width = 524;
}
);
unicode = 123;
userData = {
KernOnSpecialSpacing = {
R = parenthesis;
};
};
},
{
glyphname = braceright;
kernLeft = "20";
kernRight = "20";
lastChange = "2024-04-18 14:55:36 +0000";
layers = (
{
layerId = "9BFADF9A-1221-4846-BC6F-4F7BEE8BA661";
shapes = (
{
closed = 1;
nodes = (
(215,0,o),
(357,142,o),
(357,316,cs),
(357,658,l),
(484,658,l),
(484,807,l),
(357,807,l),
(357,1145,ls),
(357,1319,o),
(215,1461,o),
(40,1461,c),
(40,1311,l),
(132,1311,o),
(207,1236,o),
(207,1145,cs),
(207,316,ls),
(207,225,o),
(132,150,o),
(40,150,c),
(40,0,l)
);
}
);
width = 524;
}
);
unicode = 125;
userData = {
KernOnSpecialSpacing = {
L = parenthesis;
};
};
},
{
glyphname = bracketleft;
kernLeft = "20";
kernRight = "20";
lastChange = "2024-04-18 14:55:36 +0000";
layers = (
{
layerId = "9BFADF9A-1221-4846-BC6F-4F7BEE8BA661";
shapes = (
{
closed = 1;
nodes = (
(190,0,l),
(190,1461,l),
(40,1461,l),
(40,0,l)
);
},
{
closed = 1;
nodes = (
(422,0,l),
(422,150,l),
(40,150,l),
(40,0,l)
);
},
{
closed = 1;
nodes = (
(422,1311,l),
(422,1461,l),
(40,1461,l),
(40,1311,l)
);
}
);
width = 462;
}
);
unicode = 91;
userData = {
KernOnSpecialSpacing = {
L = NoKerning;
R = parenthesis;
};
};
},
{
glyphname = bracketright;
kernLeft = "20";
kernRight = "20";
lastChange = "2024-04-18 14:55:36 +0000";
layers = (
{
layerId = "9BFADF9A-1221-4846-BC6F-4F7BEE8BA661";
shapes = (
{
closed = 1;
nodes = (
(422,0,l),
(422,1461,l),
(272,1461,l),
(272,0,l)
);
},
{
closed = 1;
nodes = (
(422,0,l),
(422,150,l),
(40,150,l),
(40,0,l)
);
},
{
closed = 1;
nodes = (
(422,1311,l),
(422,1461,l),
(40,1461,l),
(40,1311,l)
);
}
);
width = 462;
}
);
unicode = 93;
userData = {
KernOnSpecialSpacing = {
L = parenthesis;
R = NoKerning;
};
};
},
{
glyphname = guillemetleft;
kernLeft = "20";
kernRight = "20";
lastChange = "2024-04-18 14:55:36 +0000";
layers = (
{
layerId = "9BFADF9A-1221-4846-BC6F-4F7BEE8BA661";
shapes = (
{
closed = 1;
nodes = (
(214,418,o),
(356,560,o),
(356,733,c),
(206,733,l),
(206,643,o),
(131,568,o),
(40,568,c),
(40,418,l)
);
},
{
closed = 1;
nodes = (
(356,252,l),
(356,426,o),
(214,568,o),
(40,568,c),
(40,418,l),
(131,418,o),
(206,343,o),
(206,252,c)
);
},
{
closed = 1;
nodes = (
(571,253,l),
(571,370,o),
(532,477,o),
(465,561,c),
(325,494,l),
(385,431,o),
(421,346,o),
(421,253,c)
);
},
{
closed = 1;
nodes = (
(532,508,o),
(571,617,o),
(571,733,c),
(421,733,l),
(421,640,o),
(385,557,o),
(325,494,c),
(464,423,l)
);
}
);
width = 611;
}
);
unicode = 171;
userData = {
KernOnSpecialSpacing = {
L = quotes;
R = quotes;
};
};
},
{
glyphname = guillemetright;
kernLeft = "20";
kernRight = "20";
lastChange = "2024-04-18 14:55:36 +0000";
layers = (
{
layerId = "9BFADF9A-1221-4846-BC6F-4F7BEE8BA661";
shapes = (
{
closed = 1;
nodes = (
(571,568,l),
(481,568,o),
(405,643,o),
(405,733,c),
(256,733,l),
(256,560,o),
(398,418,o),
(571,418,c)
);
},
{
closed = 1;
nodes = (
(190,253,l),
(190,346,o),
(228,431,o),
(287,494,c),
(147,561,l),
(80,477,o),
(40,370,o),
(40,253,c)
);
},
{
closed = 1;
nodes = (
(405,252,l),
(405,343,o),
(481,418,o),
(571,418,c),
(571,568,l),
(398,568,o),
(256,426,o),
(256,252,c)
);
},
{
closed = 1;
nodes = (
(287,494,l),
(228,557,o),
(190,640,o),
(190,733,c),
(40,733,l),
(40,617,o),
(80,508,o),
(148,423,c)
);
}
);
width = 611;
}
);
unicode = 187;
userData = {
KernOnSpecialSpacing = {
L = quotes;
R = quotes;
};
};
},
{
glyphname = guilsinglleft;
kernLeft = "20";
kernRight = "20";
lastChange = "2024-04-18 14:55:36 +0000";
layers = (
{
layerId = "9BFADF9A-1221-4846-BC6F-4F7BEE8BA661";
shapes = (
{
closed = 1;
nodes = (
(214,418,o),
(356,560,o),
(356,733,c),
(206,733,l),
(206,643,o),
(131,568,o),
(40,568,c),
(40,418,l)
);
},
{
closed = 1;
nodes = (
(356,252,l),
(356,426,o),
(214,568,o),
(40,568,c),
(40,418,l),
(131,418,o),
(206,343,o),
(206,252,c)
);
}
);
width = 396;
}
);
unicode = 8249;
userData = {
KernOnSpecialSpacing = {
L = quotes;
R = quotes;
};
};
},
{
glyphname = guilsinglright;
kernLeft = "20";
kernRight = "20";
lastChange = "2024-04-18 14:55:36 +0000";
layers = (
{
layerId = "9BFADF9A-1221-4846-BC6F-4F7BEE8BA661";
shapes = (
{
closed = 1;
nodes = (
(356,568,l),
(265,568,o),
(190,643,o),
(190,733,c),
(40,733,l),
(40,560,o),
(182,418,o),
(356,418,c)
);
},
{
closed = 1;
nodes = (
(190,252,l),
(190,343,o),
(265,418,o),
(356,418,c),
(356,568,l),
(182,568,o),
(40,426,o),
(40,252,c)
);
}
);
width = 396;
}
);
unicode = 8250;
userData = {
KernOnSpecialSpacing = {
L = quotes;
R = quotes;
};
};
},
{
glyphname = quotesingle;
kernLeft = "20";
kernRight = "20";
lastChange = "2024-04-18 14:55:36 +0000";
layers = (
{
layerId = "9BFADF9A-1221-4846-BC6F-4F7BEE8BA661";
shapes = (
{
closed = 1;
nodes = (
(190,1225,l),
(190,1698,l),
(40,1698,l),
(40,1225,l)
);
}
);
width = 230;
}
);
unicode = 39;
userData = {
KernOnSpecialSpacing = {
L = quotes;
R = quotes;
};
};
},
{
glyphname = at;
kernLeft = "20";
kernRight = "20";
lastChange = "2024-04-18 14:55:36 +0000";
layers = (
{
layerId = "9BFADF9A-1221-4846-BC6F-4F7BEE8BA661";
shapes = (
{
closed = 1;
nodes = (
(190,731,l),
(190,919,o),
(344,1072,o),
(532,1072,cs),
(721,1072,o),
(874,919,o),
(874,731,c),
(1024,731,l),
(1024,1000,o),
(802,1222,o),
(532,1222,cs),
(262,1222,o),
(40,1000,o),
(40,731,c)
);
},
{
closed = 1;
nodes = (
(532,-89,l),
(344,-89,o),
(190,64,o),
(190,253,c),
(40,253,l),
(40,-17,o),
(262,-239,o),
(532,-239,c)
);
},
{
closed = 1;
nodes = (
(190,253,l),
(190,731,l),
(40,731,l),
(40,253,l)
);
},
{
closed = 1;
nodes = (
(532,153,l),
(476,153,o),
(431,199,o),
(431,253,c),
(335,253,l),
(335,146,o),
(422,56,o),
(532,56,c)
);
},
{
closed = 1;
nodes = (
(431,253,l),
(431,731,l),
(335,731,l),
(335,253,l)
);
},
{
closed = 1;
nodes = (
(431,731,l),
(431,784,o),
(476,830,o),
(532,830,cs),
(586,830,o),
(632,784,o),
(632,731,c),
(729,731,l),
(729,837,o),
(639,927,o),
(532,927,cs),
(422,927,o),
(335,837,o),
(335,731,c)
);
},
{
closed = 1;
nodes = (
(1024,-239,l),
(1024,731,l),
(874,731,l),
(874,-239,l)
);
},
{
closed = 1;
nodes = (
(632,-239,l),
(729,-239,l),
(729,731,l),
(632,731,l)
);
}
);
width = 1064;
}
);
unicode = 64;
userData = {
KernOnSpecialSpacing = {
L = symbols;
R = symbols;
};
};
},
{
glyphname = ampersand;
kernLeft = "20";
kernRight = "20";
lastChange = "2024-04-18 14:55:36 +0000";
layers = (
{
layerId = "9BFADF9A-1221-4846-BC6F-4F7BEE8BA661";
shapes = (
{
closed = 1;
nodes = (
(40,222,o),
(262,0,o),
(532,0,cs),
(802,0,o),
(1024,222,o),
(1024,492,c),
(874,492,l),
(874,303,o),
(721,150,o),
(532,150,cs),
(344,150,o),
(190,303,o),
(190,492,c),
(40,492,l)
);
},
{
closed = 1;
nodes = (
(868,0,l),
(1024,0,l),
(919,230,l),
(769,217,l)
);
},
{
closed = 1;
nodes = (
(262,986,o),
(37,764,o),
(40,495,cs),
(40,222,o),
(262,0,o),
(532,0,c),
(532,150,l),
(344,150,o),
(190,305,o),
(190,495,cs),
(190,683,o),
(344,836,o),
(532,836,c),
(532,986,l)
);
},
{
closed = 1;
nodes = (
(703,836,o),
(844,978,o),
(844,1149,cs),
(844,1320,o),
(703,1461,o),
(532,1461,cs),
(361,1461,o),
(219,1320,o),
(219,1149,cs),
(219,978,o),
(361,836,o),
(532,836,cs)
);
},
{
closed = 1;
nodes = (
(443,986,o),
(369,1060,o),
(369,1149,cs),
(369,1237,o),
(443,1311,o),
(532,1311,cs),
(620,1311,o),
(694,1237,o),
(694,1149,cs),
(694,1060,o),
(620,986,o),
(532,986,cs)
);
}
);
width = 1064;
}
);
unicode = 38;
userData = {
KernOnSpecialSpacing = {
L = symbols;
R = symbols;
};
};
},
{
glyphname = section;
kernLeft = "20";
kernRight = "20";
lastChange = "2024-04-18 14:55:36 +0000";
layers = (
{
layerId = "9BFADF9A-1221-4846-BC6F-4F7BEE8BA661";
shapes = (
{
closed = 1;
nodes = (
(616,360,o),
(782,525,o),
(782,731,cs),
(782,936,o),
(616,1102,o),
(411,1102,cs),
(206,1102,o),
(40,936,o),
(40,731,cs),
(40,525,o),
(206,360,o),
(411,360,cs)
);
},
{
closed = 1;
nodes = (
(614,-104,o),
(777,59,o),
(777,261,cs),
(777,412,o),
(675,539,o),
(542,570,c),
(534,422,l),
(588,391,o),
(626,330,o),
(626,261,cs),
(626,145,o),
(528,46,o),
(411,46,cs),
(354,46,o),
(301,71,o),
(261,108,c),
(153,3,l),
(220,-65,o),
(310,-104,o),
(411,-104,cs)
);
},
{
closed = 1;
nodes = (
(292,510,o),
(190,611,o),
(190,731,cs),
(190,850,o),
(292,952,o),
(411,952,cs),
(531,952,o),
(632,850,o),
(632,731,cs),
(632,611,o),
(531,510,o),
(411,510,cs)
);
},
{
closed = 1;
nodes = (
(287,1043,l),
(234,1072,o),
(196,1131,o),
(196,1200,cs),
(196,1317,o),
(295,1415,o),
(411,1415,cs),
(468,1415,o),
(522,1390,o),
(561,1353,c),
(670,1458,l),
(602,1526,o),
(512,1565,o),
(411,1565,cs),
(209,1565,o),
(46,1402,o),
(46,1200,cs),
(46,1051,o),
(147,926,o),
(278,894,c)
);
}
);
width = 822;
}
);
unicode = 167;
userData = {
KernOnSpecialSpacing = {
R = symbols;
};
};
},
{
glyphname = copyright;
kernLeft = "20";
kernRight = "20";
lastChange = "2024-04-18 14:55:36 +0000";
layers = (
{
layerId = "9BFADF9A-1221-4846-BC6F-4F7BEE8BA661";
shapes = (
{
closed = 1;
nodes = (
(190,731,l),
(190,919,o),
(344,1072,o),
(532,1072,cs),
(721,1072,o),
(874,919,o),
(874,731,c),
(1024,731,l),
(1024,1000,o),
(802,1222,o),
(532,1222,cs),
(262,1222,o),
(40,1000,o),
(40,731,c)
);
},
{
closed = 1;
nodes = (
(802,-239,o),
(1024,-17,o),
(1024,253,c),
(874,253,l),
(874,64,o),
(721,-89,o),
(532,-89,cs),
(344,-89,o),
(190,64,o),
(190,253,c),
(40,253,l),
(40,-17,o),
(262,-239,o),
(532,-239,cs)
);
},
{
closed = 1;
nodes = (
(190,253,l),
(190,731,l),
(40,731,l),
(40,253,l)
);
},
{
closed = 1;
nodes = (
(639,56,o),
(729,146,o),
(729,253,c),
(632,253,l),
(632,199,o),
(586,153,o),
(532,153,cs),
(476,153,o),
(431,199,o),
(431,253,c),
(335,253,l),
(335,146,o),
(422,56,o),
(532,56,cs)
);
},
{
closed = 1;
nodes = (
(431,253,l),
(431,731,l),
(335,731,l),
(335,253,l)
);
},
{
closed = 1;
nodes = (
(431,731,l),
(431,784,o),
(476,830,o),
(532,830,cs),
(586,830,o),
(632,784,o),
(632,731,c),
(729,731,l),
(729,837,o),
(639,927,o),
(532,927,cs),
(422,927,o),
(335,837,o),
(335,731,c)
);
},
{
closed = 1;
nodes = (
(1024,253,l),
(1024,731,l),
(874,731,l),
(874,253,l)
);
}
);
width = 1064;
}
);
unicode = 169;
userData = {
KernOnSpecialSpacing = {
R = symbols;
};
};
},
{
glyphname = registered;
kernLeft = "20";
kernRight = "20";
lastChange = "2024-04-18 14:55:36 +0000";
layers = (
{
layerId = "9BFADF9A-1221-4846-BC6F-4F7BEE8BA661";
shapes = (
{
closed = 1;
nodes = (
(545,882,o),
(691,1028,o),
(691,1204,cs),
(691,1620,ls),
(691,1796,o),
(545,1941,o),
(369,1941,cs),
(187,1941,o),
(40,1796,o),
(40,1620,cs),
(40,1204,ls),
(40,1028,o),
(187,882,o),
(369,882,cs)
);
},
{
closed = 1;
nodes = (
(509,1153,l),
(509,1232,ls),
(509,1276,o),
(486,1317,o),
(452,1343,c),
(486,1366,o),
(509,1407,o),
(509,1452,c),
(443,1452,l),
(443,1410,o),
(408,1375,o),
(366,1375,c),
(366,1308,l),
(408,1308,o),
(443,1274,o),
(443,1232,cs),
(443,1153,l)
);
},
{
closed = 1;
nodes = (
(235,972,o),
(130,1077,o),
(130,1205,cs),
(130,1620,ls),
(130,1747,o),
(235,1851,o),
(367,1851,cs),
(496,1851,o),
(601,1747,o),
(601,1620,cs),
(601,1204,ls),
(601,1076,o),
(496,972,o),
(367,972,cs)
);
},
{
closed = 1;
nodes = (
(287,1153,l),
(287,1617,ls),
(287,1659,o),
(321,1693,o),
(366,1693,cs),
(408,1693,o),
(443,1659,o),
(443,1617,cs),
(443,1452,l),
(509,1452,l),
(509,1617,ls),
(509,1695,o),
(446,1760,o),
(366,1760,cs),
(285,1760,o),
(222,1695,o),
(222,1617,cs),
(222,1153,l)
);
}
);
width = 731;
}
);
unicode = 174;
userData = {
KernOnSpecialSpacing = {
L = superiors;
};
};
},
{
glyphname = degree;
kernLeft = "20";
kernRight = "20";
lastChange = "2024-04-18 14:55:36 +0000";
layers = (
{
layerId = "9BFADF9A-1221-4846-BC6F-4F7BEE8BA661";
shapes = (
{
closed = 1;
nodes = (
(297,1164,o),
(372,1238,o),
(372,1329,cs),
(372,1595,ls),
(372,1686,o),
(297,1760,o),
(207,1760,cs),
(115,1760,o),
(40,1686,o),
(40,1595,cs),
(40,1329,ls),
(40,1238,o),
(115,1164,o),
(207,1164,cs)
);
},
{
closed = 1;
nodes = (
(152,1232,o),
(109,1275,o),
(109,1329,cs),
(109,1595,ls),
(109,1649,o),
(152,1692,o),
(207,1692,cs),
(260,1692,o),
(304,1649,o),
(304,1595,cs),
(304,1329,ls),
(304,1275,o),
(260,1232,o),
(207,1232,cs)
);
}
);
width = 412;
}
);
unicode = 176;
userData = {
KernOnSpecialSpacing = {
L = superiors;
R = superiors;
};
};
},
{
glyphname = bar;
kernLeft = "20";
kernRight = "20";
lastChange = "2024-04-18 14:55:36 +0000";
layers = (
{
layerId = "9BFADF9A-1221-4846-BC6F-4F7BEE8BA661";
shapes = (
{
closed = 1;
nodes = (
(190,-183,l),
(190,1644,l),
(40,1644,l),
(40,-183,l)
);
}
);
width = 230;
}
);
unicode = 124;
userData = {
KernOnSpecialSpacing = {
L = NoKerning;
R = NoKerning;
};
};
},
{
glyphname = dagger;
lastChange = "2024-04-18 14:55:36 +0000";
layers = (
{
layerId = "9BFADF9A-1221-4846-BC6F-4F7BEE8BA661";
shapes = (
{
closed = 1;
nodes = (
(323,745,l),
(323,1644,l),
(173,1644,l),
(173,745,l)
);
},
{
closed = 1;
nodes = (
(458,1256,l),
(458,1406,l),
(40,1406,l),
(40,1256,l)
);
}
);
width = 498;
}
);
unicode = 8224;
},
{
glyphname = cent;
kernLeft = "20";
kernRight = "20";
lastChange = "2024-04-18 14:55:36 +0000";
layers = (
{
layerId = "9BFADF9A-1221-4846-BC6F-4F7BEE8BA661";
shapes = (
{
closed = 1;
nodes = (
(190,977,l),
(190,1027,o),
(234,1071,o),
(285,1071,cs),
(336,1071,o),
(380,1027,o),
(380,977,c),
(530,977,l),
(530,1111,o),
(420,1221,o),
(285,1221,cs),
(150,1221,o),
(40,1111,o),
(40,977,c)
);
},
{
closed = 1;
nodes = (
(361,0,l),
(361,267,l),
(211,267,l),
(211,0,l)
);
},
{
closed = 1;
nodes = (
(420,237,o),
(530,346,o),
(530,481,c),
(380,481,l),
(380,431,o),
(336,387,o),
(285,387,cs),
(234,387,o),
(190,431,o),
(190,481,c),
(40,481,l),
(40,346,o),
(150,237,o),
(285,237,cs)
);
},
{
closed = 1;
nodes = (
(190,481,l),
(190,977,l),
(40,977,l),
(40,481,l)
);
},
{
closed = 1;
nodes = (
(361,1194,l),
(361,1461,l),
(211,1461,l),
(211,1194,l)
);
}
);
width = 570;
}
);
unicode = 162;
userData = {
KernOnSpecialSpacing = {
L = symbols;
R = symbols;
};
};
},
{
glyphname = dollar;
kernLeft = "20";
kernRight = "20";
lastChange = "2024-04-18 14:55:36 +0000";
layers = (
{
layerId = "9BFADF9A-1221-4846-BC6F-4F7BEE8BA661";
shapes = (
{
closed = 1;
nodes = (
(386,-183,l),
(386,11,l),
(498,44,o),
(580,147,o),
(580,268,cs),
(580,806,ls),
(580,954,o),
(459,1074,o),
(312,1074,cs),
(244,1074,o),
(190,1128,o),
(190,1193,cs),
(190,1257,o),
(244,1311,o),
(312,1311,cs),
(376,1311,o),
(430,1257,o),
(430,1193,c),
(580,1193,l),
(580,1315,o),
(498,1417,o),
(386,1450,c),
(386,1644,l),
(236,1644,l),
(236,1450,l),
(123,1417,o),
(40,1314,o),
(40,1193,cs),
(40,1045,o),
(161,924,o),
(312,924,cs),
(376,924,o),
(430,871,o),
(430,806,cs),
(430,268,ls),
(430,204,o),
(376,150,o),
(312,150,cs),
(244,150,o),
(190,204,o),
(190,268,cs),
(190,806,l),
(40,806,l),
(40,268,ls),
(40,148,o),
(123,44,o),
(236,11,c),
(236,-183,l)
);
}
);
width = 620;
}
);
unicode = 36;
userData = {
KernOnSpecialSpacing = {
L = symbols;
R = symbols;
};
};
},
{
glyphname = euro;
kernLeft = "20";
kernRight = "20";
lastChange = "2024-04-18 14:55:36 +0000";
layers = (
{
layerId = "9BFADF9A-1221-4846-BC6F-4F7BEE8BA661";
shapes = (
{
closed = 1;
nodes = (
(394,490,l),
(394,640,l),
(40,640,l),
(40,490,l)
);
},
{
closed = 1;
nodes = (
(394,821,l),
(394,971,l),
(40,971,l),
(40,821,l)
);
},
{
closed = 1;
nodes = (
(278,0,l),
(278,1193,l),
(128,1193,l),
(128,0,l)
);
},
{
closed = 1;
nodes = (
(399,0,l),
(399,150,l),
(143,150,l),
(143,0,l)
);
},
{
closed = 1;
nodes = (
(547,0,o),
(667,121,o),
(667,268,c),
(517,268,l),
(517,204,o),
(464,150,o),
(399,150,c),
(399,0,l)
);
},
{
closed = 1;
nodes = (
(278,1193,l),
(278,1257,o),
(331,1311,o),
(399,1311,cs),
(464,1311,o),
(517,1257,o),
(517,1193,c),
(667,1193,l),
(667,1340,o),
(547,1461,o),
(399,1461,cs),
(249,1461,o),
(128,1340,o),
(128,1193,c)
);
}
);
width = 708;
}
);
unicode = 8364;
userData = {
KernOnSpecialSpacing = {
L = symbols;
R = symbols;
};
};
},
{
glyphname = sterling;
kernLeft = "20";
kernRight = "20";
lastChange = "2024-04-18 14:55:36 +0000";
layers = (
{
layerId = "9BFADF9A-1221-4846-BC6F-4F7BEE8BA661";
shapes = (
{
closed = 1;
nodes = (
(580,0,l),
(580,150,l),
(190,150,l),
(190,418,l),
(312,418,l),
(312,568,l),
(190,568,l),
(190,1193,ls),
(190,1257,o),
(244,1311,o),
(312,1311,cs),
(376,1311,o),
(430,1257,o),
(430,1193,c),
(580,1193,l),
(580,1340,o),
(459,1461,o),
(312,1461,cs),
(161,1461,o),
(40,1340,o),
(40,1193,cs),
(40,0,l)
);
}
);
width = 620;
}
);
unicode = 163;
userData = {
KernOnSpecialSpacing = {
L = symbols;
R = symbols;
};
};
},
{
glyphname = yen;
kernLeft = "20";
kernRight = "20";
lastChange = "2024-04-18 14:55:36 +0000";
layers = (
{
layerId = "9BFADF9A-1221-4846-BC6F-4F7BEE8BA661";
shapes = (
{
closed = 1;
nodes = (
(580,186,l),
(580,336,l),
(40,336,l),
(40,186,l)
);
},
{
closed = 1;
nodes = (
(580,485,l),
(580,635,l),
(40,635,l),
(40,485,l)
);
},
{
closed = 1;
nodes = (
(386,0,l),
(386,609,l),
(237,609,l),
(237,0,l)
);
},
{
closed = 1;
nodes = (
(459,485,o),
(580,606,o),
(580,754,c),
(430,754,l),
(430,689,o),
(376,635,o),
(312,635,cs),
(244,635,o),
(190,689,o),
(190,754,c),
(40,754,l),
(40,606,o),
(161,485,o),
(312,485,cs)
);
},
{
closed = 1;
nodes = (
(190,754,l),
(190,1461,l),
(40,1461,l),
(40,754,l)
);
},
{
closed = 1;
nodes = (
(580,754,l),
(580,1461,l),
(430,1461,l),
(430,754,l)
);
}
);
width = 620;
}
);
unicode = 165;
userData = {
KernOnSpecialSpacing = {
L = symbols;
R = symbols;
};
};
},
{
glyphname = plus;
kernLeft = "20";
kernRight = "20";
lastChange = "2024-04-18 14:55:36 +0000";
layers = (
{
layerId = "9BFADF9A-1221-4846-BC6F-4F7BEE8BA661";
shapes = (
{
closed = 1;
nodes = (
(396,451,l),
(396,1012,l),
(246,1012,l),
(246,451,l)
);
},
{
closed = 1;
nodes = (
(601,657,l),
(601,806,l),
(40,806,l),
(40,657,l)
);
}
);
width = 641;
}
);
unicode = 43;
userData = {
KernOnSpecialSpacing = {
L = math;
R = math;
};
};
},
{
glyphname = multiply;
kernLeft = "20";
kernRight = "20";
lastChange = "2024-04-18 14:55:36 +0000";
layers = (
{
layerId = "9BFADF9A-1221-4846-BC6F-4F7BEE8BA661";
shapes = (
{
closed = 1;
nodes = (
(542,877,l),
(436,982,l),
(40,586,l),
(146,480,l)
);
},
{
closed = 1;
nodes = (
(542,586,l),
(146,983,l),
(40,877,l),
(436,480,l)
);
}
);
width = 582;
}
);
unicode = 215;
userData = {
KernOnSpecialSpacing = {
L = math;
R = math;
};
};
},
{
glyphname = equal;
kernLeft = "20";
kernRight = "20";
lastChange = "2024-04-18 14:55:36 +0000";
layers = (
{
layerId = "9BFADF9A-1221-4846-BC6F-4F7BEE8BA661";
shapes = (
{
closed = 1;
nodes = (
(601,784,l),
(601,934,l),
(40,934,l),
(40,784,l)
);
},
{
closed = 1;
nodes = (
(601,528,l),
(601,678,l),
(40,678,l),
(40,528,l)
);
}
);
width = 641;
}
);
unicode = 61;
userData = {
KernOnSpecialSpacing = {
L = math;
R = math;
};
};
},
{
glyphname = percent;
kernLeft = "20";
kernRight = "20";
lastChange = "2024-04-18 14:55:36 +0000";
layers = (
{
layerId = "9BFADF9A-1221-4846-BC6F-4F7BEE8BA661";
shapes = (
{
closed = 1;
nodes = (
(390,0,l),
(879,1461,l),
(758,1461,l),
(269,0,l)
);
},
{
closed = 1;
nodes = (
(346,697,o),
(436,788,o),
(436,895,cs),
(436,1263,ls),
(436,1370,o),
(346,1461,o),
(240,1461,cs),
(131,1461,o),
(40,1370,o),
(40,1263,cs),
(40,895,ls),
(40,788,o),
(131,697,o),
(240,697,cs)
);
},
{
closed = 1;
nodes = (
(1017,0,o),
(1107,91,o),
(1107,198,cs),
(1107,566,ls),
(1107,673,o),
(1017,764,o),
(910,764,cs),
(802,764,o),
(711,673,o),
(711,566,cs),
(711,198,ls),
(711,91,o),
(802,0,o),
(910,0,cs)
);
},
{
closed = 1;
nodes = (
(194,814,o),
(158,849,o),
(158,893,cs),
(158,1266,ls),
(158,1310,o),
(194,1346,o),
(240,1346,cs),
(283,1346,o),
(321,1310,o),
(321,1266,cs),
(321,893,ls),
(321,849,o),
(283,814,o),
(240,814,cs)
);
},
{
closed = 1;
nodes = (
(865,116,o),
(828,151,o),
(828,195,cs),
(828,568,ls),
(828,612,o),
(865,647,o),
(910,647,cs),
(954,647,o),
(991,612,o),
(991,568,cs),
(991,195,ls),
(991,151,o),
(954,116,o),
(910,116,cs)
);
}
);
width = 1147;
}
);
unicode = 37;
userData = {
KernOnSpecialSpacing = {
L = "spaced-off";
};
};
},
{
glyphname = dieresiscomb;
kernLeft = "20";
kernRight = "20";
lastChange = "2024-04-18 14:55:36 +0000";
layers = (
{
anchors = (
{
name = _top;
pos = (225,984);
}
);
layerId = "9BFADF9A-1221-4846-BC6F-4F7BEE8BA661";
shapes = (
{
closed = 1;
nodes = (
(377,1075,o),
(411,1108,o),
(411,1149,cs),
(411,1192,o),
(377,1225,o),
(336,1225,cs),
(294,1225,o),
(261,1192,o),
(261,1149,cs),
(261,1108,o),
(294,1075,o),
(336,1075,c)
);
},
{
closed = 1;
nodes = (
(156,1075,o),
(190,1108,o),
(190,1149,cs),
(190,1192,o),
(156,1225,o),
(114,1225,cs),
(73,1225,o),
(40,1192,o),
(40,1149,cs),
(40,1108,o),
(73,1075,o),
(114,1075,c)
);
}
);
width = 451;
}
);
unicode = 776;
userData = {
KernOnSpecialSpacing = {
L = NoKerning;
R = NoKerning;
};
};
},
{
glyphname = dotaccentcomb;
kernLeft = "20";
kernRight = "20";
lastChange = "2024-04-18 14:55:36 +0000";
layers = (
{
anchors = (
{
name = _top;
pos = (113,984);
}
);
layerId = "9BFADF9A-1221-4846-BC6F-4F7BEE8BA661";
shapes = (
{
closed = 1;
nodes = (
(155,1075,o),
(189,1106,o),
(189,1147,cs),
(189,1191,o),
(155,1223,o),
(113,1223,cs),
(72,1223,o),
(40,1191,o),
(40,1147,cs),
(40,1106,o),
(72,1075,o),
(113,1075,c)
);
}
);
width = 229;
}
);
unicode = 775;
userData = {
KernOnSpecialSpacing = {
L = NoKerning;
R = NoKerning;
};
};
},
{
glyphname = gravecomb;
kernLeft = "20";
kernRight = "20";
lastChange = "2024-04-18 14:55:36 +0000";
layers = (
{
anchors = (
{
name = _top;
pos = (153,984);
}
);
layerId = "9BFADF9A-1221-4846-BC6F-4F7BEE8BA661";
shapes = (
{
closed = 1;
nodes = (
(268,984,l),
(176,1321,l),
(40,1321,l),
(185,984,l)
);
}
);
width = 308;
}
);
unicode = 768;
userData = {
KernOnSpecialSpacing = {
L = NoKerning;
R = NoKerning;
};
};
},
{
glyphname = acutecomb;
kernLeft = "20";
kernRight = "20";
lastChange = "2024-04-18 14:55:36 +0000";
layers = (
{
anchors = (
{
name = _top;
pos = (155,984);
}
);
layerId = "9BFADF9A-1221-4846-BC6F-4F7BEE8BA661";
shapes = (
{
closed = 1;
nodes = (
(124,984,l),
(268,1321,l),
(132,1321,l),
(40,984,l)
);
}
);
width = 308;
}
);
unicode = 769;
userData = {
KernOnSpecialSpacing = {
L = NoKerning;
R = NoKerning;
};
};
},
{
glyphname = circumflexcomb;
kernLeft = "20";
kernRight = "20";
lastChange = "2024-04-18 14:55:36 +0000";
layers = (
{
anchors = (
{
name = _top;
pos = (260,984);
}
);
layerId = "9BFADF9A-1221-4846-BC6F-4F7BEE8BA661";
shapes = (
{
closed = 1;
nodes = (
(478,1149,l),
(395,1149,o),
(318,1183,o),
(260,1237,c),
(187,1144,l),
(268,1079,o),
(371,1043,o),
(478,1043,c)
);
},
{
closed = 1;
nodes = (
(147,1043,o),
(250,1079,o),
(330,1142,c),
(260,1237,l),
(201,1183,o),
(123,1149,o),
(40,1149,c),
(40,1043,l)
);
}
);
width = 518;
}
);
unicode = 770;
userData = {
KernOnSpecialSpacing = {
L = NoKerning;
R = NoKerning;
};
};
},
{
glyphname = ringcomb;
kernLeft = "20";
kernRight = "20";
lastChange = "2024-04-18 14:55:36 +0000";
layers = (
{
anchors = (
{
name = _top;
pos = (207,984);
}
);
layerId = "9BFADF9A-1221-4846-BC6F-4F7BEE8BA661";
shapes = (
{
closed = 1;
nodes = (
(297,1020,o),
(372,1094,o),
(372,1184,cs),
(372,1275,o),
(297,1350,o),
(207,1350,cs),
(115,1350,o),
(40,1275,o),
(40,1184,cs),
(40,1094,o),
(115,1020,o),
(207,1020,cs)
);
},
{
closed = 1;
nodes = (
(161,1102,o),
(123,1139,o),
(123,1184,cs),
(123,1229,o),
(161,1267,o),
(207,1267,cs),
(252,1267,o),
(289,1229,o),
(289,1184,cs),
(289,1139,o),
(252,1102,o),
(207,1102,cs)
);
}
);
width = 412;
}
);
unicode = 778;
userData = {
KernOnSpecialSpacing = {
L = NoKerning;
R = NoKerning;
};
};
},
{
glyphname = tildecomb;
kernLeft = "20";
kernRight = "20";
lastChange = "2024-04-18 14:55:36 +0000";
layers = (
{
anchors = (
{
name = _top;
pos = (226,984);
}
);
layerId = "9BFADF9A-1221-4846-BC6F-4F7BEE8BA661";
shapes = (
{
closed = 1;
nodes = (
(123,1123,o),
(139,1133,o),
(159,1136,cs),
(174,1137,o),
(191,1133,o),
(205,1123,cs),
(236,1104,o),
(278,1095,o),
(314,1105,cs),
(356,1112,o),
(391,1138,o),
(413,1170,c),
(340,1214,l),
(331,1197,o),
(314,1189,o),
(296,1186,cs),
(281,1183,o),
(262,1187,o),
(249,1197,cs),
(218,1217,o),
(177,1224,o),
(140,1215,cs),
(99,1209,o),
(63,1184,o),
(40,1150,c),
(113,1106,l)
);
}
);
width = 453;
}
);
unicode = 771;
userData = {
KernOnSpecialSpacing = {
L = NoKerning;
R = NoKerning;
};
};
},
{
glyphname = cedillacomb;
kernLeft = "20";
kernRight = "20";
lastChange = "2024-04-18 14:55:36 +0000";
layers = (
{
anchors = (
{
name = _bottom;
pos = (156,0);
}
);
layerId = "9BFADF9A-1221-4846-BC6F-4F7BEE8BA661";
shapes = (
{
closed = 1;
nodes = (
(178,-412,o),
(252,-337,o),
(252,-245,cs),
(252,-155,o),
(178,-80,o),
(87,-80,c),
(87,-163,l),
(132,-163,o),
(170,-200,o),
(170,-245,cs),
(170,-292,o),
(132,-329,o),
(87,-329,c),
(87,-412,l)
);
},
{
closed = 1;
nodes = (
(87,-412,l),
(87,-329,l),
(40,-329,l),
(40,-412,l)
);
},
{
closed = 1;
nodes = (
(124,-163,l),
(124,17,l),
(40,17,l),
(40,-163,l)
);
}
);
width = 293;
}
);
unicode = 807;
userData = {
KernOnSpecialSpacing = {
L = NoKerning;
R = NoKerning;
};
};
},
{
glyphname = hungarumlaut;
kernLeft = "20";
kernRight = "20";
lastChange = "2024-04-18 14:55:36 +0000";
layers = (
{
anchors = (
{
name = _top;
pos = (377,984);
}
);
layerId = "9BFADF9A-1221-4846-BC6F-4F7BEE8BA661";
shapes = (
{
closed = 1;
nodes = (
(569,984,l),
(712,1371,l),
(562,1371,l),
(419,984,l)
);
},
{
closed = 1;
nodes = (
(190,984,l),
(335,1371,l),
(185,1371,l),
(40,984,l)
);
}
);
width = 752;
}
);
unicode = 733;
},
{
glyphname = caron;
kernLeft = "20";
kernRight = "20";
lastChange = "2024-04-18 14:55:36 +0000";
layers = (
{
anchors = (
{
name = _top;
pos = (258,984);
}
);
layerId = "9BFADF9A-1221-4846-BC6F-4F7BEE8BA661";
shapes = (
{
closed = 1;
nodes = (
(318,1097,o),
(395,1129,o),
(478,1129,c),
(478,1237,l),
(371,1237,o),
(268,1201,o),
(187,1135,c),
(260,1043,l)
);
},
{
closed = 1;
nodes = (
(330,1137,l),
(250,1201,o),
(147,1237,o),
(40,1237,c),
(40,1129,l),
(123,1129,o),
(201,1097,o),
(260,1043,c)
);
}
);
width = 518;
}
);
unicode = 711;
},
{
glyphname = breve;
kernLeft = "20";
kernRight = "20";
lastChange = "2024-04-18 14:55:36 +0000";
layers = (
{
anchors = (
{
name = _top;
pos = (193,984);
}
);
layerId = "9BFADF9A-1221-4846-BC6F-4F7BEE8BA661";
shapes = (
{
closed = 1;
nodes = (
(271,1027,o),
(342,1094,o),
(342,1175,c),
(258,1175,l),
(258,1140,o),
(227,1110,o),
(193,1110,cs),
(155,1110,o),
(124,1140,o),
(124,1175,c),
(40,1175,l),
(40,1094,o),
(108,1027,o),
(193,1027,cs)
);
}
);
width = 382;
}
);
unicode = 728;
},
{
glyphname = macron;
kernLeft = "20";
kernRight = "20";
lastChange = "2024-04-18 14:55:36 +0000";
layers = (
{
anchors = (
{
name = _top;
pos = (270,984);
}
);
layerId = "9BFADF9A-1221-4846-BC6F-4F7BEE8BA661";
shapes = (
{
closed = 1;
nodes = (
(501,1086,l),
(501,1208,l),
(40,1208,l),
(40,1086,l)
);
}
);
width = 541;
}
);
unicode = 175;
},
